<svg width="142" height="201" viewBox="0 0 142 201" fill="none" xmlns="http://www.w3.org/2000/svg">
<g filter="url(#filter0_d)">
<mask id="mask0" mask-type="alpha" maskUnits="userSpaceOnUse" x="0" y="0" width="139" height="193">
<rect x="0.28125" width="138.719" height="193" fill="#C4C4C4"/>
</mask>
<g mask="url(#mask0)">
<path d="M136.082 132.924L134.87 128.425L131.618 129.292C129.042 129.979 126.663 131.293 124.656 133.038C125.638 130.439 125.808 127.56 125.06 124.784C124.127 121.316 121.909 118.415 118.81 116.613L113.143 113.317L109.892 118.991C108.113 122.094 107.65 125.71 108.584 129.178C108.787 129.934 109.073 130.651 109.397 131.346C108.109 131.325 106.82 131.465 105.559 131.801L100.802 133.07L102.013 137.569C102.47 139.266 103.204 140.871 104.153 142.336L103.891 142.282L104.432 150.357C104.565 152.345 104.985 154.284 105.649 156.134L104.646 155.549L101.624 160.822C99.9724 163.705 99.3753 166.998 99.8751 170.248L97.1369 168.654L94.2758 173.646C92.2769 177.135 91.7312 181.372 92.7815 185.273C93.3972 187.56 94.5511 189.706 96.1201 191.484L99.1523 194.916C95.2831 198.206 91.0958 201.077 86.6498 203.495C81.5846 203.613 76.5182 203.21 71.5126 202.287L72.4142 197.806C72.88 195.485 72.8007 193.051 72.1855 190.766C71.1353 186.865 68.5339 183.467 65.0502 181.44L60.0642 178.54L58.4933 181.282C57.2931 178.218 55.1221 175.664 52.2431 173.989L46.9776 170.928L46.4024 171.932C46.0497 169.999 45.4381 168.113 44.5546 166.323L40.9657 159.06L40.7663 159.238C40.8521 157.499 40.682 155.743 40.2252 154.047L39.0138 149.547L34.2561 150.816C32.9956 151.152 31.8071 151.673 30.704 152.332C30.6354 151.568 30.5222 150.804 30.3192 150.05C29.3855 146.582 27.1674 143.68 24.0685 141.878L18.402 138.582L15.1505 144.256C13.3723 147.359 12.9088 150.976 13.8424 154.444C14.5898 157.219 16.183 159.628 18.3397 161.391C15.7249 160.878 13.0044 160.924 10.4279 161.611L7.17578 162.478L8.38718 166.978C9.53612 171.246 12.3835 174.967 16.1969 177.185C16.4665 177.342 16.749 177.473 17.0276 177.614L15.7569 177.953L17.3626 183.917C18.2745 187.304 20.4437 190.139 23.4693 191.898C25.2465 192.932 27.1965 193.509 29.1848 193.638L24.1499 196.435L26.9921 199.654C28.539 201.406 30.3486 202.889 32.3645 204.063C36.0759 206.222 40.2922 207.222 44.5632 206.958L45.1127 206.925C45.0546 207.078 44.9808 207.222 44.93 207.378L43.6884 211.088L47.9482 212.546C51.6599 213.812 55.6157 213.951 59.393 212.944C63.1703 211.937 66.526 209.847 69.1017 206.902L69.6414 206.283C72.3921 206.833 75.1554 207.266 77.938 207.516C75.4964 208.458 73.0151 209.311 70.4695 209.99L62.4824 212.12L63.5979 216.263L71.585 214.133C77.2447 212.624 82.6693 210.462 87.7982 207.76C93.5975 207.548 99.3812 206.721 105.041 205.211L113.028 203.081L111.913 198.938L103.925 201.068C101.38 201.747 98.8027 202.243 96.2154 202.645C98.4974 201.043 100.675 199.293 102.779 197.448L103.557 197.716C107.269 198.982 111.225 199.121 115.002 198.114C118.779 197.107 122.135 195.017 124.711 192.072L127.668 188.69L124.728 186.095C124.604 185.986 124.468 185.898 124.343 185.794L124.835 185.549C128.667 183.652 131.815 180.688 133.945 176.971C135.103 174.951 135.923 172.767 136.383 170.48L137.229 166.277L131.464 166.36C133.121 165.259 134.518 163.79 135.539 162.009C137.276 158.982 137.731 155.448 136.819 152.061L135.213 146.096L133.942 146.435C134.113 146.175 134.292 145.92 134.446 145.65C136.635 141.832 137.231 137.192 136.082 132.924ZM47.6562 178.352L48.5548 176.787L50.12 177.697C52.4861 179.073 54.1822 181.29 54.8955 183.94C55.3785 185.734 55.3697 187.628 54.864 189.415L53.3754 194.692L49.436 190.866C48.0993 189.567 47.1407 187.933 46.6571 186.137C45.9438 183.487 46.2991 180.723 47.6562 178.352ZM40.7349 168.214C42.1888 171.155 42.7564 174.427 42.378 177.679C42.0583 180.435 41.0504 183.013 39.4932 185.265C38.66 184.359 37.8712 183.422 37.1042 182.467C36.8463 182.107 36.5577 181.774 36.2692 181.44C36.2527 181.42 36.2399 181.396 36.2255 181.376L36.5241 181.296L35.8939 178.955C35.6184 177.932 35.4659 176.873 35.4451 175.804C35.3747 172.066 36.9001 168.5 39.6375 165.991L40.7349 168.214ZM43.0695 188.783C42.8972 188.627 42.7137 188.478 42.5429 188.319C42.6272 188.206 42.7125 188.097 42.7947 187.984C42.8827 188.253 42.9661 188.522 43.0695 188.783ZM30.5676 157.95C31.8395 156.492 33.5015 155.458 35.3716 154.959L36.0101 154.789L36.106 155.145C36.9616 158.323 36.5182 161.776 34.8887 164.62C33.7263 166.649 31.9887 168.295 29.9442 169.385C29.557 168.766 29.1463 168.167 28.6903 167.605C28.4659 167.001 28.2589 166.388 28.056 165.774L28.1665 163.839C28.2905 161.668 29.1422 159.576 30.5676 157.95ZM31.3148 173.5C31.3135 173.511 31.3095 173.521 31.3097 173.53C31.3054 173.522 31.3011 173.515 31.2989 173.506C31.3051 173.505 31.3086 173.501 31.3148 173.5ZM18.8514 146.409L19.9793 144.441L21.9449 145.584C24.023 146.793 25.5737 148.822 26.2 151.148C26.9976 154.11 26.2754 157.249 24.2688 159.545L24.0981 159.74L23.8528 159.656C20.9611 158.664 18.7586 156.305 17.9616 153.345C17.3353 151.019 17.6589 148.49 18.8514 146.409ZM18.3205 173.479C15.4807 171.827 13.3619 169.057 12.5064 165.879L12.4188 165.554C14.9381 165.064 17.5914 165.318 19.9821 166.286C21.9368 167.077 23.6482 168.35 25.0306 169.927C25.6854 171.613 26.4156 173.259 27.2195 174.867C24.2107 175.523 21.0007 175.038 18.3205 173.479ZM25.5929 188.192C23.5849 187.023 22.0869 185.066 21.4818 182.819L20.9915 180.998L21.9327 180.747C24.7606 179.993 27.7153 180.39 30.2567 181.869C31.2356 182.438 32.1026 183.166 32.861 183.998C33.1345 184.358 33.4341 184.7 33.7153 185.056C33.9473 185.385 34.1758 185.717 34.3705 186.071L35.559 188.215L32.2678 189.092C30.0331 189.688 27.6004 189.36 25.5929 188.192ZM44.2804 202.677C40.8526 202.892 37.4687 202.089 34.4902 200.357C33.1763 199.592 31.9737 198.667 30.9048 197.591L32.5904 196.653C34.6724 195.499 37.0265 194.871 39.4097 194.835C41.4017 194.805 43.3754 195.192 45.2079 195.955C47.1869 197.386 49.2255 198.718 51.355 199.88C50.0704 200.545 48.9186 201.416 47.9279 202.45L44.2804 202.677ZM49.3078 208.486L49.1009 208.415C50.1163 205.741 52.3389 203.723 55.1111 202.984C55.8052 202.799 56.5238 202.705 57.2425 202.693C58.9009 203.368 60.5901 203.976 62.3175 204.497C63.1322 204.744 63.9593 204.93 64.7797 205.148C60.6892 208.928 54.63 210.306 49.3078 208.486ZM68.231 196.936L67.3337 201.401C66.7356 201.254 66.1413 201.088 65.5461 200.927L62.6963 198.41C61.2392 197.122 60.2017 195.449 59.6958 193.57C59.0137 191.037 59.3553 188.394 60.6523 186.128L61.6415 184.399L62.9266 185.146C65.4366 186.606 67.3095 189.053 68.0664 191.864C68.5098 193.511 68.565 195.266 68.231 196.936ZM113.593 121.143L114.72 119.175L116.686 120.318C118.764 121.527 120.315 123.556 120.941 125.883C121.739 128.845 121.017 131.984 119.01 134.28L118.839 134.474L118.594 134.391C115.702 133.399 113.5 131.04 112.703 128.08C112.077 125.753 112.4 123.224 113.593 121.143ZM106.036 136.114L106.675 135.944C108.545 135.445 110.504 135.514 112.34 136.143C114.391 136.844 116.177 138.23 117.378 140.048L118.445 141.669C118.578 142.302 118.707 142.936 118.816 143.571C118.704 144.284 118.647 145.01 118.624 145.736C116.306 145.81 113.974 145.248 111.948 144.07C109.106 142.419 106.988 139.649 106.132 136.471L106.036 136.114ZM119.522 149.981C119.522 149.99 119.522 149.999 119.525 150.009C119.518 150 119.512 149.993 119.505 149.984C119.509 149.982 119.515 149.981 119.522 149.981ZM108.689 150.092L108.523 147.621C112.154 148.431 115.266 150.761 117.081 154.032C117.6 154.97 118.002 155.962 118.278 156.985L118.908 159.326L119.206 159.247C119.202 159.272 119.203 159.299 119.201 159.324C119.118 159.756 119.036 160.189 118.994 160.629C118.812 161.839 118.597 163.044 118.33 164.241C115.851 163.066 113.683 161.335 112.02 159.105C110.06 156.479 108.907 153.363 108.689 150.092ZM117.224 168.406C117.156 168.628 117.073 168.846 117.001 169.069C116.96 168.792 116.895 168.518 116.838 168.24C116.965 168.297 117.096 168.349 117.224 168.406ZM105.325 162.975L106.223 161.408L107.789 162.318C110.155 163.694 111.851 165.911 112.564 168.561C113.047 170.355 113.038 172.249 112.533 174.036L111.044 179.313L107.105 175.487C105.768 174.188 104.809 172.554 104.326 170.758C103.612 168.108 103.968 165.344 105.325 162.975ZM102.326 192.069L99.3061 188.649C98.1758 187.37 97.344 185.822 96.9006 184.175C96.1438 181.364 96.5364 178.312 97.9767 175.799L98.7141 174.512L100.439 175.515C102.701 176.833 104.325 178.953 105.007 181.487C105.513 183.366 105.455 185.331 104.84 187.171L103.636 190.769C103.202 191.205 102.77 191.644 102.326 192.069ZM121.496 189.235C117.8 193.46 111.86 195.282 106.418 194.044C107.019 193.446 107.642 192.874 108.224 192.255C109.458 190.944 110.615 189.574 111.713 188.167C112.343 187.819 113.012 187.543 113.706 187.358C116.481 186.618 119.42 187.26 121.642 189.072L121.496 189.235ZM130.245 174.821C128.536 177.803 126.008 180.183 122.935 181.704L119.662 183.323C118.284 182.92 116.849 182.738 115.403 182.802C116.663 180.736 117.757 178.568 118.754 176.344C119.958 174.771 121.473 173.454 123.213 172.488C125.295 171.334 127.649 170.706 130.032 170.67L131.963 170.643C131.575 172.104 130.999 173.505 130.245 174.821ZM132.7 153.159C133.305 155.407 132.99 157.847 131.839 159.859C130.685 161.87 128.745 163.364 126.511 163.96L123.219 164.838L123.17 162.391C123.162 161.986 123.191 161.585 123.227 161.185C123.294 160.737 123.38 160.294 123.436 159.844C123.675 158.748 124.059 157.684 124.621 156.704C126.081 154.158 128.44 152.343 131.268 151.589L132.209 151.338L132.7 153.159ZM130.745 143.498C129.207 146.182 126.671 148.199 123.736 149.128C123.625 147.337 123.43 145.546 123.15 143.76C123.553 141.708 124.397 139.753 125.695 138.095C127.276 136.065 129.447 134.527 131.875 133.698L131.963 134.023C132.818 137.201 132.375 140.654 130.745 143.498Z" fill="#D29C4E"/>
<path d="M43.3916 108.413L39.2725 109.511L40.3879 113.655L44.5071 112.556L43.3916 108.413Z" fill="#D29C4E"/>
<path d="M32.7073 117.923L28.5882 119.022L29.7036 123.165L33.8228 122.067L32.7073 117.923Z" fill="#D29C4E"/>
<path d="M34.0958 137.536L39.3149 132.439C46.1294 125.781 54.5888 120.97 63.7725 118.52C72.9562 116.071 82.6995 116.029 91.9437 118.404L99.0265 120.221L103.222 119.102L102.57 87.7444L87.3001 94.2767L77.0742 82.6468L68.8275 93.9962L53.9006 81.8525L47.0747 99.7994L34.2312 94.0744L31.218 109.235L14.7123 111.176L29.9005 138.655L34.0958 137.536ZM34.7969 113.132L37.3763 100.156L49.465 105.546L55.7969 88.8961L69.6422 100.162L77.4039 89.4798L86.1564 99.4332L98.4325 94.1789L98.8795 115.764L92.9789 114.247C83.0295 111.695 72.5431 111.741 62.657 114.377C52.771 117.014 43.6666 122.193 36.3309 129.358L31.9831 133.608L21.5264 114.693L34.7969 113.132Z" fill="#D29C4E"/>
<path d="M80.4644 98.5265L76.3452 99.625L77.4607 103.768L81.5799 102.67L80.4644 98.5265Z" fill="#D29C4E"/>
<path d="M94.4951 101.446L90.376 102.544L91.4915 106.688L95.6106 105.589L94.4951 101.446Z" fill="#D29C4E"/>
<path d="M61.5415 110.234C64.9481 109.326 66.9696 105.798 66.0471 102.371C65.1246 98.9449 61.6017 96.8957 58.1951 97.8042C54.7885 98.7126 52.767 102.24 53.6895 105.667C54.612 109.093 58.135 111.142 61.5415 110.234ZM59.3106 101.947C60.4475 101.644 61.62 102.326 61.9279 103.47C62.2358 104.613 61.563 105.788 60.4261 106.091C59.2892 106.394 58.1166 105.712 57.8087 104.568C57.5009 103.425 58.1737 102.251 59.3106 101.947Z" fill="#D29C4E"/>
</g>
</g>
<defs>
<filter id="filter0_d" x="3.17578" y="81.8525" width="138.103" height="119.147" filterUnits="userSpaceOnUse" color-interpolation-filters="sRGB">
<feFlood flood-opacity="0" result="BackgroundImageFix"/>
<feColorMatrix in="SourceAlpha" type="matrix" values="0 0 0 0 0 0 0 0 0 0 0 0 0 0 0 0 0 0 127 0"/>
<feOffset dy="4"/>
<feGaussianBlur stdDeviation="2"/>
<feColorMatrix type="matrix" values="0 0 0 0 0 0 0 0 0 0 0 0 0 0 0 0 0 0 0.25 0"/>
<feBlend mode="normal" in2="BackgroundImageFix" result="effect1_dropShadow"/>
<feBlend mode="normal" in="SourceGraphic" in2="effect1_dropShadow" result="shape"/>
</filter>
</defs>
</svg>
