<svg width="1940" height="83" viewBox="0 0 1940 83" fill="none" xmlns="http://www.w3.org/2000/svg">
<path d="M1680.51 20.5524C1681.21 19.7619 1681.91 18.9714 1682.84 18.4444C1682.14 22.6603 1682.61 16.8635 1683.77 22.6603C1689.35 23.1873 1682.84 23.4508 1688.42 22.1333H1690.75V21.8698C1691.22 20.2889 1690.52 21.0794 1691.68 20.2889L1692.38 22.3968C1693.54 22.3968 1694.71 22.1333 1695.64 21.8698C1699.36 21.8698 1695.64 24.5048 1704.95 25.5587C1704.95 23.7143 1704.02 23.9778 1709.14 22.3968C1708.9 21.3429 1708.9 21.8698 1708.44 21.0794C1707.51 19.2349 1708.44 22.1333 1707.74 19.7619C1709.37 19.4984 1711 18.9714 1712.63 18.4444C1716.58 17.3905 1712.63 18.7079 1717.05 18.7079C1717.05 19.4984 1716.82 20.5524 1716.58 21.3429C1717.51 21.3429 1718.45 21.6063 1719.38 21.8698L1721.01 22.9238C1721.47 21.0794 1721.47 21.6063 1720.54 20.2889C1723.57 20.2889 1721.94 21.3429 1723.1 22.6603L1723.8 23.4508H1724.03C1725.19 23.7143 1726.36 23.7143 1727.75 23.7143C1731.01 23.1873 1727.52 23.1873 1730.55 22.1333L1733.81 23.1873C1733.81 21.6063 1733.81 22.1333 1734.27 21.0794C1735.9 22.3968 1735.2 21.8698 1736.83 21.8698C1738.23 21.8698 1739.39 21.8698 1740.79 21.6063C1740.32 21.0794 1739.86 20.8159 1739.39 20.5524L1740.09 20.2889C1740.55 20.0254 1741.02 20.0254 1741.49 20.0254C1741.95 21.8698 1742.18 21.8698 1743.81 22.1333L1746.61 22.6603C1747.07 22.6603 1748.93 22.3968 1748.93 22.3968H1749.17L1750.1 22.1333H1750.33L1756.85 21.8698C1756.15 19.2349 1756.15 21.3429 1755.45 18.7079C1759.64 21.3429 1758.47 22.1333 1760.1 22.3968C1761.73 22.6603 1761.5 22.1333 1761.96 21.3429C1761.27 20.0254 1761.5 20.0254 1759.64 19.7619V18.181C1761.27 17.9175 1760.57 17.3905 1761.73 18.4444C1764.06 20.0254 1762.9 22.1333 1768.95 22.3968C1769.18 21.3429 1768.71 21.8698 1769.41 21.3429H1770.81C1774.3 20.2889 1773.83 21.0794 1775.46 19.7619C1776.39 21.8698 1775.23 21.0794 1776.86 22.3968C1777.32 22.1333 1777.79 21.8698 1778.26 21.3429C1778.95 20.8159 1778.72 21.0794 1779.65 20.8159C1780.12 22.9238 1779.88 22.3968 1781.98 22.3968V21.3429H1782.91C1783.84 21.6063 1783.38 21.6063 1783.84 21.8698C1786.17 22.1333 1787.8 24.2413 1788.73 21.8698C1789.89 19.4984 1788.73 22.3968 1788.96 21.3429C1789.43 18.4444 1788.03 22.6603 1788.96 20.5524C1790.12 21.3429 1789.43 21.0794 1791.29 21.0794C1791.75 22.3968 1791.52 21.6063 1791.29 23.1873C1792.68 22.9238 1791.75 23.1873 1792.22 22.9238C1793.15 22.1333 1793.62 20.8159 1793.62 19.4984L1796.41 18.7079C1797.34 18.181 1795.94 18.4444 1797.11 18.7079C1798.27 18.9714 1796.41 18.7079 1798.04 18.9714C1801.06 19.4984 1799.67 17.654 1804.32 20.2889L1803.16 22.1333L1803.39 22.3968C1806.65 22.1333 1809.91 21.6063 1813.16 20.8159C1812.7 20.5524 1813.16 20.5524 1812.23 20.2889H1810.84L1812.23 18.7079C1814.79 17.3905 1816.89 19.2349 1819.22 19.2349C1822.71 18.9714 1818.28 18.181 1822.24 18.181C1823.64 18.181 1824.34 18.9714 1825.96 19.2349C1826.2 17.9175 1826.66 17.9175 1827.36 17.127C1826.2 17.3905 1825.27 17.654 1824.1 17.654V16.6C1825.27 16.6 1826.66 16.3365 1827.83 16.073C1827.83 20.0254 1827.13 18.7079 1826.43 21.3429C1828.52 21.3429 1834.11 22.6603 1836.9 22.1333C1840.86 21.0794 1837.37 23.1873 1841.09 22.1333C1844.12 21.3429 1843.42 22.1333 1846.68 21.8698C1849.94 21.6063 1850.17 20.2889 1854.12 20.2889C1854.82 22.3968 1853.66 20.2889 1854.59 22.3968C1855.52 22.1333 1856.68 22.3968 1857.62 22.6603C1860.41 23.9778 1863.43 24.7683 1866.46 24.5048C1866.23 23.9778 1864.6 21.8698 1867.62 22.6603L1872.28 23.9778C1872.51 23.4508 1872.74 23.1873 1872.98 22.6603L1873.67 21.8698L1876.47 21.0794C1877.86 21.0794 1876.93 21.0794 1878.33 21.6063C1878.79 20.0254 1878.1 21.3429 1879.26 20.0254C1880.19 20.2889 1879.72 19.7619 1880.19 21.3429V21.6063L1889.73 20.8159C1889.73 20.8159 1891.36 21.0794 1891.83 21.0794C1892.06 21.8698 1892.29 20.8159 1891.83 21.8698L1891.36 22.9238C1893.69 22.9238 1892.76 22.3968 1893.69 23.9778C1892.06 24.5048 1892.52 24.2413 1891.83 25.5587C1894.15 25.5587 1895.08 26.0857 1897.88 26.0857H1904.39L1904.86 28.1936C1906.72 27.6667 1907.65 28.1937 1908.58 26.6127C1904.63 26.6127 1906.49 25.5587 1902.53 25.5587L1906.49 25.0317C1907.42 23.1873 1908.35 23.7143 1911.84 25.0317C1913.47 25.5587 1912.31 25.5587 1914.4 25.8222L1926.73 24.7683C1926.04 23.7143 1926.27 24.2413 1925.8 22.6603C1922.55 22.6603 1922.55 21.8698 1923.01 24.2413H1918.82C1917.89 21.3429 1917.19 23.9778 1915.56 21.6063C1919.75 21.3429 1923.94 21.0794 1928.13 21.3429H1933.72C1935.81 21.6063 1937.91 21.3429 1940 21.0794C1939.3 22.6603 1940 22.3968 1940 25.2952L1930.69 25.8222L1932.32 26.8762C1933.48 27.9302 1932.55 26.6127 1932.55 27.4032V27.6667C1935.11 27.9302 1937.44 28.1936 1940 28.1936L1940 83H970V28.7206C970.698 29.2476 971.629 29.2476 972.327 28.7206C973.724 27.9302 973.258 27.9302 972.327 26.6127C974.887 26.6127 975.585 26.8762 976.051 24.5048C972.793 26.6127 974.655 24.5048 970.466 24.5048V22.9238C974.189 22.3968 969.069 20.8159 975.12 20.8159C976.284 24.2413 977.913 21.8698 976.982 24.5048C978.378 23.9778 978.145 23.7143 978.611 23.7143C980.007 23.7143 977.913 23.7143 979.775 24.5048C981.404 23.9778 983.265 23.7143 984.894 23.9778C985.593 21.0794 986.291 22.6603 989.549 20.8159C990.014 19.2349 989.316 20.5524 990.48 19.2349C991.644 19.4984 991.178 19.2349 992.109 20.5524L992.574 20.8159L993.971 22.6603C996.764 25.0317 1000.72 21.6063 1003.28 22.9238C1002.81 21.3429 1002.35 21.3429 1000.49 21.3429V20.0254C1003.75 19.7619 1000.02 19.4984 1003.28 18.4444C1003.75 19.7619 1003.05 18.181 1002.81 20.5524L1005.61 21.0794C1005.37 17.3905 1004.21 17.654 1008.63 16.3365H1008.87L1014.68 15.2825C1014.68 15.2825 1016.78 15.8095 1017.01 16.073L1018.64 17.3905L1020.27 18.9714C1023.29 20.8159 1026.79 21.6063 1030.28 21.3429C1031.67 21.3429 1033.3 21.3429 1034.7 21.6063V20.2889C1035.63 21.0794 1035.63 21.3429 1036.79 21.6063C1037.96 21.8698 1038.19 21.0794 1038.89 20.8159C1040.52 19.2349 1039.12 20.0254 1041.45 19.7619C1042.84 21.0794 1042.14 20.0254 1042.84 22.9238C1048.43 23.4508 1041.68 23.7143 1047.5 22.3968H1049.82C1050.29 21.3429 1049.59 21.3429 1050.76 20.2889L1051.22 22.3968C1056.11 22.3968 1054.48 20.5524 1057.27 23.4508C1059.13 24.7683 1061.46 25.5587 1063.79 25.5587C1063.79 23.7143 1062.62 23.9778 1067.98 22.3968C1067.51 20.5524 1067.28 21.6063 1066.58 19.7619C1068.21 19.4984 1069.84 18.9714 1071.47 18.4444C1075.42 17.3905 1071.47 18.7079 1075.89 18.7079C1075.89 19.4984 1075.66 20.5524 1075.42 21.3429C1076.36 21.3429 1077.29 21.6063 1078.22 21.8698V22.9238C1080.78 22.6603 1080.08 21.8698 1079.15 20.2889C1080.08 20.2889 1080.08 20.0254 1080.78 20.5524C1081.48 21.0794 1081.01 21.0794 1081.24 21.6063C1081.48 22.1333 1081.24 22.3968 1082.41 23.1873C1085.9 25.2952 1089.39 22.1333 1089.39 22.1333L1092.65 23.1873C1092.65 21.6063 1092.65 22.1333 1093.11 21.0794L1094.97 21.8698H1095.21C1096.84 22.1333 1098.46 21.8698 1099.86 21.6063C1099.4 21.0794 1098.93 20.8159 1098.46 20.5524L1098.93 20.0254C1099.4 19.7619 1099.86 19.7619 1100.09 19.7619C1100.79 22.6603 1101.72 21.3429 1104.05 21.8698L1113.59 21.0794C1114.99 20.8159 1112.2 21.0794 1114.06 21.0794H1114.76C1115.45 21.3429 1114.52 21.0794 1115.92 21.6063C1115.22 18.9714 1115.22 21.0794 1114.52 18.4444C1115.69 18.9714 1116.85 20.0254 1117.78 21.0794C1118.71 22.1333 1118.01 21.8698 1119.18 22.1333C1120.57 22.3968 1120.57 21.8698 1121.27 21.0794C1120.34 19.7619 1120.81 19.7619 1118.94 19.4984V18.4444C1123.6 17.3905 1119.41 22.3968 1127.79 22.6603C1128.02 21.8698 1127.79 21.8698 1128.49 21.3429H1129.18L1130.81 21.0794H1131.05C1133.37 20.8159 1132.21 21.3429 1133.84 20.0254C1134.77 22.1333 1133.61 21.3429 1135.24 22.6603C1135.7 22.3968 1136.17 22.1333 1136.63 21.6063C1137.33 21.0794 1137.1 21.3429 1138.03 21.0794C1138.49 23.1873 1138.26 22.6603 1140.36 22.6603L1142.22 22.1333C1144.54 22.3968 1145.94 24.5048 1147.1 22.1333C1148.27 19.7619 1147.1 22.6603 1147.34 21.6063C1148.04 18.7079 1146.64 22.9238 1147.34 20.8159C1148.5 21.6063 1147.8 21.3429 1149.66 21.3429C1150.13 22.6603 1149.9 21.8698 1149.66 23.4508C1151.99 23.1873 1149.66 24.7683 1151.99 20.8159C1150.83 20.8159 1151.29 20.5524 1150.83 20.5524L1150.13 20.2889C1146.87 19.2349 1148.5 20.8159 1147.1 18.9714C1148.73 18.4444 1150.13 18.4444 1151.76 18.4444C1152.22 19.7619 1152.22 18.7079 1151.76 20.0254H1153.62L1154.55 19.4984C1155.48 18.9714 1154.09 19.4984 1156.18 19.7619C1159.21 20.2889 1157.81 18.4444 1162.46 21.0794C1162.23 22.3968 1161.77 22.3968 1161.07 23.1873C1164.33 22.9238 1167.58 22.3968 1170.84 21.6063C1170.38 21.3429 1170.84 21.3429 1169.91 21.0794H1168.51L1169.91 19.4984C1172.47 18.181 1174.57 20.0254 1176.89 20.0254C1180.38 19.7619 1175.96 18.9714 1180.15 18.9714C1181.55 18.9714 1182.25 19.7619 1183.87 20.0254L1185.27 17.9175C1184.11 18.181 1183.18 18.4444 1182.01 18.4444V17.127C1183.18 17.127 1184.57 16.8635 1185.74 16.6C1185.74 20.5524 1185.04 19.2349 1184.34 21.8698C1185.5 21.8698 1186.9 21.8698 1188.06 22.3968C1190.62 22.9238 1193.42 22.9238 1195.98 22.3968C1198.07 22.3968 1195.98 22.6603 1197.61 22.9238C1198.54 22.9238 1198.3 22.9238 1199 22.6603C1202.03 21.8698 1201.33 22.6603 1204.59 22.3968C1207.85 22.1333 1208.08 20.8159 1212.03 20.8159C1212.97 22.9238 1211.8 20.8159 1212.5 22.9238C1213.43 22.6603 1214.59 22.9238 1215.53 23.1873L1216.46 23.7143L1217.15 22.9238C1219.71 23.9778 1222.27 24.2413 1224.83 24.2413C1224.6 22.6603 1224.37 23.4508 1224.83 22.1333C1226.93 22.3968 1226 23.1873 1227.39 23.1873L1229.95 23.7143C1230.42 22.6603 1231.12 22.1333 1232.05 21.8698L1232.28 21.6063C1234.38 20.5524 1233.91 21.0794 1236.01 21.6063C1236.7 20.0254 1235.77 21.3429 1236.94 20.0254C1238.33 20.5524 1236.94 19.7619 1237.63 20.5524L1237.87 21.6063L1239.5 21.8698L1243.45 21.6063V20.0254H1245.31V20.2889C1245.31 20.5524 1245.31 20.5524 1245.55 20.8159C1245.55 21.3429 1245.31 20.8159 1245.78 21.6063C1248.11 19.7619 1246.25 21.0794 1249.5 21.0794C1249.74 21.8698 1249.97 20.8159 1249.5 21.8698L1249.04 22.9238C1250.9 22.9238 1250.2 22.6603 1251.37 23.4508C1250.2 25.0317 1250.67 23.9778 1249.5 25.5587C1252.06 25.0317 1255.79 27.1397 1259.51 25.8222L1263 25.0317C1262.77 23.1873 1263 24.7683 1262.77 23.7143C1262.54 22.6603 1262.77 24.2413 1262.07 22.3968C1263.7 22.1333 1263.47 22.3968 1264.4 21.3429C1261.84 21.3429 1252.76 22.3968 1250.67 20.2889L1278.36 21.0794C1280.22 21.3429 1282.55 21.0794 1284.41 21.0794C1285.11 21.0794 1286.27 21.3429 1286.74 21.3429L1294.65 21.0794L1293.26 19.4984C1295.35 19.2349 1297.21 19.2349 1299.31 19.4984C1301.4 20.0254 1303.73 20.2889 1305.82 20.0254C1305.36 21.3429 1305.36 20.2889 1305.82 21.6063C1302.56 20.8159 1299.31 20.2889 1296.05 20.5524H1295.58C1295.58 21.3429 1297.68 22.6603 1298.38 22.9238L1304.19 24.7683C1305.59 25.0317 1306.99 25.0317 1308.38 24.7683C1308.62 26.0857 1308.85 23.9778 1308.15 25.2952C1307.45 26.6127 1307.68 24.7683 1307.92 25.8222C1309.31 26.6127 1308.85 26.3492 1310.71 26.3492C1310.94 26.0857 1310.94 25.8222 1310.94 25.5587V24.7683C1312.8 25.2952 1311.64 25.5587 1313.27 25.5587C1313.97 25.5587 1315.13 25.0317 1316.3 24.7683C1319.09 24.2413 1317.46 25.0317 1320.02 25.2952H1321.88V22.6603C1323.98 24.2413 1323.74 25.2952 1328.4 25.8222C1328.63 23.9778 1328.63 23.9778 1330.26 23.7143C1329.79 25.8222 1327.7 26.8762 1333.05 27.4032C1333.98 25.8222 1334.45 26.0857 1334.91 23.7143H1331.19C1331.66 21.3429 1333.05 21.6063 1334.68 22.3968H1334.91C1335.61 22.6603 1336.31 22.6603 1337.01 22.6603C1335.84 25.2952 1336.54 24.7683 1336.54 28.4571C1339.57 28.4571 1342.13 31.3556 1344.22 29.2476L1344.92 27.4032C1347.95 27.1397 1350.97 27.4032 1353.76 27.9302C1353.3 25.8222 1352.83 26.3492 1351.9 24.7683C1354 24.2413 1355.16 23.9778 1355.16 27.4032C1357.49 27.6667 1356.32 27.9302 1358.65 27.6667C1360.05 27.4032 1361.91 26.3492 1363.31 26.8762C1365.63 27.6667 1362.38 26.6127 1364 27.1397C1364.24 27.1397 1364.47 27.4032 1364.94 27.6667C1366.1 28.1937 1367.26 28.4571 1368.43 28.7206C1368.43 28.7206 1368.19 28.7206 1368.19 28.9841C1367.96 29.7746 1368.19 28.7206 1367.5 29.2476C1366.8 29.7746 1367.03 28.9841 1366.56 30.3016C1367.5 30.8286 1368.19 31.3556 1369.12 31.619C1371.92 32.4095 1371.45 30.8286 1371.68 33.4635L1380.06 33.9905C1383.32 33.2 1381.46 33.2 1381.69 32.673C1382.39 31.3556 1381.69 31.619 1382.39 29.7746C1386.11 32.4095 1383.79 30.5651 1388.44 30.3016C1393.1 30.0381 1391.23 29.7746 1391 29.2476L1390.77 28.9841L1390.07 27.1397C1393.33 27.4032 1389.6 27.4032 1391.47 27.9302L1393.1 27.4032H1394.96L1395.42 27.6667C1396.35 27.9302 1394.26 27.9302 1396.82 28.1936L1395.19 28.9841L1394.96 29.2476C1397.28 29.5111 1396.12 29.7746 1398.91 29.5111C1403.8 28.9841 1402.17 31.3556 1410.55 29.2476C1411.48 28.7206 1412.64 28.7206 1413.81 28.7206C1415.9 28.4571 1415.2 28.1937 1417.07 27.6667C1416.83 24.7683 1415.67 25.0317 1413.81 24.5048C1411.71 23.7143 1409.39 23.1873 1407.29 23.4508C1407.76 23.1873 1407.29 23.1873 1408.45 22.9238C1409.62 22.6603 1408.69 22.9238 1409.85 22.9238C1413.34 23.1873 1416.83 22.6603 1418.69 23.9778C1420.56 25.2952 1418.23 24.2413 1420.32 24.7683V26.8762H1418.46C1419.39 28.4571 1418.46 27.1397 1419.39 27.6667C1422.42 28.9841 1433.59 28.4571 1437.31 28.4571V30.3016C1439.87 30.3016 1442.43 30.8286 1444.76 31.3556C1443.83 27.6667 1442.9 31.3556 1439.64 28.7206C1440.8 28.7206 1441.97 28.7206 1443.13 28.4571C1444.29 28.1937 1444.29 28.7206 1444.76 27.1397C1445.92 26.3492 1445.92 25.8222 1447.09 26.6127C1447.32 27.6667 1447.09 27.4032 1447.55 28.1936L1449.65 27.9302C1453.84 26.8762 1451.51 30.0381 1459.89 26.8762C1461.52 26.3492 1459.65 26.6127 1461.52 26.0857L1462.91 27.1397C1463.84 26.3492 1463.61 26.0857 1465.24 26.0857C1466.4 26.0857 1466.4 26.3492 1468.03 26.6127C1472.22 26.8762 1471.52 26.6127 1473.62 25.0317C1473.15 27.6667 1473.39 25.8222 1473.62 26.6127L1482.23 26.8762C1485.49 26.8762 1481.53 25.8222 1484.79 26.3492C1488.05 26.8762 1485.25 28.9841 1489.21 26.8762C1492.7 25.0317 1490.14 27.6667 1494.33 27.9302C1494.33 23.9778 1491.77 24.5048 1491.54 21.0794C1492.47 21.3429 1497.59 25.8222 1498.05 27.4032C1501.78 27.4032 1498.75 26.8762 1502.48 27.6667C1504.57 28.1937 1504.34 27.1397 1505.97 25.8222C1507.36 27.1397 1508.76 28.1937 1510.39 28.7206C1513.65 29.5111 1515.04 27.4032 1515.28 31.0921C1517.6 30.0381 1514.81 30.8286 1517.14 30.0381C1518.07 32.4095 1516.91 32.146 1519.93 32.146C1519.23 31.0921 1518.07 29.5111 1519.7 27.9302C1520.4 27.1397 1520.86 27.1397 1521.33 27.6667C1522.26 28.7206 1521.56 27.4032 1521.56 28.4571L1521.09 29.5111C1523.19 28.9841 1523.65 27.4032 1525.05 27.1397C1526.91 26.8762 1529.01 27.1397 1530.87 27.4032V26.8762C1530.87 26.0857 1530.4 27.6667 1530.87 26.0857C1531.1 25.5587 1530.87 25.2952 1532.5 25.0317C1533.2 26.6127 1532.73 26.8762 1533.2 28.4571C1533.43 29.5111 1534.13 29.7746 1534.82 30.8286C1535.76 29.7746 1537.15 29.2476 1538.55 29.2476L1537.15 27.6667C1539.48 28.1937 1538.55 27.6667 1541.34 27.6667C1541.34 28.4571 1541.11 29.5111 1540.88 30.3016C1544.37 30.3016 1543.44 31.0921 1546 31.3556C1546 29.2476 1546.23 29.7746 1545.53 28.1936C1548.09 28.1936 1549.49 27.6667 1550.65 29.2476C1549.49 29.2476 1548.56 28.9841 1547.39 28.7206C1548.32 32.4095 1549.72 29.2476 1553.68 30.5651C1556 31.6191 1558.56 31.619 1560.89 30.8286C1561.59 27.6667 1561.12 29.5111 1560.89 26.6127C1561.59 26.8762 1562.29 27.1397 1562.98 27.6667C1564.85 28.4571 1564.61 27.9302 1565.08 27.9302C1568.34 28.1937 1566.01 28.7206 1566.71 30.8286C1569.04 30.5651 1567.41 30.3016 1569.5 28.7206C1571.6 27.1397 1570.43 28.9841 1571.83 26.0857C1569.04 26.8762 1570.9 26.0857 1568.1 25.5587H1552.74V24.5048C1556 24.5048 1555.77 23.7143 1558.33 23.4508L1568.1 22.9238C1569.97 22.6603 1570.9 21.6063 1572.99 22.9238C1573.46 23.1873 1571.6 22.9238 1573.92 23.4508H1575.78C1575.78 23.1873 1575.55 22.3968 1575.32 22.3968C1575.09 21.0794 1574.85 22.3968 1575.32 21.3429C1576.48 22.1333 1575.78 21.8698 1577.65 21.8698C1578.81 20.2889 1579.28 21.8698 1579.74 22.1333C1581.14 23.1873 1579.51 22.9238 1581.84 22.6603C1584.16 22.3968 1596.03 21.8698 1596.96 23.4508V23.9778L1597.2 23.7143L1597.66 23.9778L1598.36 24.2413C1593.7 24.2413 1592.31 25.2952 1584.16 25.2952C1584.63 27.1397 1586.26 28.4571 1587.89 28.4571C1590.68 28.4571 1588.35 26.8762 1593.01 27.9302C1593.01 24.7683 1592.77 26.3492 1593.94 25.8222C1594.4 27.1397 1594.17 27.1397 1593.47 28.4571L1600.45 28.7206H1603.01C1603.25 28.7206 1603.01 28.9841 1604.18 28.7206C1605.34 28.4571 1604.88 28.4571 1605.11 28.4571C1606.97 27.9302 1606.04 28.4571 1607.2 28.4571C1607.9 28.7206 1608.6 28.4571 1609.06 27.9302C1610.23 26.8762 1610 28.1936 1608.83 26.0857C1611.39 26.0857 1612.09 26.3492 1612.56 23.9778C1610.69 25.0317 1611.39 25.0317 1609.76 24.5048H1609.53L1608.37 24.2413C1606.97 23.7143 1607.44 24.5048 1606.97 23.1873C1606.5 21.8698 1606.5 23.7143 1607.44 22.6603C1610 20.0254 1608.37 20.5524 1611.62 20.5524C1612.56 23.9778 1614.42 21.6063 1613.49 24.2413C1614.88 23.7143 1614.65 23.4508 1615.35 23.4508C1616.74 23.4508 1614.65 23.4508 1616.51 24.2413C1618.14 23.7143 1620 23.4508 1621.63 23.7143C1622.1 21.6064 1623.73 21.0794 1626.29 21.0794V20.8159L1632.57 18.9714L1635.36 22.3968C1637.69 24.5048 1641.88 22.1333 1644.21 22.1333C1643.27 20.5524 1644.21 21.0794 1641.88 21.0794V20.2889C1645.14 20.0254 1641.41 19.7619 1644.67 18.7079C1645.14 20.0254 1644.44 18.4444 1644.21 20.8159L1647 21.3429C1647 19.2349 1644.9 17.127 1651.65 16.3365C1661.66 15.019 1657.01 17.654 1662.36 19.7619L1663.52 20.0254C1671.67 22.9238 1667.01 21.0794 1676.09 21.8698V20.2889C1677.02 21.0794 1677.02 21.3429 1678.18 21.6063H1679.11C1679.35 21.6063 1679.58 21.3429 1679.81 21.3429L1680.51 20.5524Z" fill="white"/>
<path d="M1448.48 26.6127C1446.62 26.6127 1446.39 26.8762 1444.29 27.1397C1438.94 27.4032 1445.23 27.9302 1441.04 28.1936V27.1397C1434.05 26.8762 1441.27 28.4571 1433.12 26.6127C1431.73 26.3492 1430.33 25.8222 1428.93 25.8222C1427.07 25.8222 1426.61 27.4032 1425.21 25.0317C1427.31 24.7683 1426.84 24.2413 1429.4 24.7683C1430.8 24.7683 1431.96 24.7683 1433.12 25.0317V26.0857C1434.75 25.5587 1433.82 25.5587 1435.22 25.0317H1437.78C1438.24 24.2413 1437.78 24.2413 1438.94 23.9778H1441.5C1441.5 24.2413 1441.27 24.2413 1441.5 26.0857L1448.48 26.6127ZM1879.26 9.48571C1876.7 10.8032 1873.67 10.5397 1871.35 8.69524L1869.95 7.64127C1871.81 7.11429 1873.67 6.85079 1875.54 6.5873C1877.86 6.32381 1878.56 7.64127 1879.26 9.48571ZM1237.87 9.48571C1234.84 11.0667 1234.84 10.5397 1231.35 9.22222L1228.33 7.37778C1230.19 6.85079 1232.05 6.5873 1233.91 6.32381C1236.47 6.32381 1237.17 7.64127 1237.87 9.48571ZM1842.02 8.43175C1841.09 12.3841 1839.7 7.64127 1838.76 11.5937H1836.9L1837.14 9.48571C1837.83 6.5873 1839.93 8.95873 1842.02 8.43175ZM1200.86 8.43175C1199.93 12.3841 1198.54 7.64127 1197.61 11.5937H1195.74C1195.74 10.8032 1195.51 7.90476 1197.61 7.90476C1199.7 7.90476 1198.07 8.95873 1200.86 8.43175ZM1553.21 24.7683C1551.12 24.7683 1551.58 25.2952 1549.95 25.2952C1548.79 25.0317 1547.39 25.0317 1546.23 24.7683V23.7143C1551.81 23.1873 1551.81 22.3968 1553.21 24.7683ZM1793.85 18.9714C1790.82 20.0254 1795.48 18.9714 1792.45 20.0254C1791.99 18.7079 1792.68 19.2349 1791.52 18.9714H1789.19V17.9175C1790.82 17.3905 1792.22 17.3905 1793.85 17.3905C1794.31 18.7079 1794.31 17.654 1793.85 18.9714ZM1902.3 14.2286C1901.13 15.019 1900.67 14.7556 1898.57 14.7556C1897.18 14.7556 1897.64 14.4921 1897.18 13.7016C1898.34 13.1746 1902.3 12.3841 1902.3 14.2286ZM1261.14 14.2286C1259.98 15.019 1259.51 14.7556 1257.42 14.7556C1256.02 14.7556 1256.49 14.4921 1256.02 13.7016C1256.95 13.1746 1260.67 12.3841 1261.14 14.2286ZM1222.04 6.32381V6.85079L1218.32 7.37778C1217.62 5.26984 1218.55 6.5873 1215.53 6.85079V5.79683C1218.32 5.79683 1219.25 6.32381 1222.04 6.32381ZM1863.2 6.32381V6.85079L1859.48 7.37778C1858.78 5.26984 1859.71 6.5873 1856.68 6.85079V5.79683C1859.71 5.79683 1860.64 6.32381 1863.2 6.32381ZM1214.83 6.85079H1209.24C1210.17 5.26984 1209.24 5.79683 1211.57 5.79683H1214.83V6.85079ZM1856.22 6.85079H1850.63C1851.56 5.26984 1850.63 5.79683 1852.96 5.79683H1856.22V6.85079ZM1619.77 7.90476C1621.4 5.26984 1622.33 5.26984 1624.89 3.68889C1624.42 5.53333 1624.42 5.26984 1622.8 6.06032C1621.86 6.85079 1620.7 7.37778 1619.77 7.90476ZM978.611 7.90476C980.24 5.26984 981.171 5.26984 983.731 3.68889C983.265 5.53333 983.265 5.26984 981.636 6.06032C980.705 6.85079 979.542 7.37778 978.611 7.90476ZM1410.32 29.2476V28.1936L1409.85 27.1397C1412.41 26.3492 1411.95 25.5587 1413.11 28.1936C1411.48 28.7206 1411.71 28.9841 1410.32 29.2476ZM1215.29 17.3905C1213.2 17.9175 1212.73 18.7079 1212.03 16.3365C1212.97 16.073 1215.29 14.7556 1215.29 17.3905ZM1856.68 17.3905C1854.59 17.9175 1853.89 18.7079 1853.43 16.3365C1854.36 16.073 1856.68 14.7556 1856.68 17.3905ZM1171.77 14.2286L1167.12 14.7556V13.7016C1169.68 13.7016 1169.68 13.1746 1171.77 13.1746V14.2286ZM1180.38 11.0667L1180.62 10.8032L1182.01 9.48571C1183.18 8.69524 1184.57 8.95873 1185.5 9.74921C1183.87 10.5397 1182.25 11.0667 1180.38 11.0667ZM1821.78 11.0667L1822.01 10.5397L1823.87 9.48571C1826.2 8.95873 1826.43 10.0127 1826.66 10.0127C1825.27 10.5397 1823.4 11.0667 1821.78 11.0667ZM1205.52 6.85079C1199 6.85079 1198.77 7.90476 1196.67 5.79683L1205.52 6.85079ZM1846.68 6.85079C1843.19 6.85079 1839.93 7.37778 1838.53 6.5873C1837.14 5.53333 1838.3 6.32381 1837.83 5.79683L1846.68 6.85079ZM1350.74 22.6603C1347.95 22.6603 1347.25 22.1333 1344.69 22.1333V21.6063C1347.02 21.6063 1349.58 21.0794 1350.74 22.6603ZM1347.48 20.5524C1345.39 20.5524 1344.92 20.0254 1342.36 20.0254V19.4984H1347.48V20.5524ZM1378.67 31.8825C1376.8 31.8825 1376.8 32.146 1375.41 31.3556C1375.87 30.5651 1375.41 30.3016 1376.8 30.3016C1378.2 30.3016 1378.43 31.0921 1378.67 31.8825ZM1386.58 23.1873C1384.72 23.1873 1385.42 23.7143 1383.32 23.7143C1381.92 23.7143 1382.39 23.4508 1381.92 22.6603H1386.58V23.1873ZM1835.04 10.0127C1834.11 10.2762 1833.18 10.5397 1832.25 10.5397C1833.18 8.95873 1832.95 8.95873 1835.04 8.95873V10.0127ZM1193.65 10.0127C1192.72 10.2762 1191.79 10.5397 1190.86 10.5397C1191.79 8.95873 1191.55 8.95873 1193.65 8.95873V10.0127ZM1204.59 12.1206C1203.66 12.3841 1202.49 11.8571 1201.79 11.0667C1202.26 10.2762 1202.03 10.5397 1202.26 9.48571L1204.59 12.1206ZM1845.75 12.1206C1844.82 12.3841 1843.65 11.8571 1842.95 11.0667C1843.19 10.5397 1843.42 10.0127 1843.42 9.48571L1845.75 12.1206ZM1819.91 16.3365H1816.19C1816.66 16.073 1816.42 16.073 1816.89 15.546C1817.35 15.019 1819.68 15.019 1819.91 16.3365ZM1178.52 16.3365H1174.8C1175.03 16.073 1174.8 16.073 1175.5 15.546C1176.19 15.019 1178.52 15.019 1178.52 16.3365ZM1459.65 25.2952C1456.63 25.2952 1456.4 26.3492 1455.47 24.7683H1459.65V25.2952ZM1180.38 11.0667L1181.08 12.1206H1178.06V11.0667H1180.38ZM1821.78 11.0667L1822.24 12.1206H1819.45V11.0667H1821.78ZM1609.3 24.7683C1606.97 24.7683 1607.44 25.2952 1606.5 23.7143H1609.3V24.7683ZM1000.25 19.4984C998.625 19.2349 998.625 19.2349 998.393 17.3905C1000.02 17.9175 999.789 17.654 1000.25 19.4984ZM1641.41 19.4984C1639.78 19.2349 1639.78 19.2349 1639.55 17.3905C1641.18 17.9175 1640.95 17.654 1641.41 19.4984ZM1209.24 10.0127C1207.38 9.74921 1207.85 10.2762 1207.38 8.43175H1209.24V10.0127ZM1850.63 10.0127C1848.77 9.74921 1849.24 10.2762 1848.77 8.43175H1850.63V10.0127ZM1800.36 16.3365C1798.97 16.3365 1799.43 16.073 1798.97 15.2825H1802.46C1801.06 16.3365 1801.53 16.3365 1800.36 16.3365ZM1159.21 16.3365C1157.81 16.3365 1158.28 16.073 1157.81 15.2825H1161.07C1160.6 15.546 1160.83 15.546 1160.37 16.073C1159.9 16.6 1161.07 16.3365 1159.21 16.3365ZM1131.51 19.4984L1129.18 18.9714V16.8635L1131.51 19.4984ZM1772.67 19.4984L1770.34 18.9714V16.8635L1772.67 19.4984ZM983.265 21.0794C982.102 22.6603 982.102 22.6603 980.473 22.1333L981.404 21.3429L981.636 21.0794C981.869 21.0794 982.8 20.5524 983.265 21.0794ZM1107.54 12.6476H1105.68V11.5937L1107.54 11.0667V12.6476ZM1773.14 10.5397L1772.2 11.0667C1770.81 11.0667 1771.27 10.8032 1770.81 10.0127C1771.74 9.74921 1772.9 8.95873 1773.14 10.5397ZM1131.98 10.5397L1131.05 11.0667C1129.65 11.0667 1130.12 10.8032 1129.65 10.0127C1130.35 9.74921 1131.74 8.95873 1131.98 10.5397ZM1856.68 10.5397H1854.36V11.5937H1856.68V10.5397ZM1215.29 10.5397H1212.97V11.5937H1215.29V10.5397Z" fill="white"/>
<path d="M1410.32 28.1936H1405.66V28.7206H1410.32V28.1936ZM1810.84 13.7016H1808.51V14.7556H1810.84V13.7016ZM1624.66 21.0794C1623.73 22.6603 1623.49 22.6603 1621.86 22.1333L1622.1 21.8698L1623.73 20.8159C1623.96 20.8159 1624.42 20.8159 1624.66 21.0794ZM1330.49 19.4984L1327.7 20.0254V18.9714H1330.49V19.4984ZM1746.61 19.4984C1744.74 19.2349 1745.21 19.7619 1744.74 17.9175H1746.61C1746.37 18.9714 1746.14 18.4444 1746.61 19.4984ZM1195.05 8.43175C1193.18 6.85079 1195.28 6.85079 1192.72 6.85079V6.32381H1195.05V8.43175ZM1836.44 8.43175C1834.58 6.85079 1836.67 6.85079 1834.11 6.85079V6.32381H1836.44V8.43175ZM1436.61 24.2413L1434.05 23.9778C1433.36 23.7143 1433.59 23.7143 1433.36 23.1873C1434.75 23.1873 1436.38 22.9238 1436.61 24.2413ZM1267.89 18.4444H1263.7V18.9714H1267.89V18.4444ZM1704.25 24.2413H1701.46C1701.69 23.9778 1704.02 21.8698 1704.25 24.2413ZM1192.02 14.7556H1189.69V13.7016C1191.09 13.7016 1192.02 13.4381 1192.02 14.7556ZM1833.64 14.7556H1831.32V13.7016C1832.48 13.7016 1833.41 13.4381 1833.64 14.7556ZM1393.56 11.0667H1391.23C1392.16 9.48571 1391.23 10.0127 1393.56 10.0127V11.0667ZM1670.74 28.1936C1669.81 28.1936 1670.04 28.4571 1668.87 27.1397H1671.67C1671.43 27.6667 1671.43 28.1936 1670.74 28.1936ZM1029.34 28.1936C1028.18 28.1936 1028.65 28.4571 1027.48 27.1397H1030.28C1030.04 27.6667 1030.04 28.1936 1029.34 28.1936ZM1105.21 19.4984C1103.12 19.2349 1104.28 20.0254 1103.35 18.4444C1103.82 18.181 1104.52 17.9175 1105.21 17.9175C1104.98 18.9714 1104.75 18.4444 1105.21 19.4984ZM1832.71 6.32381H1828.99V6.85079H1832.71V6.32381ZM1191.32 6.32381H1187.6V6.85079H1191.32V6.32381ZM1788.26 11.5937H1786.4V12.6476H1788.26V11.5937ZM1146.87 11.5937H1145.01V12.6476H1146.87V11.5937ZM1813.16 13.1746H1811.3V14.2286H1813.16V13.1746ZM1381.92 28.7206H1380.06V29.7746H1381.92V28.7206ZM1168.05 11.5937H1165.72C1165.95 11.0667 1165.95 10.5397 1166.65 10.5397C1167.35 10.5397 1168.05 10.8032 1168.05 11.5937ZM1062.86 24.2413H1060.53C1060.76 23.7143 1060.76 23.1873 1061.46 23.1873C1062.16 23.1873 1062.62 23.4508 1062.86 24.2413ZM1809.44 11.5937H1807.11C1807.35 11.0667 1807.58 10.5397 1808.04 10.5397C1808.51 10.5397 1809.44 10.8032 1809.44 11.5937ZM1152.46 8.43175H1150.13C1150.36 8.16825 1150.13 8.16825 1150.83 7.64127C1151.99 7.11429 1151.06 7.37778 1152.46 7.37778V8.43175ZM1793.85 8.43175H1791.52C1791.99 8.16825 1791.52 8.16825 1792.22 7.64127C1793.38 7.11429 1792.45 7.37778 1793.85 7.37778V8.43175ZM1872.28 22.1333H1869.95C1870.42 21.8698 1869.95 21.8698 1870.65 21.3429C1871.81 21.0794 1871.11 21.3429 1872.28 21.0794V22.1333ZM1389.37 28.1936V27.1397H1391.7C1391.47 27.4032 1391.7 27.4032 1391 27.9302C1389.84 28.4571 1390.77 28.1936 1389.37 28.1936ZM1747.07 12.6476C1747.54 11.3302 1747.07 11.5937 1748.93 11.0667C1748 13.4381 1749.4 12.3841 1747.07 12.6476ZM1605.34 24.7683H1602.08V25.2952H1605.34V24.7683ZM1432.43 23.1873H1429.17V23.7143H1432.43V23.1873ZM1230.89 22.1333H1228.56V21.6063C1229.26 21.6063 1230.19 21.3429 1230.89 21.0794V22.1333ZM1707.51 19.4984H1705.65V18.4444C1706.81 18.7079 1707.27 18.4444 1707.51 19.4984ZM1252.3 1.05397C1250.2 0.790476 1251.37 1.58095 1250.43 0H1252.3V1.05397ZM1893.69 1.05397C1891.59 0.790476 1892.99 1.58095 1891.83 0H1893.69V1.05397ZM1108.7 12.6476V11.5937H1110.57C1109.64 13.1746 1111.03 12.3841 1108.7 12.6476ZM1750.1 12.6476V11.5937H1751.96C1750.79 13.1746 1752.19 12.3841 1750.1 12.6476ZM1316.3 12.1206H1314.9C1315.36 10.5397 1314.2 11.8571 1316.3 10.5397V12.1206ZM1064.49 18.4444C1066.58 18.7079 1065.42 17.9175 1066.35 19.4984C1063.56 19.4984 1064.95 19.7619 1064.49 18.4444ZM1804.79 14.7556H1803.39V15.8095H1804.79V14.7556ZM1073.8 10.0127H1072.4V11.0667H1073.8V10.0127ZM1163.39 14.7556H1162V15.8095H1163.39V14.7556ZM1387.51 27.6667H1384.72V28.1936H1387.51V27.6667ZM1753.82 18.9714C1752.19 19.2349 1752.42 20.0254 1751.96 17.9175L1752.89 18.4444C1753.82 18.9714 1753.12 18.4444 1753.82 18.9714ZM1112.66 18.9714C1111.03 19.2349 1111.26 20.0254 1110.8 17.9175C1111.03 17.9175 1111.73 18.181 1111.73 18.4444C1112.66 18.9714 1111.96 18.4444 1112.66 18.9714ZM1777.32 13.1746C1778.26 11.5937 1777.09 12.3841 1779.19 12.1206C1778.02 13.7016 1779.42 12.9111 1777.32 13.1746ZM1373.31 16.3365C1374.48 14.7556 1373.08 15.546 1375.18 15.2825C1374.24 16.8635 1375.41 16.073 1373.31 16.3365ZM1136.17 13.1746C1137.33 11.5937 1135.93 12.3841 1138.03 12.1206C1136.86 13.7016 1138.26 12.9111 1136.17 13.1746ZM1857.62 16.8635H1859.48C1858.55 18.4444 1858.55 18.4444 1857.62 16.8635ZM1216.22 16.8635H1218.09C1217.15 18.4444 1217.15 18.4444 1216.22 16.8635ZM1109.64 20.0254C1108.94 20.0254 1109.17 20.2889 1108.47 19.7619C1106.84 18.9714 1107.77 19.4984 1107.31 18.9714C1108.7 19.2349 1109.17 19.2349 1109.64 20.0254ZM1427.31 26.6127H1424.98V27.1397H1427.31V26.6127ZM1706.58 22.6603H1705.18V21.6063C1705.88 21.8698 1706.34 21.8698 1706.58 22.6603ZM1065.42 22.6603H1064.02V21.6063C1064.72 21.8698 1065.18 21.8698 1065.42 22.6603ZM1715.19 11.0667H1713.79V10.0127C1714.72 10.2762 1714.95 10.0127 1715.19 11.0667ZM1399.84 23.1873C1400.31 21.6063 1399.84 22.1333 1401.24 21.6063C1400.31 23.7143 1401.47 22.6603 1399.84 23.1873ZM1450.81 26.0857V24.7683H1452.67C1452.21 25.0317 1452.91 24.7683 1451.74 25.2952L1450.81 26.0857ZM1815.49 13.7016C1814.1 13.4381 1814.79 13.7016 1814.1 12.6476H1815.49V13.7016ZM1448.48 25.2952C1447.09 25.0317 1447.79 25.2952 1447.09 24.2413H1448.48V25.2952ZM1174.1 13.7016C1172.7 13.4381 1173.4 13.7016 1172.7 12.6476H1174.1V13.7016ZM1654.68 28.7206H1653.28C1653.98 27.6667 1653.28 27.9302 1654.68 27.6667V28.7206ZM1013.29 28.7206H1011.89C1012.59 27.6667 1011.89 27.9302 1013.29 27.6667V28.7206ZM1750.56 20.0254C1749.63 19.7619 1750.56 20.2889 1749.4 19.7619L1748.7 18.9714C1749.63 19.2349 1750.33 18.9714 1750.56 20.0254ZM1045.64 22.1333C1044.7 21.8698 1045.64 22.3968 1044.47 21.8698C1043.77 21.6063 1044.01 21.6063 1043.77 21.0794C1044.7 21.3429 1045.4 21.0794 1045.64 22.1333ZM1686.79 22.1333C1685.86 21.8698 1686.79 22.3968 1685.63 21.8698L1684.93 21.0794C1685.86 21.3429 1686.56 21.0794 1686.79 22.1333ZM1929.29 1.58095H1927.43V2.10794H1929.29V1.58095ZM1263 22.1333H1261.14V22.6603H1263V22.1333ZM1288.14 1.58095H1286.27V2.10794H1288.14V1.58095ZM1904.39 22.1333H1902.53V22.6603H1904.39V22.1333ZM1365.4 22.6603H1363.54V23.1873H1365.4V22.6603ZM1183.41 8.43175H1181.55V8.95873H1183.41V8.43175ZM1146.87 21.0794H1145.01V21.6063H1146.87V21.0794ZM1788.26 21.0794H1786.4V21.6063H1788.26V21.0794ZM1824.8 8.43175H1822.94V8.95873H1824.8V8.43175ZM1377.74 24.2413H1375.87V24.7683H1377.74V24.2413ZM1632.57 17.3905C1631.17 16.073 1631.87 17.654 1631.64 15.2825C1631.87 15.546 1631.87 15.2825 1632.34 16.073C1632.8 17.3905 1632.34 16.6 1632.57 17.3905ZM991.178 17.3905C989.782 16.073 990.48 17.654 990.247 15.2825C990.48 15.546 990.48 15.2825 990.945 16.073C991.411 17.3905 990.945 16.6 991.178 17.3905ZM1064.49 18.4444C1063.09 18.181 1063.79 18.4444 1063.09 17.3905C1065.42 17.654 1063.79 16.8635 1064.49 18.4444Z" fill="white"/>
<path d="M1452.67 24.7683C1452.91 24.7683 1452.21 23.7143 1453.6 24.5048C1455 25.2952 1453.6 23.9778 1454.07 25.2952C1452.91 25.0317 1453.84 25.2952 1452.67 24.7683ZM1704.25 17.3905H1705.65C1704.48 18.9714 1705.18 18.9714 1704.25 17.3905ZM1062.39 18.9714H1063.79C1062.62 20.5524 1063.56 20.5524 1062.39 18.9714ZM1703.78 18.9714H1705.18C1704.02 20.5524 1704.71 20.5524 1703.78 18.9714ZM1170.38 18.9714L1169.45 17.9175C1172.01 17.9175 1170.14 17.9175 1170.84 18.4444L1170.38 18.9714ZM1811.77 18.9714L1810.84 18.181C1813.4 18.181 1811.54 18.181 1812.23 18.7079L1811.77 18.9714ZM1867.86 11.0667C1866.46 10.8032 1867.16 11.0667 1866.46 10.0127C1867.39 10.2762 1867.86 10.0127 1867.86 11.0667ZM1147.34 17.9175C1145.94 17.654 1146.64 17.9175 1145.94 16.8635C1146.87 17.127 1147.1 16.8635 1147.34 17.9175ZM1788.73 17.9175C1787.33 17.654 1788.03 17.9175 1787.33 16.8635C1788.26 17.127 1788.5 16.8635 1788.73 17.9175ZM1226.7 11.0667C1225.3 10.8032 1226 11.0667 1225.3 10.0127C1226.23 10.2762 1226.7 10.0127 1226.7 11.0667ZM1382.39 31.3556H1380.99V31.8825H1382.39V31.3556ZM1823.17 6.32381H1821.78V6.85079H1823.17V6.32381ZM1406.13 23.7143H1404.73V24.2413H1406.13V23.7143ZM1746.61 20.0254H1745.21V20.5524H1746.61V20.0254ZM1916.26 13.7016H1914.87V14.2286H1916.26V13.7016ZM1274.87 13.7016H1273.47V14.2286H1274.87V13.7016ZM1182.01 6.32381H1180.62V6.85079H1182.01V6.32381ZM1105.21 20.0254H1103.82V20.5524H1105.21V20.0254ZM1658.87 28.1936H1657.47V28.7206H1658.87V28.1936ZM1212.97 8.95873H1211.57V9.48571H1212.97V8.95873ZM1854.36 8.95873H1852.96V9.48571H1854.36V8.95873ZM1017.48 28.1936H1016.08V28.7206H1017.48V28.1936ZM987.454 0.526984H986.058V1.05397H987.454V0.526984ZM1354 21.0794H1352.6V21.6063H1354V21.0794ZM1628.85 0.526984H1627.45V1.05397H1628.85V0.526984ZM1776.39 17.9175H1775V18.4444H1776.39V17.9175ZM1555.54 24.2413H1554.14V24.7683H1555.54V24.2413ZM1135.24 17.9175H1133.84V18.4444H1135.24V17.9175ZM1255.09 25.2952L1256.49 24.2413C1256.02 25.8222 1257.42 25.2952 1255.09 25.2952ZM972.327 13.1746C972.793 11.5937 971.396 12.3841 973.724 12.1206C973.724 12.1206 973.491 12.1206 973.491 12.3841C973.491 12.6476 973.258 12.6476 973.258 12.6476C973.258 12.6476 972.56 12.9111 972.327 13.1746ZM1508.76 12.6476C1509.46 11.5937 1508.76 11.8571 1510.16 11.5937C1509.46 12.9111 1510.16 12.1206 1508.76 12.6476ZM1613.72 13.1746C1614.18 11.5937 1612.79 12.3841 1615.12 12.1206C1615.12 12.1206 1614.88 12.1206 1614.88 12.3841L1613.72 13.1746ZM1220.65 11.5937C1220.65 12.1206 1219.71 12.6476 1219.95 11.5937C1219.95 11.3302 1220.88 10.2762 1220.65 11.5937ZM1861.8 11.5937C1861.8 12.1206 1860.87 12.6476 1861.11 11.5937C1861.34 11.3302 1862.04 10.2762 1861.8 11.5937ZM1152.46 17.3905C1152.69 16.073 1152.22 16.6 1153.39 16.3365C1153.39 17.654 1153.85 16.8635 1152.46 17.3905ZM1793.85 17.3905C1794.08 16.073 1793.62 16.6 1794.78 16.3365C1794.55 17.654 1795.01 16.8635 1793.85 17.3905ZM1734.27 20.5524C1733.81 21.0794 1732.64 19.7619 1733.81 20.2889C1733.81 20.2889 1735.43 19.7619 1734.27 20.5524ZM1398.21 25.2952C1397.75 25.8222 1396.59 24.5048 1397.75 25.0317C1397.75 25.0317 1399.38 24.5048 1398.21 25.2952ZM1445.23 25.2952C1444.76 25.8222 1443.6 24.5048 1444.76 25.0317C1444.76 25.0317 1446.16 24.5048 1445.23 25.2952ZM1055.41 20.5524C1054.94 21.0794 1053.78 19.7619 1054.94 20.2889C1054.71 20.2889 1056.11 19.7619 1055.41 20.5524ZM1677.25 19.4984C1676.79 20.0254 1675.62 18.7079 1676.79 19.2349C1676.79 19.2349 1678.18 18.7079 1677.25 19.4984ZM1768.48 21.0794C1768.02 21.6063 1766.85 20.2889 1768.02 20.8159C1767.78 20.8159 1769.18 20.2889 1768.48 21.0794ZM1899.74 16.3365C1899.27 16.8635 1898.11 15.546 1899.27 16.073C1899.04 16.073 1900.44 15.546 1899.74 16.3365ZM1409.85 22.6603C1409.39 23.1873 1408.22 21.8698 1409.39 22.3968C1409.15 22.3968 1410.55 21.8698 1409.85 22.6603ZM1127.09 21.0794C1126.62 21.6063 1125.46 20.2889 1126.62 20.8159C1126.39 20.8159 1127.79 20.2889 1127.09 21.0794ZM1035.86 19.4984C1035.4 20.0254 1034.23 18.7079 1035.4 19.2349C1035.4 19.2349 1036.79 18.7079 1035.86 19.4984ZM1229.49 17.9175C1229.02 18.4444 1227.86 17.127 1229.02 17.654C1229.02 17.654 1230.42 17.127 1229.49 17.9175ZM1870.88 17.9175C1870.42 18.4444 1869.25 17.127 1870.42 17.654C1870.42 17.654 1871.81 17.127 1870.88 17.9175ZM1140.82 16.3365C1140.36 16.8635 1139.19 15.546 1140.36 16.073C1140.36 16.073 1141.52 15.546 1140.82 16.3365ZM1381.92 22.1333C1381.46 22.6603 1380.3 21.3429 1381.46 21.8698C1381.46 21.8698 1382.62 21.3429 1381.92 22.1333ZM1761.96 20.5524C1761.5 21.0794 1760.1 19.7619 1761.27 20.2889C1761.27 20.2889 1762.66 19.7619 1761.96 20.5524ZM1093.11 20.5524C1092.65 21.0794 1091.48 19.7619 1092.65 20.2889C1092.65 20.2889 1094.04 19.7619 1093.11 20.5524ZM1401.94 28.7206C1401.47 29.2476 1400.31 27.9302 1401.47 28.4571C1401.24 28.4571 1402.64 27.9302 1401.94 28.7206ZM1696.8 20.5524C1696.34 21.0794 1695.17 19.7619 1696.34 20.2889C1696.1 20.2889 1697.5 19.7619 1696.8 20.5524ZM1120.57 20.5524C1120.11 21.0794 1118.94 19.7619 1120.11 20.2889C1119.88 20.2889 1121.27 19.7619 1120.57 20.5524ZM1343.76 22.1333C1343.29 22.6603 1342.13 21.3429 1343.29 21.8698C1343.29 21.8698 1344.46 21.3429 1343.76 22.1333ZM1462.91 26.0857C1462.45 26.6127 1461.28 25.2952 1462.45 25.8222C1462.45 25.8222 1463.84 25.0317 1462.91 26.0857ZM1782.21 16.3365C1781.75 16.8635 1780.58 15.546 1781.75 16.073C1781.75 16.073 1782.91 15.546 1782.21 16.3365ZM1258.35 16.3365C1257.88 16.8635 1256.72 15.546 1257.88 16.073C1257.65 16.073 1259.05 15.546 1258.35 16.3365ZM1320.95 19.4984C1320.48 20.0254 1319.32 18.7079 1320.48 19.2349C1320.48 19.2349 1321.88 18.7079 1320.95 19.4984ZM1378.67 23.1873C1378.2 23.7143 1377.04 22.3968 1378.2 22.9238C1378.2 22.9238 1379.6 22.3968 1378.67 23.1873ZM1047.03 21.6063C1046.57 22.1333 1045.4 20.8159 1046.57 21.3429C1046.33 21.3429 1047.73 20.8159 1047.03 21.6063ZM1381.92 32.9365C1381.46 33.4635 1380.3 32.146 1381.46 32.673C1381.46 32.673 1382.62 32.146 1381.92 32.9365ZM1309.08 21.6063C1308.62 22.1333 1307.45 20.8159 1308.62 21.3429C1308.62 21.3429 1310.24 20.8159 1309.08 21.6063ZM1688.19 21.6063C1687.73 22.1333 1686.56 20.8159 1687.73 21.3429C1687.49 21.3429 1688.89 20.8159 1688.19 21.6063ZM1324.44 20.5524C1324.44 21.0794 1323.51 21.8698 1323.74 20.5524C1323.98 19.2349 1322.58 20.5524 1323.98 20.2889C1324.44 20.2889 1324.44 19.4984 1324.44 20.5524ZM1050.99 17.9175C1050.99 18.4444 1050.06 19.2349 1050.29 17.9175C1050.52 16.6 1049.13 17.9175 1050.52 17.654C1051.22 17.654 1050.99 16.8635 1050.99 17.9175ZM1692.61 17.9175C1692.61 18.4444 1691.68 19.2349 1691.91 17.9175C1692.15 16.6 1690.75 17.9175 1692.15 17.654C1692.61 17.654 1692.61 16.8635 1692.61 17.9175ZM1905.79 22.6603C1905.79 23.1873 1904.86 23.9778 1905.09 22.6603C1905.32 21.3429 1903.93 22.6603 1905.32 22.3968C1905.79 22.3968 1905.79 21.6064 1905.79 22.6603ZM1188.06 20.0254C1188.06 20.2889 1187.6 20.0254 1187.6 20.0254C1187.6 20.0254 1186.67 21.3429 1187.37 20.0254C1187.13 20.0254 1188.06 18.9714 1188.06 20.0254ZM1199 19.4984C1199 19.7619 1198.54 19.4984 1198.54 19.4984C1198.54 19.4984 1197.61 20.8159 1198.3 19.4984C1198.3 19.4984 1199 18.4444 1199 19.4984ZM1078.45 21.6063L1077.98 20.5524C1078.68 20.8159 1078.45 20.2889 1078.68 20.8159C1078.92 21.3429 1078.68 20.8159 1078.45 21.6063ZM1719.84 21.6063L1719.38 20.5524C1720.07 20.8159 1719.84 20.2889 1720.07 20.8159C1720.07 21.6063 1720.31 20.8159 1719.84 21.6063ZM1506.43 16.3365C1506.43 16.6 1505.97 16.3365 1505.97 16.3365C1505.97 16.3365 1505.04 17.654 1505.73 16.073C1506.43 16.073 1506.43 15.546 1506.43 16.3365ZM1478.27 20.5524C1478.27 20.8159 1477.81 20.5524 1477.81 20.5524C1477.81 20.5524 1476.88 21.8698 1477.57 20.5524H1477.81C1478.04 20.5524 1478.27 19.4984 1478.27 20.5524ZM1829.46 20.0254C1829.46 20.2889 1828.99 20.0254 1828.99 20.0254C1828.99 20.0254 1828.29 21.3429 1828.76 20.0254H1828.99C1829.22 20.0254 1829.46 18.9714 1829.46 20.0254ZM1840.16 19.4984C1840.16 19.7619 1839.7 19.4984 1839.7 19.4984C1839.7 19.4984 1839 20.8159 1839.46 19.4984H1839.7C1839.93 19.4984 1840.16 18.4444 1840.16 19.4984ZM1778.26 21.0794H1777.79L1778.26 20.5524V21.0794ZM1137.1 21.0794H1136.63L1137.1 20.5524V21.0794ZM1410.32 29.2476V29.7746L1409.62 29.5111L1410.32 29.2476ZM1824.8 6.32381C1825.27 7.64127 1824.1 6.5873 1824.8 6.32381C1824.34 6.32381 1824.34 6.32381 1824.8 6.32381ZM1323.28 19.4984C1323.51 19.4984 1323.28 19.2349 1323.28 19.4984ZM1323.28 17.9175C1323.51 17.9175 1323.28 17.654 1323.28 17.9175Z" fill="white"/>
<path d="M710.511 20.5524C711.209 19.7619 711.907 18.9714 712.838 18.4444C712.14 22.6603 712.606 16.8635 713.769 22.6603C719.355 23.1873 712.838 23.4508 718.424 22.1333H720.751V21.8698C721.216 20.2889 720.518 21.0794 721.682 20.2889L722.38 22.3968C723.544 22.3968 724.707 22.1333 725.638 21.8698C729.362 21.8698 725.638 24.5048 734.947 25.5587C734.947 23.7143 734.016 23.9778 739.136 22.3968C738.904 21.3429 738.904 21.8698 738.438 21.0794C737.507 19.2349 738.438 22.1333 737.74 19.7619C739.369 19.4984 740.998 18.9714 742.627 18.4444C746.583 17.3905 742.627 18.7079 747.049 18.7079C747.049 19.4984 746.816 20.5524 746.583 21.3429C747.514 21.3429 748.445 21.6063 749.376 21.8698L751.005 22.9238C751.471 21.0794 751.471 21.6063 750.54 20.2889C753.565 20.2889 751.936 21.3429 753.1 22.6603L753.798 23.4508H754.031C755.194 23.7143 756.358 23.7143 757.754 23.7143C761.013 23.1873 757.522 23.1873 760.547 22.1333L763.805 23.1873C763.805 21.6063 763.805 22.1333 764.271 21.0794C765.9 22.3968 765.202 21.8698 766.831 21.8698C768.227 21.8698 769.391 21.8698 770.787 21.6063C770.322 21.0794 769.856 20.8159 769.391 20.5524L770.089 20.2889C770.554 20.0254 771.02 20.0254 771.485 20.0254C771.951 21.8698 772.183 21.8698 773.812 22.1333L776.605 22.6603C777.071 22.6603 778.932 22.3968 778.932 22.3968H779.165L780.096 22.1333H780.329L786.845 21.8698C786.147 19.2349 786.147 21.3429 785.449 18.7079C789.638 21.3429 788.474 22.1333 790.103 22.3968C791.732 22.6603 791.5 22.1333 791.965 21.3429C791.267 20.0254 791.499 20.0254 789.638 19.7619V18.181C791.267 17.9175 790.569 17.3905 791.732 18.4444C794.059 20.0254 792.896 22.1333 798.947 22.3968C799.18 21.3429 798.714 21.8698 799.412 21.3429H800.809C804.299 20.2889 803.834 21.0794 805.463 19.7619C806.394 21.8698 805.23 21.0794 806.859 22.3968C807.325 22.1333 807.79 21.8698 808.256 21.3429C808.954 20.8159 808.721 21.0794 809.652 20.8159C810.118 22.9238 809.885 22.3968 811.979 22.3968V21.3429H812.91C813.841 21.6063 813.376 21.6063 813.841 21.8698C816.168 22.1333 817.797 24.2413 818.728 21.8698C819.892 19.4984 818.728 22.3968 818.961 21.3429C819.427 18.4444 818.03 22.6603 818.961 20.5524C820.125 21.3429 819.427 21.0794 821.288 21.0794C821.754 22.3968 821.521 21.6063 821.288 23.1873C822.685 22.9238 821.754 23.1873 822.219 22.9238C823.15 22.1333 823.616 20.8159 823.616 19.4984L826.408 18.7079C827.339 18.181 825.943 18.4444 827.107 18.7079C828.27 18.9714 826.408 18.7079 828.037 18.9714C831.063 19.4984 829.667 17.654 834.321 20.2889L833.157 22.1333L833.39 22.3968C836.648 22.1333 839.907 21.6063 843.165 20.8159C842.699 20.5524 843.165 20.5524 842.234 20.2889H840.837L842.234 18.7079C844.794 17.3905 846.888 19.2349 849.215 19.2349C852.706 18.9714 848.285 18.181 852.241 18.181C853.637 18.181 854.335 18.9714 855.964 19.2349C856.197 17.9175 856.663 17.9175 857.361 17.127C856.197 17.3905 855.266 17.654 854.103 17.654V16.6C855.266 16.6 856.663 16.3365 857.826 16.073C857.826 20.0254 857.128 18.7079 856.43 21.3429C858.524 21.3429 864.11 22.6603 866.903 22.1333C870.859 21.0794 867.368 23.1873 871.092 22.1333C874.117 21.3429 873.419 22.1333 876.677 21.8698C879.935 21.6063 880.168 20.2889 884.124 20.2889C884.822 22.3968 883.659 20.2889 884.59 22.3968C885.521 22.1333 886.684 22.3968 887.615 22.6603C890.408 23.9778 893.433 24.7683 896.459 24.5048C896.226 23.9778 894.597 21.8698 897.622 22.6603L902.277 23.9778C902.51 23.4508 902.742 23.1873 902.975 22.6603L903.673 21.8698L906.466 21.0794C907.862 21.0794 906.931 21.0794 908.328 21.6063C908.793 20.0254 908.095 21.3429 909.259 20.0254C910.19 20.2889 909.724 19.7619 910.19 21.3429V21.6063L919.731 20.8159C919.731 20.8159 921.36 21.0794 921.826 21.0794C922.059 21.8698 922.291 20.8159 921.826 21.8698L921.36 22.9238C923.688 22.9238 922.757 22.3968 923.688 23.9778C922.059 24.5048 922.524 24.2413 921.826 25.5587C924.153 25.5587 925.084 26.0857 927.877 26.0857H934.393L934.858 28.1936C936.72 27.6667 937.651 28.1937 938.582 26.6127C934.626 26.6127 936.487 25.5587 932.531 25.5587L936.488 25.0317C937.418 23.1873 938.349 23.7143 941.84 25.0317C943.469 25.5587 942.306 25.5587 944.4 25.8222L956.735 24.7683C956.037 23.7143 956.269 24.2413 955.804 22.6603C952.546 22.6603 952.546 21.8698 953.011 24.2413H948.822C947.891 21.3429 947.193 23.9778 945.564 21.6063C949.753 21.3429 953.942 21.0794 958.131 21.3429H963.716C965.811 21.6063 967.905 21.3429 970 21.0794C969.302 22.6603 970 22.3968 970 25.2952L960.691 25.8222L962.32 26.8762C963.484 27.9302 962.553 26.6127 962.553 27.4032V27.6667C965.113 27.9302 967.44 28.1936 970 28.1936V83H0V28.7206C0.698177 29.2476 1.62897 29.2476 2.32715 28.7206C3.7235 27.9302 3.25805 27.9302 2.32715 26.6127C4.88713 26.6127 5.58545 26.8762 6.0509 24.5048C2.79275 26.6127 4.65451 24.5048 0.465454 24.5048V22.9238C4.18906 22.3968 -0.930868 20.8159 5.12 20.8159C6.28362 24.2413 7.91271 21.8698 6.98181 24.5048C8.37816 23.9778 8.14539 23.7143 8.61084 23.7143C10.0072 23.7143 7.91273 23.7143 9.77454 24.5048C11.4036 23.9778 13.2655 23.7143 14.8945 23.9778C15.5927 21.0794 16.2909 22.6603 19.5491 20.8159C20.0145 19.2349 19.3162 20.5524 20.4799 19.2349C21.6435 19.4984 21.178 19.2349 22.1089 20.5524L22.5745 20.8159L23.9707 22.6603C26.7634 25.0317 30.7198 21.6063 33.2798 22.9238C32.8143 21.3429 32.3489 21.3429 30.4871 21.3429V20.0254C33.7452 19.7619 30.0216 19.4984 33.2798 18.4444C33.7452 19.7619 33.0471 18.181 32.8143 20.5524L35.6071 21.0794C35.3743 17.3905 34.2107 17.654 38.6324 16.3365H38.8652L44.6833 15.2825C44.6833 15.2825 46.7779 15.8095 47.0106 16.073L48.6396 17.3905L50.2687 18.9714C53.2941 20.8159 56.7851 21.6063 60.276 21.3429C61.6724 21.3429 63.3014 21.3429 64.6978 21.6063V20.2889C65.6287 21.0794 65.6286 21.3429 66.7922 21.6063C67.9559 21.8698 68.1885 21.0794 68.8867 20.8159C70.5158 19.2349 69.1195 20.0254 71.4468 19.7619C72.8431 21.0794 72.145 20.0254 72.8431 22.9238C78.4286 23.4508 71.6795 23.7143 77.4977 22.3968H79.8248C80.2903 21.3429 79.5921 21.3429 80.7557 20.2889L81.2213 22.3968C86.1085 22.3968 84.4794 20.5524 87.2721 23.4508C89.1339 24.7683 91.4612 25.5587 93.7885 25.5587C93.7885 23.7143 92.6249 23.9778 97.9775 22.3968C97.5121 20.5524 97.2792 21.6063 96.5811 19.7619C98.2101 19.4984 99.8393 18.9714 101.468 18.4444C105.425 17.3905 101.468 18.7079 105.89 18.7079C105.89 19.4984 105.657 20.5524 105.425 21.3429C106.356 21.3429 107.287 21.6063 108.217 21.8698V22.9238C110.777 22.6603 110.079 21.8698 109.148 20.2889C110.079 20.2889 110.079 20.0254 110.777 20.5524C111.476 21.0794 111.01 21.0794 111.243 21.6063C111.476 22.1333 111.243 22.3968 112.406 23.1873C115.897 25.2952 119.388 22.1333 119.388 22.1333L122.646 23.1873C122.646 21.6063 122.646 22.1333 123.112 21.0794L124.974 21.8698H125.206C126.835 22.1333 128.464 21.8698 129.861 21.6063C129.395 21.0794 128.93 20.8159 128.464 20.5524L128.93 20.0254C129.396 19.7619 129.861 19.7619 130.094 19.7619C130.792 22.6603 131.723 21.3429 134.05 21.8698L143.592 21.0794C144.988 20.8159 142.195 21.0794 144.057 21.0794H144.755C145.454 21.3429 144.523 21.0794 145.919 21.6063C145.221 18.9714 145.221 21.0794 144.523 18.4444C145.686 18.9714 146.85 20.0254 147.781 21.0794C148.712 22.1333 148.013 21.8698 149.177 22.1333C150.573 22.3968 150.573 21.8698 151.272 21.0794C150.341 19.7619 150.806 19.7619 148.944 19.4984V18.4444C153.599 17.3905 149.41 22.3968 157.788 22.6603C158.021 21.8698 157.788 21.8698 158.486 21.3429H159.184L160.813 21.0794H161.046C163.373 20.8159 162.21 21.3429 163.839 20.0254C164.77 22.1333 163.606 21.3429 165.235 22.6603C165.701 22.3968 166.166 22.1333 166.631 21.6063C167.33 21.0794 167.097 21.3429 168.028 21.0794C168.493 23.1873 168.261 22.6603 170.355 22.6603L172.217 22.1333C174.544 22.3968 175.94 24.5048 177.104 22.1333C178.268 19.7619 177.104 22.6603 177.337 21.6063C178.035 18.7079 176.639 22.9238 177.337 20.8159C178.5 21.6063 177.802 21.3429 179.664 21.3429C180.13 22.6603 179.897 21.8698 179.664 23.4508C181.991 23.1873 179.664 24.7683 181.991 20.8159C180.828 20.8159 181.293 20.5524 180.828 20.5524L180.13 20.2889C176.871 19.2349 178.5 20.8159 177.104 18.9714C178.733 18.4444 180.13 18.4444 181.759 18.4444C182.224 19.7619 182.224 18.7079 181.759 20.0254H183.62L184.551 19.4984C185.482 18.9714 184.086 19.4984 186.18 19.7619C189.206 20.2889 187.809 18.4444 192.464 21.0794C192.231 22.3968 191.766 22.3968 191.068 23.1873C194.326 22.9238 197.584 22.3968 200.842 21.6063C200.377 21.3429 200.842 21.3429 199.911 21.0794H198.515L199.911 19.4984C202.471 18.181 204.566 20.0254 206.893 20.0254C210.384 19.7619 205.962 18.9714 210.151 18.9714C211.548 18.9714 212.246 19.7619 213.875 20.0254L215.271 17.9175C214.107 18.181 213.177 18.4444 212.013 18.4444V17.127C213.177 17.127 214.573 16.8635 215.737 16.6C215.737 20.5524 215.038 19.2349 214.34 21.8698C215.504 21.8698 216.9 21.8698 218.064 22.3968C220.624 22.9238 223.417 22.9238 225.977 22.3968C228.071 22.3968 225.977 22.6603 227.606 22.9238C228.536 22.9238 228.304 22.9238 229.002 22.6603C232.027 21.8698 231.329 22.6603 234.587 22.3968C237.846 22.1333 238.078 20.8159 242.035 20.8159C242.965 22.9238 241.802 20.8159 242.5 22.9238C243.431 22.6603 244.594 22.9238 245.525 23.1873L246.456 23.7143L247.155 22.9238C249.715 23.9778 252.274 24.2413 254.834 24.2413C254.602 22.6603 254.369 23.4508 254.834 22.1333C256.929 22.3968 255.998 23.1873 257.395 23.1873L259.954 23.7143C260.42 22.6603 261.118 22.1333 262.049 21.8698L262.282 21.6063C264.376 20.5524 263.911 21.0794 266.005 21.6063C266.704 20.0254 265.773 21.3429 266.936 20.0254C268.333 20.5524 266.936 19.7619 267.634 20.5524L267.867 21.6063L269.496 21.8698L273.453 21.6063V20.0254H275.314V20.2889C275.314 20.5524 275.314 20.5524 275.547 20.8159C275.547 21.3429 275.314 20.8159 275.78 21.6063C278.107 19.7619 276.245 21.0794 279.503 21.0794C279.736 21.8698 279.969 20.8159 279.503 21.8698L279.038 22.9238C280.9 22.9238 280.202 22.6603 281.365 23.4508C280.202 25.0317 280.667 23.9778 279.503 25.5587C282.063 25.0317 285.787 27.1397 289.511 25.8222L293.001 25.0317C292.769 23.1873 293.001 24.7683 292.769 23.7143C292.536 22.6603 292.769 24.2413 292.071 22.3968C293.7 22.1333 293.467 22.3968 294.398 21.3429C291.838 21.3429 282.762 22.3968 280.667 20.2889L308.361 21.0794C310.223 21.3429 312.55 21.0794 314.412 21.0794C315.11 21.0794 316.274 21.3429 316.74 21.3429L324.652 21.0794L323.256 19.4984C325.35 19.2349 327.212 19.2349 329.307 19.4984C331.401 20.0254 333.728 20.2889 335.823 20.0254C335.357 21.3429 335.357 20.2889 335.823 21.6063C332.565 20.8159 329.307 20.2889 326.048 20.5524H325.583C325.583 21.3429 327.678 22.6603 328.376 22.9238L334.194 24.7683C335.59 25.0317 336.987 25.0317 338.383 24.7683C338.616 26.0857 338.848 23.9778 338.15 25.2952C337.452 26.6127 337.685 24.7683 337.917 25.8222C339.314 26.6127 338.848 26.3492 340.71 26.3492C340.943 26.0857 340.943 25.8222 340.943 25.5587V24.7683C342.805 25.2952 341.641 25.5587 343.27 25.5587C343.968 25.5587 345.132 25.0317 346.296 24.7683C349.088 24.2413 347.459 25.0317 350.019 25.2952H351.881V22.6603C353.976 24.2413 353.743 25.2952 358.397 25.8222C358.63 23.9778 358.63 23.9778 360.259 23.7143C359.794 25.8222 357.699 26.8762 363.052 27.4032C363.983 25.8222 364.448 26.0857 364.914 23.7143H361.19C361.655 21.3429 363.052 21.6063 364.681 22.3968H364.914C365.612 22.6603 366.31 22.6603 367.008 22.6603C365.845 25.2952 366.543 24.7683 366.543 28.4571C369.568 28.4571 372.128 31.3556 374.223 29.2476L374.921 27.4032C377.946 27.1397 380.972 27.4032 383.764 27.9302C383.299 25.8222 382.833 26.3492 381.903 24.7683C383.997 24.2413 385.161 23.9778 385.161 27.4032C387.488 27.6667 386.324 27.9302 388.652 27.6667C390.048 27.4032 391.91 26.3492 393.306 26.8762C395.633 27.6667 392.375 26.6127 394.004 27.1397C394.237 27.1397 394.47 27.4032 394.935 27.6667C396.099 28.1937 397.262 28.4571 398.426 28.7206C398.426 28.7206 398.193 28.7206 398.193 28.9841C397.961 29.7746 398.193 28.7206 397.495 29.2476C396.797 29.7746 397.03 28.9841 396.564 30.3016C397.495 30.8286 398.193 31.3556 399.124 31.619C401.917 32.4095 401.451 30.8286 401.684 33.4635L410.062 33.9905C413.321 33.2 411.459 33.2 411.692 32.673C412.39 31.3556 411.691 31.619 412.39 29.7746C416.113 32.4095 413.786 30.5651 418.441 30.3016C423.095 30.0381 421.233 29.7746 421 29.2476L420.768 28.9841L420.07 27.1397C423.328 27.4032 419.604 27.4032 421.466 27.9302L423.095 27.4032H424.957L425.422 27.6667C426.353 27.9302 424.259 27.9302 426.819 28.1936L425.19 28.9841L424.957 29.2476C427.284 29.5111 426.12 29.7746 428.913 29.5111C433.8 28.9841 432.171 31.3556 440.549 29.2476C441.48 28.7206 442.644 28.7206 443.808 28.7206C445.902 28.4571 445.204 28.1937 447.066 27.6667C446.833 24.7683 445.669 25.0317 443.808 24.5048C441.713 23.7143 439.386 23.1873 437.291 23.4508C437.757 23.1873 437.291 23.1873 438.455 22.9238C439.618 22.6603 438.688 22.9238 439.851 22.9238C443.342 23.1873 446.833 22.6603 448.695 23.9778C450.557 25.2952 448.229 24.2413 450.324 24.7683V26.8762H448.462C449.393 28.4571 448.462 27.1397 449.393 27.6667C452.418 28.9841 463.589 28.4571 467.313 28.4571V30.3016C469.873 30.3016 472.433 30.8286 474.76 31.3556C473.829 27.6667 472.898 31.3556 469.64 28.7206C470.804 28.7206 471.967 28.7206 473.131 28.4571C474.295 28.1937 474.295 28.7206 474.76 27.1397C475.924 26.3492 475.924 25.8222 477.087 26.6127C477.32 27.6667 477.087 27.4032 477.553 28.1936L479.647 27.9302C483.836 26.8762 481.509 30.0381 489.887 26.8762C491.516 26.3492 489.654 26.6127 491.516 26.0857L492.913 27.1397C493.844 26.3492 493.611 26.0857 495.24 26.0857C496.403 26.0857 496.404 26.3492 498.033 26.6127C502.222 26.8762 501.524 26.6127 503.618 25.0317C503.153 27.6667 503.385 25.8222 503.618 26.6127L512.229 26.8762C515.487 26.8762 511.531 25.8222 514.789 26.3492C518.047 26.8762 515.254 28.9841 519.211 26.8762C522.702 25.0317 520.142 27.6667 524.331 27.9302C524.331 23.9778 521.771 24.5048 521.538 21.0794C522.469 21.3429 527.589 25.8222 528.054 27.4032C531.778 27.4032 528.752 26.8762 532.476 27.6667C534.57 28.1937 534.338 27.1397 535.967 25.8222C537.363 27.1397 538.76 28.1937 540.389 28.7206C543.647 29.5111 545.043 27.4032 545.276 31.0921C547.603 30.0381 544.81 30.8286 547.138 30.0381C548.069 32.4095 546.905 32.146 549.93 32.146C549.232 31.0921 548.069 29.5111 549.698 27.9302C550.396 27.1397 550.861 27.1397 551.327 27.6667C552.258 28.7206 551.56 27.4032 551.56 28.4571L551.094 29.5111C553.189 28.9841 553.654 27.4032 555.05 27.1397C556.912 26.8762 559.007 27.1397 560.869 27.4032V26.8762C560.869 26.0857 560.403 27.6667 560.869 26.0857C561.101 25.5587 560.869 25.2952 562.498 25.0317C563.196 26.6127 562.73 26.8762 563.196 28.4571C563.429 29.5111 564.127 29.7746 564.825 30.8286C565.756 29.7746 567.152 29.2476 568.548 29.2476L567.152 27.6667C569.479 28.1937 568.548 27.6667 571.341 27.6667C571.341 28.4571 571.108 29.5111 570.876 30.3016C574.367 30.3016 573.436 31.0921 575.996 31.3556C575.996 29.2476 576.228 29.7746 575.53 28.1936C578.09 28.1936 579.487 27.6667 580.65 29.2476C579.487 29.2476 578.556 28.9841 577.392 28.7206C578.323 32.4095 579.719 29.2476 583.676 30.5651C586.003 31.6191 588.563 31.619 590.89 30.8286C591.588 27.6667 591.123 29.5111 590.89 26.6127C591.588 26.8762 592.286 27.1397 592.985 27.6667C594.846 28.4571 594.614 27.9302 595.079 27.9302C598.337 28.1937 596.01 28.7206 596.708 30.8286C599.036 30.5651 597.406 30.3016 599.501 28.7206C601.596 27.1397 600.432 28.9841 601.828 26.0857C599.035 26.8762 600.897 26.0857 598.105 25.5587H582.745V24.5048C586.003 24.5048 585.77 23.7143 588.33 23.4508L598.105 22.9238C599.966 22.6603 600.897 21.6063 602.992 22.9238C603.457 23.1873 601.595 22.9238 603.923 23.4508H605.785C605.785 23.1873 605.552 22.3968 605.319 22.3968C605.086 21.0794 604.854 22.3968 605.319 21.3429C606.483 22.1333 605.784 21.8698 607.646 21.8698C608.81 20.2889 609.275 21.8698 609.741 22.1333C611.137 23.1873 609.508 22.9238 611.835 22.6603C614.163 22.3968 626.032 21.8698 626.963 23.4508V23.9778L627.195 23.7143L627.661 23.9778L628.359 24.2413C623.704 24.2413 622.308 25.2952 614.163 25.2952C614.628 27.1397 616.257 28.4571 617.886 28.4571C620.679 28.4571 618.352 26.8762 623.006 27.9302C623.006 24.7683 622.774 26.3492 623.937 25.8222C624.403 27.1397 624.17 27.1397 623.472 28.4571L630.453 28.7206H633.013C633.246 28.7206 633.013 28.9841 634.177 28.7206C635.341 28.4571 634.875 28.4571 635.108 28.4571C636.97 27.9302 636.039 28.4571 637.203 28.4571C637.901 28.7206 638.599 28.4571 639.064 27.9302C640.228 26.8762 639.995 28.1936 638.832 26.0857C641.392 26.0857 642.09 26.3492 642.555 23.9778C640.693 25.0317 641.392 25.0317 639.762 24.5048H639.53L638.366 24.2413C636.97 23.7143 637.435 24.5048 636.97 23.1873C636.504 21.8698 636.504 23.7143 637.435 22.6603C639.995 20.0254 638.366 20.5524 641.624 20.5524C642.555 23.9778 644.417 21.6063 643.486 24.2413C644.882 23.7143 644.65 23.4508 645.348 23.4508C646.744 23.4508 644.65 23.4508 646.512 24.2413C648.141 23.7143 650.002 23.4508 651.631 23.7143C652.097 21.6064 653.726 21.0794 656.286 21.0794V20.8159L662.57 18.9714L665.362 22.3968C667.689 24.5048 671.879 22.1333 674.206 22.1333C673.275 20.5524 674.206 21.0794 671.879 21.0794V20.2889C675.137 20.0254 671.413 19.7619 674.671 18.7079C675.137 20.0254 674.439 18.4444 674.206 20.8159L676.999 21.3429C676.999 19.2349 674.904 17.127 681.653 16.3365C691.66 15.019 687.006 17.654 692.359 19.7619L693.522 20.0254C701.667 22.9238 697.013 21.0794 706.089 21.8698V20.2889C707.02 21.0794 707.02 21.3429 708.184 21.6063H709.115C709.347 21.6063 709.58 21.3429 709.813 21.3429L710.511 20.5524Z" fill="white"/>
<path d="M478.484 26.6127C476.622 26.6127 476.389 26.8762 474.295 27.1397C468.942 27.4032 475.226 27.9302 471.036 28.1936V27.1397C464.055 26.8762 471.269 28.4571 463.124 26.6127C461.727 26.3492 460.331 25.8222 458.935 25.8222C457.073 25.8222 456.607 27.4032 455.211 25.0317C457.306 24.7683 456.84 24.2413 459.4 24.7683C460.797 24.7683 461.96 24.7683 463.124 25.0317V26.0857C464.753 25.5587 463.822 25.5587 465.218 25.0317H467.778C468.244 24.2413 467.778 24.2413 468.942 23.9778H471.502C471.502 24.2413 471.269 24.2413 471.502 26.0857L478.484 26.6127ZM909.259 9.48571C906.699 10.8032 903.673 10.5397 901.346 8.69524L899.95 7.64127C901.812 7.11429 903.673 6.85079 905.535 6.5873C907.862 6.32381 908.56 7.64127 909.259 9.48571ZM267.867 9.48571C264.842 11.0667 264.842 10.5397 261.351 9.22222L258.325 7.37778C260.187 6.85079 262.049 6.5873 263.911 6.32381C266.471 6.32381 267.169 7.64127 267.867 9.48571ZM872.023 8.43175C871.092 12.3841 869.695 7.64127 868.764 11.5937H866.903L867.135 9.48571C867.833 6.5873 869.928 8.95873 872.023 8.43175ZM230.864 8.43175C229.933 12.3841 228.536 7.64127 227.606 11.5937H225.744C225.744 10.8032 225.511 7.90476 227.606 7.90476C229.7 7.90476 228.071 8.95873 230.864 8.43175ZM583.21 24.7683C581.116 24.7683 581.581 25.2952 579.952 25.2952C578.788 25.0317 577.392 25.0317 576.229 24.7683V23.7143C581.814 23.1873 581.814 22.3968 583.21 24.7683ZM823.848 18.9714C820.823 20.0254 825.477 18.9714 822.452 20.0254C821.987 18.7079 822.685 19.2349 821.521 18.9714H819.194V17.9175C820.823 17.3905 822.219 17.3905 823.848 17.3905C824.314 18.7079 824.314 17.654 823.848 18.9714ZM932.298 14.2286C931.135 15.019 930.669 14.7556 928.575 14.7556C927.179 14.7556 927.644 14.4921 927.179 13.7016C928.342 13.1746 932.298 12.3841 932.298 14.2286ZM291.14 14.2286C289.976 15.019 289.511 14.7556 287.416 14.7556C286.02 14.7556 286.485 14.4921 286.02 13.7016C286.951 13.1746 290.674 12.3841 291.14 14.2286ZM252.042 6.32381V6.85079L248.318 7.37778C247.62 5.26984 248.551 6.5873 245.525 6.85079V5.79683C248.318 5.79683 249.249 6.32381 252.042 6.32381ZM893.201 6.32381V6.85079L889.477 7.37778C888.779 5.26984 889.71 6.5873 886.684 6.85079V5.79683C889.71 5.79683 890.641 6.32381 893.201 6.32381ZM244.827 6.85079H239.242C240.173 5.26984 239.242 5.79683 241.569 5.79683H244.827V6.85079ZM886.219 6.85079H880.633C881.564 5.26984 880.633 5.79683 882.961 5.79683H886.219V6.85079ZM649.77 7.90476C651.399 5.26984 652.33 5.26984 654.89 3.68889C654.424 5.53333 654.424 5.26984 652.795 6.06032C651.864 6.85079 650.701 7.37778 649.77 7.90476ZM8.61084 7.90476C10.2399 5.26984 11.1709 5.26984 13.7308 3.68889C13.2654 5.53333 13.2653 5.26984 11.6362 6.06032C10.7053 6.85079 9.54174 7.37778 8.61084 7.90476ZM440.317 29.2476V28.1936L439.851 27.1397C442.411 26.3492 441.946 25.5587 443.109 28.1936C441.48 28.7206 441.713 28.9841 440.317 29.2476ZM245.293 17.3905C243.198 17.9175 242.733 18.7079 242.035 16.3365C242.965 16.073 245.293 14.7556 245.293 17.3905ZM886.684 17.3905C884.59 17.9175 883.891 18.7079 883.426 16.3365C884.357 16.073 886.684 14.7556 886.684 17.3905ZM201.773 14.2286L197.119 14.7556V13.7016C199.679 13.7016 199.678 13.1746 201.773 13.1746V14.2286ZM210.384 11.0667L210.617 10.8032L212.013 9.48571C213.177 8.69524 214.573 8.95873 215.504 9.74921C213.875 10.5397 212.246 11.0667 210.384 11.0667ZM851.776 11.0667L852.008 10.5397L853.87 9.48571C856.197 8.95873 856.43 10.0127 856.663 10.0127C855.266 10.5397 853.405 11.0667 851.776 11.0667ZM235.518 6.85079C229.002 6.85079 228.769 7.90476 226.675 5.79683L235.518 6.85079ZM876.677 6.85079C873.186 6.85079 869.928 7.37778 868.532 6.5873C867.135 5.53333 868.299 6.32381 867.833 5.79683L876.677 6.85079ZM380.739 22.6603C377.946 22.6603 377.248 22.1333 374.688 22.1333V21.6063C377.015 21.6063 379.575 21.0794 380.739 22.6603ZM377.481 20.5524C375.386 20.5524 374.921 20.0254 372.361 20.0254V19.4984H377.481V20.5524ZM408.666 31.8825C406.804 31.8825 406.804 32.146 405.408 31.3556C405.873 30.5651 405.408 30.3016 406.804 30.3016C408.201 30.3016 408.433 31.0921 408.666 31.8825ZM416.579 23.1873C414.717 23.1873 415.415 23.7143 413.321 23.7143C411.924 23.7143 412.39 23.4508 411.924 22.6603H416.579V23.1873ZM865.041 10.0127C864.11 10.2762 863.179 10.5397 862.248 10.5397C863.179 8.95873 862.946 8.95873 865.041 8.95873V10.0127ZM223.649 10.0127C222.718 10.2762 221.787 10.5397 220.857 10.5397C221.787 8.95873 221.555 8.95873 223.649 8.95873V10.0127ZM234.587 12.1206C233.657 12.3841 232.493 11.8571 231.795 11.0667C232.26 10.2762 232.027 10.5397 232.26 9.48571L234.587 12.1206ZM875.746 12.1206C874.815 12.3841 873.652 11.8571 872.953 11.0667C873.186 10.5397 873.419 10.0127 873.419 9.48571L875.746 12.1206ZM849.914 16.3365H846.19C846.656 16.073 846.423 16.073 846.888 15.546C847.354 15.019 849.681 15.019 849.914 16.3365ZM208.522 16.3365H204.798C205.031 16.073 204.799 16.073 205.497 15.546C206.195 15.019 208.522 15.019 208.522 16.3365ZM489.655 25.2952C486.629 25.2952 486.396 26.3492 485.465 24.7683H489.655V25.2952ZM210.384 11.0667L211.082 12.1206H208.057V11.0667H210.384ZM851.776 11.0667L852.241 12.1206H849.448V11.0667H851.776ZM639.297 24.7683C636.97 24.7683 637.435 25.2952 636.504 23.7143H639.297V24.7683ZM30.2544 19.4984C28.6253 19.2349 28.6253 19.2349 28.3926 17.3905C30.0217 17.9175 29.7889 17.654 30.2544 19.4984ZM671.413 19.4984C669.784 19.2349 669.784 19.2349 669.551 17.3905C671.18 17.9175 670.948 17.654 671.413 19.4984ZM239.242 10.0127C237.38 9.74921 237.845 10.2762 237.38 8.43175H239.242V10.0127ZM880.633 10.0127C878.771 9.74921 879.237 10.2762 878.772 8.43175H880.633V10.0127ZM830.365 16.3365C828.968 16.3365 829.434 16.073 828.968 15.2825H832.459C831.063 16.3365 831.528 16.3365 830.365 16.3365ZM189.206 16.3365C187.809 16.3365 188.275 16.073 187.81 15.2825H191.068C190.602 15.546 190.835 15.546 190.37 16.073C189.904 16.6 191.068 16.3365 189.206 16.3365ZM161.512 19.4984L159.184 18.9714V16.8635L161.512 19.4984ZM802.67 19.4984L800.343 18.9714V16.8635L802.67 19.4984ZM13.2654 21.0794C12.1018 22.6603 12.1017 22.6603 10.4727 22.1333L11.4036 21.3429L11.6362 21.0794C11.869 21.0794 12.7999 20.5524 13.2654 21.0794ZM137.541 12.6476H135.679V11.5937L137.541 11.0667V12.6476ZM803.136 10.5397L802.205 11.0667C800.808 11.0667 801.274 10.8032 800.809 10.0127C801.739 9.74921 802.903 8.95873 803.136 10.5397ZM161.977 10.5397L161.046 11.0667C159.65 11.0667 160.115 10.8032 159.65 10.0127C160.348 9.74921 161.744 8.95873 161.977 10.5397ZM886.684 10.5397H884.357V11.5937H886.684V10.5397ZM245.293 10.5397H242.965V11.5937H245.293V10.5397Z" fill="white"/>
<path d="M440.317 28.1936H435.662V28.7206H440.317V28.1936ZM840.837 13.7016H838.51V14.7556H840.837V13.7016ZM654.657 21.0794C653.726 22.6603 653.493 22.6603 651.864 22.1333L652.097 21.8698L653.726 20.8159C653.959 20.8159 654.424 20.8159 654.657 21.0794ZM360.492 19.4984L357.699 20.0254V18.9714H360.492V19.4984ZM776.605 19.4984C774.743 19.2349 775.209 19.7619 774.743 17.9175H776.605C776.372 18.9714 776.14 18.4444 776.605 19.4984ZM225.046 8.43175C223.184 6.85079 225.278 6.85079 222.718 6.85079V6.32381H225.046V8.43175ZM866.437 8.43175C864.575 6.85079 866.67 6.85079 864.11 6.85079V6.32381H866.437V8.43175ZM466.615 24.2413L464.055 23.9778C463.357 23.7143 463.589 23.7143 463.357 23.1873C464.753 23.1873 466.382 22.9238 466.615 24.2413ZM297.889 18.4444H293.7V18.9714H297.889V18.4444ZM734.249 24.2413H731.456C731.689 23.9778 734.016 21.8698 734.249 24.2413ZM222.02 14.7556H219.693V13.7016C221.089 13.7016 222.02 13.4381 222.02 14.7556ZM863.645 14.7556H861.317V13.7016C862.481 13.7016 863.412 13.4381 863.645 14.7556ZM423.561 11.0667H421.233C422.164 9.48571 421.233 10.0127 423.561 10.0127V11.0667ZM700.737 28.1936C699.806 28.1936 700.038 28.4571 698.875 27.1397H701.667C701.435 27.6667 701.435 28.1936 700.737 28.1936ZM59.345 28.1936C58.1813 28.1936 58.6469 28.4571 57.4833 27.1397H60.276C60.0433 27.6667 60.0431 28.1936 59.345 28.1936ZM135.214 19.4984C133.119 19.2349 134.283 20.0254 133.352 18.4444C133.817 18.181 134.515 17.9175 135.214 17.9175C134.981 18.9714 134.748 18.4444 135.214 19.4984ZM862.714 6.32381H858.99V6.85079H862.714V6.32381ZM221.322 6.32381H217.598V6.85079H221.322V6.32381ZM818.263 11.5937H816.401V12.6476H818.263V11.5937ZM176.871 11.5937H175.01V12.6476H176.871V11.5937ZM843.165 13.1746H841.303V14.2286H843.165V13.1746ZM411.924 28.7206H410.062V29.7746H411.924V28.7206ZM198.049 11.5937H195.722C195.955 11.0667 195.955 10.5397 196.653 10.5397C197.351 10.5397 198.049 10.8032 198.049 11.5937ZM92.8575 24.2413H90.5303C90.763 23.7143 90.763 23.1873 91.4612 23.1873C92.1594 23.1873 92.6248 23.4508 92.8575 24.2413ZM839.441 11.5937H837.114C837.346 11.0667 837.579 10.5397 838.045 10.5397C838.51 10.5397 839.441 10.8032 839.441 11.5937ZM182.457 8.43175H180.13C180.362 8.16825 180.13 8.16825 180.828 7.64127C181.991 7.11429 181.06 7.37778 182.457 7.37778V8.43175ZM823.848 8.43175H821.521C821.987 8.16825 821.521 8.16825 822.219 7.64127C823.383 7.11429 822.452 7.37778 823.848 7.37778V8.43175ZM902.277 22.1333H899.95C900.415 21.8698 899.95 21.8698 900.648 21.3429C901.811 21.0794 901.113 21.3429 902.277 21.0794V22.1333ZM419.371 28.1936V27.1397H421.699C421.466 27.4032 421.699 27.4032 421 27.9302C419.837 28.4571 420.768 28.1936 419.371 28.1936ZM777.071 12.6476C777.536 11.3302 777.07 11.5937 778.932 11.0667C778.001 13.4381 779.398 12.3841 777.071 12.6476ZM635.341 24.7683H632.082V25.2952H635.341V24.7683ZM462.426 23.1873H459.167V23.7143H462.426V23.1873ZM260.885 22.1333H258.558V21.6063C259.256 21.6063 260.187 21.3429 260.885 21.0794V22.1333ZM737.507 19.4984H735.646V18.4444C736.809 18.7079 737.274 18.4444 737.507 19.4984ZM282.296 1.05397C280.201 0.790476 281.365 1.58095 280.434 0H282.296V1.05397ZM923.688 1.05397C921.593 0.790476 922.989 1.58095 921.826 0H923.688V1.05397ZM138.704 12.6476V11.5937H140.566C139.635 13.1746 141.032 12.3841 138.704 12.6476ZM780.096 12.6476V11.5937H781.958C780.794 13.1746 782.19 12.3841 780.096 12.6476ZM346.296 12.1206H344.899C345.365 10.5397 344.201 11.8571 346.296 10.5397V12.1206ZM94.4866 18.4444C96.5811 18.7079 95.4175 17.9175 96.3484 19.4984C93.5557 19.4984 94.952 19.7619 94.4866 18.4444ZM834.786 14.7556H833.39V15.8095H834.786V14.7556ZM103.796 10.0127H102.399V11.0667H103.796V10.0127ZM193.395 14.7556H191.999V15.8095H193.395V14.7556ZM417.51 27.6667H414.717V28.1936H417.51V27.6667ZM783.82 18.9714C782.191 19.2349 782.423 20.0254 781.958 17.9175L782.889 18.4444C783.82 18.9714 783.121 18.4444 783.82 18.9714ZM142.661 18.9714C141.032 19.2349 141.264 20.0254 140.799 17.9175C141.032 17.9175 141.73 18.181 141.73 18.4444C142.661 18.9714 141.963 18.4444 142.661 18.9714ZM807.325 13.1746C808.256 11.5937 807.092 12.3841 809.187 12.1206C808.023 13.7016 809.419 12.9111 807.325 13.1746ZM403.313 16.3365C404.477 14.7556 403.081 15.546 405.175 15.2825C404.244 16.8635 405.408 16.073 403.313 16.3365ZM166.166 13.1746C167.33 11.5937 165.933 12.3841 168.028 12.1206C166.864 13.7016 168.261 12.9111 166.166 13.1746ZM887.615 16.8635H889.477C888.546 18.4444 888.546 18.4444 887.615 16.8635ZM246.224 16.8635H248.085C247.155 18.4444 247.155 18.4444 246.224 16.8635ZM139.635 20.0254C138.937 20.0254 139.17 20.2889 138.472 19.7619C136.843 18.9714 137.773 19.4984 137.308 18.9714C138.704 19.2349 139.17 19.2349 139.635 20.0254ZM457.306 26.6127H454.979V27.1397H457.306V26.6127ZM736.576 22.6603H735.18V21.6063C735.878 21.8698 736.344 21.8698 736.576 22.6603ZM95.4175 22.6603H94.0212V21.6063C94.7194 21.8698 95.1848 21.8698 95.4175 22.6603ZM745.187 11.0667H743.791V10.0127C744.722 10.2762 744.954 10.0127 745.187 11.0667ZM429.844 23.1873C430.309 21.6063 429.844 22.1333 431.24 21.6063C430.31 23.7143 431.473 22.6603 429.844 23.1873ZM480.811 26.0857V24.7683H482.673C482.207 25.0317 482.905 24.7683 481.742 25.2952L480.811 26.0857ZM845.492 13.7016C844.095 13.4381 844.794 13.7016 844.096 12.6476H845.492V13.7016ZM478.484 25.2952C477.087 25.0317 477.786 25.2952 477.087 24.2413H478.484V25.2952ZM204.1 13.7016C202.704 13.4381 203.402 13.7016 202.704 12.6476H204.1V13.7016ZM684.679 28.7206H683.282C683.98 27.6667 683.282 27.9302 684.679 27.6667V28.7206ZM43.287 28.7206H41.8906C42.5888 27.6667 41.8906 27.9302 43.287 27.6667V28.7206ZM780.562 20.0254C779.631 19.7619 780.561 20.2889 779.398 19.7619L778.7 18.9714C779.631 19.2349 780.329 18.9714 780.562 20.0254ZM75.6357 22.1333C74.7048 21.8698 75.6358 22.3968 74.4722 21.8698C73.774 21.6063 74.0067 21.6063 73.7739 21.0794C74.7048 21.3429 75.403 21.0794 75.6357 22.1333ZM716.795 22.1333C715.864 21.8698 716.795 22.3968 715.631 21.8698L714.933 21.0794C715.864 21.3429 716.562 21.0794 716.795 22.1333ZM959.295 1.58095H957.433V2.10794H959.295V1.58095ZM293.001 22.1333H291.14V22.6603H293.001V22.1333ZM318.136 1.58095H316.274V2.10794H318.136V1.58095ZM934.393 22.1333H932.531V22.6603H934.393V22.1333ZM395.401 22.6603H393.539V23.1873H395.401V22.6603ZM213.409 8.43175H211.547V8.95873H213.409V8.43175ZM176.871 21.0794H175.01V21.6063H176.871V21.0794ZM818.263 21.0794H816.401V21.6063H818.263V21.0794ZM854.801 8.43175H852.939V8.95873H854.801V8.43175ZM407.735 24.2413H405.873V24.7683H407.735V24.2413ZM662.57 17.3905C661.173 16.073 661.871 17.654 661.639 15.2825C661.871 15.546 661.871 15.2825 662.337 16.073C662.802 17.3905 662.337 16.6 662.57 17.3905ZM21.178 17.3905C19.7816 16.073 20.4799 17.654 20.2472 15.2825C20.4799 15.546 20.4797 15.2825 20.9452 16.073C21.4106 17.3905 20.9453 16.6 21.178 17.3905ZM94.4866 18.4444C93.0902 18.181 93.7884 18.4444 93.0902 17.3905C95.4175 17.654 93.7884 16.8635 94.4866 18.4444Z" fill="white"/>
<path d="M482.673 24.7683C482.905 24.7683 482.207 23.7143 483.604 24.5048C485 25.2952 483.604 23.9778 484.069 25.2952C482.905 25.0317 483.836 25.2952 482.673 24.7683ZM734.249 17.3905H735.646C734.482 18.9714 735.18 18.9714 734.249 17.3905ZM92.392 18.9714H93.7885C92.6248 20.5524 93.5556 20.5524 92.392 18.9714ZM733.784 18.9714H735.18C734.016 20.5524 734.714 20.5524 733.784 18.9714ZM200.377 18.9714L199.446 17.9175C202.006 17.9175 200.144 17.9175 200.842 18.4444L200.377 18.9714ZM841.768 18.9714L840.837 18.181C843.397 18.181 841.536 18.181 842.234 18.7079L841.768 18.9714ZM897.855 11.0667C896.459 10.8032 897.157 11.0667 896.459 10.0127C897.39 10.2762 897.855 10.0127 897.855 11.0667ZM177.337 17.9175C175.94 17.654 176.639 17.9175 175.941 16.8635C176.871 17.127 177.104 16.8635 177.337 17.9175ZM818.728 17.9175C817.332 17.654 818.03 17.9175 817.332 16.8635C818.263 17.127 818.496 16.8635 818.728 17.9175ZM256.696 11.0667C255.3 10.8032 255.998 11.0667 255.3 10.0127C256.231 10.2762 256.696 10.0127 256.696 11.0667ZM412.39 31.3556H410.993V31.8825H412.39V31.3556ZM853.172 6.32381H851.776V6.85079H853.172V6.32381ZM436.128 23.7143H434.731V24.2413H436.128V23.7143ZM776.605 20.0254H775.209V20.5524H776.605V20.0254ZM946.262 13.7016H944.866V14.2286H946.262V13.7016ZM304.87 13.7016H303.474V14.2286H304.87V13.7016ZM212.013 6.32381H210.617V6.85079H212.013V6.32381ZM135.214 20.0254H133.817V20.5524H135.214V20.0254ZM688.868 28.1936H687.471V28.7206H688.868V28.1936ZM242.965 8.95873H241.569V9.48571H242.965V8.95873ZM884.357 8.95873H882.961V9.48571H884.357V8.95873ZM47.4761 28.1936H46.0797V28.7206H47.4761V28.1936ZM17.4545 0.526984H16.0581V1.05397H17.4545V0.526984ZM383.997 21.0794H382.601V21.6063H383.997V21.0794ZM658.846 0.526984H657.45V1.05397H658.846V0.526984ZM806.394 17.9175H804.998V18.4444H806.394V17.9175ZM585.537 24.2413H584.141V24.7683H585.537V24.2413ZM165.235 17.9175H163.839V18.4444H165.235V17.9175ZM285.089 25.2952L286.485 24.2413C286.02 25.8222 287.416 25.2952 285.089 25.2952ZM2.32715 13.1746C2.7926 11.5937 1.39638 12.3841 3.72363 12.1206C3.72363 12.1206 3.49084 12.1206 3.49084 12.3841C3.49084 12.6476 3.25818 12.6476 3.25818 12.6476C3.25818 12.6476 2.55987 12.9111 2.32715 13.1746ZM538.76 12.6476C539.458 11.5937 538.76 11.8571 540.156 11.5937C539.458 12.9111 540.156 12.1206 538.76 12.6476ZM643.719 13.1746C644.184 11.5937 642.788 12.3841 645.115 12.1206C645.115 12.1206 644.882 12.1206 644.882 12.3841L643.719 13.1746ZM250.645 11.5937C250.645 12.1206 249.715 12.6476 249.947 11.5937C249.947 11.3302 250.878 10.2762 250.645 11.5937ZM891.804 11.5937C891.804 12.1206 890.873 12.6476 891.106 11.5937C891.339 11.3302 892.037 10.2762 891.804 11.5937ZM182.457 17.3905C182.69 16.073 182.224 16.6 183.388 16.3365C183.388 17.654 183.853 16.8635 182.457 17.3905ZM823.848 17.3905C824.081 16.073 823.616 16.6 824.779 16.3365C824.546 17.654 825.012 16.8635 823.848 17.3905ZM764.271 20.5524C763.805 21.0794 762.642 19.7619 763.805 20.2889C763.805 20.2889 765.434 19.7619 764.271 20.5524ZM428.215 25.2952C427.75 25.8222 426.586 24.5048 427.75 25.0317C427.75 25.0317 429.379 24.5048 428.215 25.2952ZM475.226 25.2952C474.76 25.8222 473.596 24.5048 474.76 25.0317C474.76 25.0317 476.156 24.5048 475.226 25.2952ZM85.4103 20.5524C84.9448 21.0794 83.7812 19.7619 84.9448 20.2889C84.7121 20.2889 86.1085 19.7619 85.4103 20.5524ZM707.253 19.4984C706.787 20.0254 705.624 18.7079 706.787 19.2349C706.787 19.2349 708.184 18.7079 707.253 19.4984ZM798.481 21.0794C798.016 21.6063 796.852 20.2889 798.016 20.8159C797.783 20.8159 799.179 20.2889 798.481 21.0794ZM929.739 16.3365C929.273 16.8635 928.109 15.546 929.273 16.073C929.04 16.073 930.437 15.546 929.739 16.3365ZM439.851 22.6603C439.386 23.1873 438.222 21.8698 439.386 22.3968C439.153 22.3968 440.549 21.8698 439.851 22.6603ZM157.09 21.0794C156.624 21.6063 155.461 20.2889 156.624 20.8159C156.392 20.8159 157.788 20.2889 157.09 21.0794ZM65.8613 19.4984C65.3959 20.0254 64.2322 18.7079 65.3959 19.2349C65.3959 19.2349 66.7922 18.7079 65.8613 19.4984ZM259.489 17.9175C259.023 18.4444 257.86 17.127 259.024 17.654C259.024 17.654 260.42 17.127 259.489 17.9175ZM900.881 17.9175C900.415 18.4444 899.251 17.127 900.415 17.654C900.415 17.654 901.812 17.127 900.881 17.9175ZM170.821 16.3365C170.355 16.8635 169.191 15.546 170.355 16.073C170.355 16.073 171.519 15.546 170.821 16.3365ZM411.924 22.1333C411.459 22.6603 410.295 21.3429 411.459 21.8698C411.459 21.8698 412.622 21.3429 411.924 22.1333ZM791.965 20.5524C791.5 21.0794 790.103 19.7619 791.267 20.2889C791.267 20.2889 792.663 19.7619 791.965 20.5524ZM123.112 20.5524C122.646 21.0794 121.483 19.7619 122.646 20.2889C122.646 20.2889 124.043 19.7619 123.112 20.5524ZM431.939 28.7206C431.473 29.2476 430.31 27.9302 431.473 28.4571C431.24 28.4571 432.637 27.9302 431.939 28.7206ZM726.802 20.5524C726.336 21.0794 725.173 19.7619 726.336 20.2889C726.104 20.2889 727.5 19.7619 726.802 20.5524ZM150.573 20.5524C150.108 21.0794 148.944 19.7619 150.108 20.2889C149.875 20.2889 151.272 19.7619 150.573 20.5524ZM373.757 22.1333C373.292 22.6603 372.128 21.3429 373.292 21.8698C373.292 21.8698 374.455 21.3429 373.757 22.1333ZM492.913 26.0857C492.447 26.6127 491.284 25.2952 492.447 25.8222C492.447 25.8222 493.844 25.0317 492.913 26.0857ZM812.212 16.3365C811.747 16.8635 810.583 15.546 811.747 16.073C811.747 16.073 812.91 15.546 812.212 16.3365ZM288.347 16.3365C287.881 16.8635 286.718 15.546 287.881 16.073C287.649 16.073 289.045 15.546 288.347 16.3365ZM350.95 19.4984C350.485 20.0254 349.321 18.7079 350.485 19.2349C350.485 19.2349 351.881 18.7079 350.95 19.4984ZM408.666 23.1873C408.201 23.7143 407.037 22.3968 408.201 22.9238C408.201 22.9238 409.597 22.3968 408.666 23.1873ZM77.0321 21.6063C76.5667 22.1333 75.403 20.8159 76.5667 21.3429C76.3339 21.3429 77.7303 20.8159 77.0321 21.6063ZM411.924 32.9365C411.459 33.4635 410.295 32.146 411.459 32.673C411.459 32.673 412.622 32.146 411.924 32.9365ZM339.081 21.6063C338.616 22.1333 337.452 20.8159 338.616 21.3429C338.616 21.3429 340.245 20.8159 339.081 21.6063ZM718.191 21.6063C717.725 22.1333 716.562 20.8159 717.726 21.3429C717.493 21.3429 718.889 20.8159 718.191 21.6063ZM354.441 20.5524C354.441 21.0794 353.51 21.8698 353.743 20.5524C353.976 19.2349 352.579 20.5524 353.976 20.2889C354.441 20.2889 354.441 19.4984 354.441 20.5524ZM80.9885 17.9175C80.9885 18.4444 80.0576 19.2349 80.2903 17.9175C80.523 16.6 79.1266 17.9175 80.5229 17.654C81.2211 17.654 80.9885 16.8635 80.9885 17.9175ZM722.613 17.9175C722.613 18.4444 721.682 19.2349 721.915 17.9175C722.147 16.6 720.751 17.9175 722.147 17.654C722.613 17.654 722.613 16.8635 722.613 17.9175ZM935.789 22.6603C935.789 23.1873 934.858 23.9778 935.091 22.6603C935.324 21.3429 933.928 22.6603 935.324 22.3968C935.789 22.3968 935.789 21.6064 935.789 22.6603ZM218.064 20.0254C218.064 20.2889 217.598 20.0254 217.598 20.0254C217.598 20.0254 216.668 21.3429 217.366 20.0254C217.133 20.0254 218.064 18.9714 218.064 20.0254ZM229.002 19.4984C229.002 19.7619 228.536 19.4984 228.536 19.4984C228.536 19.4984 227.606 20.8159 228.304 19.4984C228.304 19.4984 229.002 18.4444 229.002 19.4984ZM108.45 21.6063L107.985 20.5524C108.683 20.8159 108.45 20.2889 108.683 20.8159C108.916 21.3429 108.683 20.8159 108.45 21.6063ZM749.842 21.6063L749.376 20.5524C750.074 20.8159 749.842 20.2889 750.074 20.8159C750.074 21.6063 750.307 20.8159 749.842 21.6063ZM536.432 16.3365C536.432 16.6 535.967 16.3365 535.967 16.3365C535.967 16.3365 535.036 17.654 535.734 16.073C536.432 16.073 536.432 15.546 536.432 16.3365ZM508.273 20.5524C508.273 20.8159 507.807 20.5524 507.807 20.5524C507.807 20.5524 506.876 21.8698 507.574 20.5524H507.807C508.04 20.5524 508.273 19.4984 508.273 20.5524ZM859.455 20.0254C859.455 20.2889 858.99 20.0254 858.99 20.0254C858.99 20.0254 858.292 21.3429 858.757 20.0254H858.99C859.223 20.0254 859.455 18.9714 859.455 20.0254ZM870.161 19.4984C870.161 19.7619 869.695 19.4984 869.695 19.4984C869.695 19.4984 868.997 20.8159 869.463 19.4984H869.695C869.928 19.4984 870.161 18.4444 870.161 19.4984ZM808.256 21.0794H807.79L808.256 20.5524V21.0794ZM167.097 21.0794H166.631L167.097 20.5524V21.0794ZM440.317 29.2476V29.7746L439.619 29.5111L440.317 29.2476ZM854.801 6.32381C855.266 7.64127 854.103 6.5873 854.801 6.32381C854.335 6.32381 854.335 6.32381 854.801 6.32381ZM353.277 19.4984C353.51 19.4984 353.277 19.2349 353.277 19.4984ZM353.277 17.9175C353.51 17.9175 353.277 17.654 353.277 17.9175Z" fill="white"/>
</svg>
