<svg width="1940" height="83" viewBox="0 0 1940 83" fill="none" xmlns="http://www.w3.org/2000/svg">
<path d="M1680.51 62.4476C1681.21 63.2381 1681.91 64.0286 1682.84 64.5556C1682.14 60.3397 1682.61 66.1365 1683.77 60.3397C1689.35 59.8127 1682.84 59.5492 1688.42 60.8667H1690.75V61.1302C1691.22 62.7111 1690.52 61.9206 1691.68 62.7111L1692.38 60.6032C1693.54 60.6032 1694.71 60.8667 1695.64 61.1302C1699.36 61.1302 1695.64 58.4952 1704.95 57.4413C1704.95 59.2857 1704.02 59.0222 1709.14 60.6032C1708.9 61.6571 1708.9 61.1302 1708.44 61.9206C1707.51 63.7651 1708.44 60.8667 1707.74 63.2381C1709.37 63.5016 1711 64.0286 1712.63 64.5556C1716.58 65.6095 1712.63 64.2921 1717.05 64.2921C1717.05 63.5016 1716.82 62.4476 1716.58 61.6571C1717.51 61.6571 1718.45 61.3937 1719.38 61.1302L1721.01 60.0762C1721.47 61.9206 1721.47 61.3937 1720.54 62.7111C1723.57 62.7111 1721.94 61.6571 1723.1 60.3397L1723.8 59.5492H1724.03C1725.19 59.2857 1726.36 59.2857 1727.75 59.2857C1731.01 59.8127 1727.52 59.8127 1730.55 60.8667L1733.81 59.8127C1733.81 61.3937 1733.81 60.8667 1734.27 61.9206C1735.9 60.6032 1735.2 61.1302 1736.83 61.1302C1738.23 61.1302 1739.39 61.1302 1740.79 61.3937C1740.32 61.9206 1739.86 62.1841 1739.39 62.4476L1740.09 62.7111C1740.55 62.9746 1741.02 62.9746 1741.49 62.9746C1741.95 61.1302 1742.18 61.1302 1743.81 60.8667L1746.61 60.3397C1747.07 60.3397 1748.93 60.6032 1748.93 60.6032H1749.17L1750.1 60.8667H1750.33L1756.85 61.1302C1756.15 63.7651 1756.15 61.6571 1755.45 64.2921C1759.64 61.6571 1758.47 60.8667 1760.1 60.6032C1761.73 60.3397 1761.5 60.8667 1761.96 61.6571C1761.27 62.9746 1761.5 62.9746 1759.64 63.2381V64.819C1761.27 65.0825 1760.57 65.6095 1761.73 64.5556C1764.06 62.9746 1762.9 60.8667 1768.95 60.6032C1769.18 61.6571 1768.71 61.1302 1769.41 61.6571H1770.81C1774.3 62.7111 1773.83 61.9206 1775.46 63.2381C1776.39 61.1302 1775.23 61.9206 1776.86 60.6032C1777.32 60.8667 1777.79 61.1302 1778.26 61.6571C1778.95 62.1841 1778.72 61.9206 1779.65 62.1841C1780.12 60.0762 1779.88 60.6032 1781.98 60.6032V61.6571H1782.91C1783.84 61.3937 1783.38 61.3937 1783.84 61.1302C1786.17 60.8667 1787.8 58.7587 1788.73 61.1302C1789.89 63.5016 1788.73 60.6032 1788.96 61.6571C1789.43 64.5556 1788.03 60.3397 1788.96 62.4476C1790.12 61.6571 1789.43 61.9206 1791.29 61.9206C1791.75 60.6032 1791.52 61.3937 1791.29 59.8127C1792.68 60.0762 1791.75 59.8127 1792.22 60.0762C1793.15 60.8667 1793.62 62.1841 1793.62 63.5016L1796.41 64.2921C1797.34 64.819 1795.94 64.5556 1797.11 64.2921C1798.27 64.0286 1796.41 64.2921 1798.04 64.0286C1801.06 63.5016 1799.67 65.346 1804.32 62.7111L1803.16 60.8667L1803.39 60.6032C1806.65 60.8667 1809.91 61.3937 1813.16 62.1841C1812.7 62.4476 1813.16 62.4476 1812.23 62.7111H1810.84L1812.23 64.2921C1814.79 65.6095 1816.89 63.7651 1819.22 63.7651C1822.71 64.0286 1818.28 64.819 1822.24 64.819C1823.64 64.819 1824.34 64.0286 1825.96 63.7651C1826.2 65.0825 1826.66 65.0825 1827.36 65.873C1826.2 65.6095 1825.27 65.346 1824.1 65.346V66.4C1825.27 66.4 1826.66 66.6635 1827.83 66.927C1827.83 62.9746 1827.13 64.2921 1826.43 61.6571C1828.52 61.6571 1834.11 60.3397 1836.9 60.8667C1840.86 61.9206 1837.37 59.8127 1841.09 60.8667C1844.12 61.6571 1843.42 60.8667 1846.68 61.1302C1849.94 61.3937 1850.17 62.7111 1854.12 62.7111C1854.82 60.6032 1853.66 62.7111 1854.59 60.6032C1855.52 60.8667 1856.68 60.6032 1857.62 60.3397C1860.41 59.0222 1863.43 58.2317 1866.46 58.4952C1866.23 59.0222 1864.6 61.1302 1867.62 60.3397L1872.28 59.0222C1872.51 59.5492 1872.74 59.8127 1872.98 60.3397L1873.67 61.1302L1876.47 61.9206C1877.86 61.9206 1876.93 61.9206 1878.33 61.3937C1878.79 62.9746 1878.1 61.6571 1879.26 62.9746C1880.19 62.7111 1879.72 63.2381 1880.19 61.6571V61.3937L1889.73 62.1841C1889.73 62.1841 1891.36 61.9206 1891.83 61.9206C1892.06 61.1302 1892.29 62.1841 1891.83 61.1302L1891.36 60.0762C1893.69 60.0762 1892.76 60.6032 1893.69 59.0222C1892.06 58.4952 1892.52 58.7587 1891.83 57.4413C1894.15 57.4413 1895.08 56.9143 1897.88 56.9143H1904.39L1904.86 54.8064C1906.72 55.3333 1907.65 54.8063 1908.58 56.3873C1904.63 56.3873 1906.49 57.4413 1902.53 57.4413L1906.49 57.9683C1907.42 59.8127 1908.35 59.2857 1911.84 57.9683C1913.47 57.4413 1912.31 57.4413 1914.4 57.1778L1926.73 58.2317C1926.04 59.2857 1926.27 58.7587 1925.8 60.3397C1922.55 60.3397 1922.55 61.1302 1923.01 58.7587H1918.82C1917.89 61.6571 1917.19 59.0222 1915.56 61.3937C1919.75 61.6571 1923.94 61.9206 1928.13 61.6571H1933.72C1935.81 61.3937 1937.91 61.6571 1940 61.9206C1939.3 60.3397 1940 60.6032 1940 57.7048L1930.69 57.1778L1932.32 56.1238C1933.48 55.0698 1932.55 56.3873 1932.55 55.5968V55.3333C1935.11 55.0698 1937.44 54.8064 1940 54.8064L1940 0H970V54.2794C970.698 53.7524 971.629 53.7524 972.327 54.2794C973.724 55.0698 973.258 55.0698 972.327 56.3873C974.887 56.3873 975.585 56.1238 976.051 58.4952C972.793 56.3873 974.655 58.4952 970.466 58.4952V60.0762C974.189 60.6032 969.069 62.1841 975.12 62.1841C976.284 58.7587 977.913 61.1302 976.982 58.4952C978.378 59.0222 978.145 59.2857 978.611 59.2857C980.007 59.2857 977.913 59.2857 979.775 58.4952C981.404 59.0222 983.265 59.2857 984.894 59.0222C985.593 61.9206 986.291 60.3397 989.549 62.1841C990.014 63.7651 989.316 62.4476 990.48 63.7651C991.644 63.5016 991.178 63.7651 992.109 62.4476L992.574 62.1841L993.971 60.3397C996.763 57.9683 1000.72 61.3937 1003.28 60.0762C1002.81 61.6571 1002.35 61.6571 1000.49 61.6571V62.9746C1003.75 63.2381 1000.02 63.5016 1003.28 64.5556C1003.75 63.2381 1003.05 64.819 1002.81 62.4476L1005.61 61.9206C1005.37 65.6095 1004.21 65.346 1008.63 66.6635H1008.87L1014.68 67.7175C1014.68 67.7175 1016.78 67.1905 1017.01 66.927L1018.64 65.6095L1020.27 64.0286C1023.29 62.1841 1026.79 61.3937 1030.28 61.6571C1031.67 61.6571 1033.3 61.6571 1034.7 61.3937V62.7111C1035.63 61.9206 1035.63 61.6571 1036.79 61.3937C1037.96 61.1302 1038.19 61.9206 1038.89 62.1841C1040.52 63.7651 1039.12 62.9746 1041.45 63.2381C1042.84 61.9206 1042.14 62.9746 1042.84 60.0762C1048.43 59.5492 1041.68 59.2857 1047.5 60.6032H1049.82C1050.29 61.6571 1049.59 61.6571 1050.76 62.7111L1051.22 60.6032C1056.11 60.6032 1054.48 62.4476 1057.27 59.5492C1059.13 58.2317 1061.46 57.4413 1063.79 57.4413C1063.79 59.2857 1062.62 59.0222 1067.98 60.6032C1067.51 62.4476 1067.28 61.3937 1066.58 63.2381C1068.21 63.5016 1069.84 64.0286 1071.47 64.5556C1075.42 65.6095 1071.47 64.2921 1075.89 64.2921C1075.89 63.5016 1075.66 62.4476 1075.42 61.6571C1076.36 61.6571 1077.29 61.3937 1078.22 61.1302V60.0762C1080.78 60.3397 1080.08 61.1302 1079.15 62.7111C1080.08 62.7111 1080.08 62.9746 1080.78 62.4476C1081.48 61.9206 1081.01 61.9206 1081.24 61.3937C1081.48 60.8667 1081.24 60.6032 1082.41 59.8127C1085.9 57.7048 1089.39 60.8667 1089.39 60.8667L1092.65 59.8127C1092.65 61.3937 1092.65 60.8667 1093.11 61.9206L1094.97 61.1302H1095.21C1096.84 60.8667 1098.46 61.1302 1099.86 61.3937C1099.4 61.9206 1098.93 62.1841 1098.46 62.4476L1098.93 62.9746C1099.4 63.2381 1099.86 63.2381 1100.09 63.2381C1100.79 60.3397 1101.72 61.6571 1104.05 61.1302L1113.59 61.9206C1114.99 62.1841 1112.2 61.9206 1114.06 61.9206H1114.76C1115.45 61.6571 1114.52 61.9206 1115.92 61.3937C1115.22 64.0286 1115.22 61.9206 1114.52 64.5556C1115.69 64.0286 1116.85 62.9746 1117.78 61.9206C1118.71 60.8667 1118.01 61.1302 1119.18 60.8667C1120.57 60.6032 1120.57 61.1302 1121.27 61.9206C1120.34 63.2381 1120.81 63.2381 1118.94 63.5016V64.5556C1123.6 65.6095 1119.41 60.6032 1127.79 60.3397C1128.02 61.1302 1127.79 61.1302 1128.49 61.6571H1129.18L1130.81 61.9206H1131.05C1133.37 62.1841 1132.21 61.6571 1133.84 62.9746C1134.77 60.8667 1133.61 61.6571 1135.24 60.3397C1135.7 60.6032 1136.17 60.8667 1136.63 61.3937C1137.33 61.9206 1137.1 61.6571 1138.03 61.9206C1138.49 59.8127 1138.26 60.3397 1140.36 60.3397L1142.22 60.8667C1144.54 60.6032 1145.94 58.4952 1147.1 60.8667C1148.27 63.2381 1147.1 60.3397 1147.34 61.3937C1148.04 64.2921 1146.64 60.0762 1147.34 62.1841C1148.5 61.3937 1147.8 61.6571 1149.66 61.6571C1150.13 60.3397 1149.9 61.1302 1149.66 59.5492C1151.99 59.8127 1149.66 58.2317 1151.99 62.1841C1150.83 62.1841 1151.29 62.4476 1150.83 62.4476L1150.13 62.7111C1146.87 63.7651 1148.5 62.1841 1147.1 64.0286C1148.73 64.5556 1150.13 64.5556 1151.76 64.5556C1152.22 63.2381 1152.22 64.2921 1151.76 62.9746H1153.62L1154.55 63.5016C1155.48 64.0286 1154.09 63.5016 1156.18 63.2381C1159.21 62.7111 1157.81 64.5556 1162.46 61.9206C1162.23 60.6032 1161.77 60.6032 1161.07 59.8127C1164.33 60.0762 1167.58 60.6032 1170.84 61.3937C1170.38 61.6571 1170.84 61.6571 1169.91 61.9206H1168.51L1169.91 63.5016C1172.47 64.819 1174.57 62.9746 1176.89 62.9746C1180.38 63.2381 1175.96 64.0286 1180.15 64.0286C1181.55 64.0286 1182.25 63.2381 1183.87 62.9746L1185.27 65.0825C1184.11 64.819 1183.18 64.5556 1182.01 64.5556V65.873C1183.18 65.873 1184.57 66.1365 1185.74 66.4C1185.74 62.4476 1185.04 63.7651 1184.34 61.1302C1185.5 61.1302 1186.9 61.1302 1188.06 60.6032C1190.62 60.0762 1193.42 60.0762 1195.98 60.6032C1198.07 60.6032 1195.98 60.3397 1197.61 60.0762C1198.54 60.0762 1198.3 60.0762 1199 60.3397C1202.03 61.1302 1201.33 60.3397 1204.59 60.6032C1207.85 60.8667 1208.08 62.1841 1212.03 62.1841C1212.97 60.0762 1211.8 62.1841 1212.5 60.0762C1213.43 60.3397 1214.59 60.0762 1215.53 59.8127L1216.46 59.2857L1217.15 60.0762C1219.71 59.0222 1222.27 58.7587 1224.83 58.7587C1224.6 60.3397 1224.37 59.5492 1224.83 60.8667C1226.93 60.6032 1226 59.8127 1227.39 59.8127L1229.95 59.2857C1230.42 60.3397 1231.12 60.8667 1232.05 61.1302L1232.28 61.3937C1234.38 62.4476 1233.91 61.9206 1236.01 61.3937C1236.7 62.9746 1235.77 61.6571 1236.94 62.9746C1238.33 62.4476 1236.94 63.2381 1237.63 62.4476L1237.87 61.3937L1239.5 61.1302L1243.45 61.3937V62.9746H1245.31V62.7111C1245.31 62.4476 1245.31 62.4476 1245.55 62.1841C1245.55 61.6571 1245.31 62.1841 1245.78 61.3937C1248.11 63.2381 1246.25 61.9206 1249.5 61.9206C1249.74 61.1302 1249.97 62.1841 1249.5 61.1302L1249.04 60.0762C1250.9 60.0762 1250.2 60.3397 1251.37 59.5492C1250.2 57.9683 1250.67 59.0222 1249.5 57.4413C1252.06 57.9683 1255.79 55.8603 1259.51 57.1778L1263 57.9683C1262.77 59.8127 1263 58.2317 1262.77 59.2857C1262.54 60.3397 1262.77 58.7587 1262.07 60.6032C1263.7 60.8667 1263.47 60.6032 1264.4 61.6571C1261.84 61.6571 1252.76 60.6032 1250.67 62.7111L1278.36 61.9206C1280.22 61.6571 1282.55 61.9206 1284.41 61.9206C1285.11 61.9206 1286.27 61.6571 1286.74 61.6571L1294.65 61.9206L1293.26 63.5016C1295.35 63.7651 1297.21 63.7651 1299.31 63.5016C1301.4 62.9746 1303.73 62.7111 1305.82 62.9746C1305.36 61.6571 1305.36 62.7111 1305.82 61.3937C1302.56 62.1841 1299.31 62.7111 1296.05 62.4476H1295.58C1295.58 61.6571 1297.68 60.3397 1298.38 60.0762L1304.19 58.2317C1305.59 57.9683 1306.99 57.9683 1308.38 58.2317C1308.62 56.9143 1308.85 59.0222 1308.15 57.7048C1307.45 56.3873 1307.68 58.2317 1307.92 57.1778C1309.31 56.3873 1308.85 56.6508 1310.71 56.6508C1310.94 56.9143 1310.94 57.1778 1310.94 57.4413V58.2317C1312.8 57.7048 1311.64 57.4413 1313.27 57.4413C1313.97 57.4413 1315.13 57.9683 1316.3 58.2317C1319.09 58.7587 1317.46 57.9683 1320.02 57.7048H1321.88V60.3397C1323.98 58.7587 1323.74 57.7048 1328.4 57.1778C1328.63 59.0222 1328.63 59.0222 1330.26 59.2857C1329.79 57.1778 1327.7 56.1238 1333.05 55.5968C1333.98 57.1778 1334.45 56.9143 1334.91 59.2857H1331.19C1331.66 61.6571 1333.05 61.3937 1334.68 60.6032H1334.91C1335.61 60.3397 1336.31 60.3397 1337.01 60.3397C1335.84 57.7048 1336.54 58.2317 1336.54 54.5429C1339.57 54.5429 1342.13 51.6444 1344.22 53.7524L1344.92 55.5968C1347.95 55.8603 1350.97 55.5968 1353.76 55.0698C1353.3 57.1778 1352.83 56.6508 1351.9 58.2317C1354 58.7587 1355.16 59.0222 1355.16 55.5968C1357.49 55.3333 1356.32 55.0698 1358.65 55.3333C1360.05 55.5968 1361.91 56.6508 1363.31 56.1238C1365.63 55.3333 1362.38 56.3873 1364 55.8603C1364.24 55.8603 1364.47 55.5968 1364.94 55.3333C1366.1 54.8063 1367.26 54.5429 1368.43 54.2794C1368.43 54.2794 1368.19 54.2794 1368.19 54.0159C1367.96 53.2254 1368.19 54.2794 1367.5 53.7524C1366.8 53.2254 1367.03 54.0159 1366.56 52.6984C1367.5 52.1714 1368.19 51.6444 1369.12 51.381C1371.92 50.5905 1371.45 52.1714 1371.68 49.5365L1380.06 49.0095C1383.32 49.8 1381.46 49.8 1381.69 50.327C1382.39 51.6444 1381.69 51.381 1382.39 53.2254C1386.11 50.5905 1383.79 52.4349 1388.44 52.6984C1393.1 52.9619 1391.23 53.2254 1391 53.7524L1390.77 54.0159L1390.07 55.8603C1393.33 55.5968 1389.6 55.5968 1391.47 55.0698L1393.1 55.5968H1394.96L1395.42 55.3333C1396.35 55.0698 1394.26 55.0698 1396.82 54.8064L1395.19 54.0159L1394.96 53.7524C1397.28 53.4889 1396.12 53.2254 1398.91 53.4889C1403.8 54.0159 1402.17 51.6444 1410.55 53.7524C1411.48 54.2794 1412.64 54.2794 1413.81 54.2794C1415.9 54.5429 1415.2 54.8063 1417.07 55.3333C1416.83 58.2317 1415.67 57.9683 1413.81 58.4952C1411.71 59.2857 1409.39 59.8127 1407.29 59.5492C1407.76 59.8127 1407.29 59.8127 1408.45 60.0762C1409.62 60.3397 1408.69 60.0762 1409.85 60.0762C1413.34 59.8127 1416.83 60.3397 1418.69 59.0222C1420.56 57.7048 1418.23 58.7587 1420.32 58.2317V56.1238H1418.46C1419.39 54.5429 1418.46 55.8603 1419.39 55.3333C1422.42 54.0159 1433.59 54.5429 1437.31 54.5429V52.6984C1439.87 52.6984 1442.43 52.1714 1444.76 51.6444C1443.83 55.3333 1442.9 51.6444 1439.64 54.2794C1440.8 54.2794 1441.97 54.2794 1443.13 54.5429C1444.29 54.8063 1444.29 54.2794 1444.76 55.8603C1445.92 56.6508 1445.92 57.1778 1447.09 56.3873C1447.32 55.3333 1447.09 55.5968 1447.55 54.8064L1449.65 55.0698C1453.84 56.1238 1451.51 52.9619 1459.89 56.1238C1461.52 56.6508 1459.65 56.3873 1461.52 56.9143L1462.91 55.8603C1463.84 56.6508 1463.61 56.9143 1465.24 56.9143C1466.4 56.9143 1466.4 56.6508 1468.03 56.3873C1472.22 56.1238 1471.52 56.3873 1473.62 57.9683C1473.15 55.3333 1473.39 57.1778 1473.62 56.3873L1482.23 56.1238C1485.49 56.1238 1481.53 57.1778 1484.79 56.6508C1488.05 56.1238 1485.25 54.0159 1489.21 56.1238C1492.7 57.9683 1490.14 55.3333 1494.33 55.0698C1494.33 59.0222 1491.77 58.4952 1491.54 61.9206C1492.47 61.6571 1497.59 57.1778 1498.05 55.5968C1501.78 55.5968 1498.75 56.1238 1502.48 55.3333C1504.57 54.8063 1504.34 55.8603 1505.97 57.1778C1507.36 55.8603 1508.76 54.8063 1510.39 54.2794C1513.65 53.4889 1515.04 55.5968 1515.28 51.9079C1517.6 52.9619 1514.81 52.1714 1517.14 52.9619C1518.07 50.5905 1516.91 50.854 1519.93 50.854C1519.23 51.9079 1518.07 53.4889 1519.7 55.0698C1520.4 55.8603 1520.86 55.8603 1521.33 55.3333C1522.26 54.2794 1521.56 55.5968 1521.56 54.5429L1521.09 53.4889C1523.19 54.0159 1523.65 55.5968 1525.05 55.8603C1526.91 56.1238 1529.01 55.8603 1530.87 55.5968V56.1238C1530.87 56.9143 1530.4 55.3333 1530.87 56.9143C1531.1 57.4413 1530.87 57.7048 1532.5 57.9683C1533.2 56.3873 1532.73 56.1238 1533.2 54.5429C1533.43 53.4889 1534.13 53.2254 1534.82 52.1714C1535.76 53.2254 1537.15 53.7524 1538.55 53.7524L1537.15 55.3333C1539.48 54.8063 1538.55 55.3333 1541.34 55.3333C1541.34 54.5429 1541.11 53.4889 1540.88 52.6984C1544.37 52.6984 1543.44 51.9079 1546 51.6444C1546 53.7524 1546.23 53.2254 1545.53 54.8064C1548.09 54.8064 1549.49 55.3333 1550.65 53.7524C1549.49 53.7524 1548.56 54.0159 1547.39 54.2794C1548.32 50.5905 1549.72 53.7524 1553.68 52.4349C1556 51.3809 1558.56 51.381 1560.89 52.1714C1561.59 55.3333 1561.12 53.4889 1560.89 56.3873C1561.59 56.1238 1562.29 55.8603 1562.98 55.3333C1564.85 54.5429 1564.61 55.0698 1565.08 55.0698C1568.34 54.8063 1566.01 54.2794 1566.71 52.1714C1569.04 52.4349 1567.41 52.6984 1569.5 54.2794C1571.6 55.8603 1570.43 54.0159 1571.83 56.9143C1569.04 56.1238 1570.9 56.9143 1568.1 57.4413H1552.74V58.4952C1556 58.4952 1555.77 59.2857 1558.33 59.5492L1568.1 60.0762C1569.97 60.3397 1570.9 61.3937 1572.99 60.0762C1573.46 59.8127 1571.6 60.0762 1573.92 59.5492H1575.78C1575.78 59.8127 1575.55 60.6032 1575.32 60.6032C1575.09 61.9206 1574.85 60.6032 1575.32 61.6571C1576.48 60.8667 1575.78 61.1302 1577.65 61.1302C1578.81 62.7111 1579.28 61.1302 1579.74 60.8667C1581.14 59.8127 1579.51 60.0762 1581.84 60.3397C1584.16 60.6032 1596.03 61.1302 1596.96 59.5492V59.0222L1597.2 59.2857L1597.66 59.0222L1598.36 58.7587C1593.7 58.7587 1592.31 57.7048 1584.16 57.7048C1584.63 55.8603 1586.26 54.5429 1587.89 54.5429C1590.68 54.5429 1588.35 56.1238 1593.01 55.0698C1593.01 58.2317 1592.77 56.6508 1593.94 57.1778C1594.4 55.8603 1594.17 55.8603 1593.47 54.5429L1600.45 54.2794H1603.01C1603.25 54.2794 1603.01 54.0159 1604.18 54.2794C1605.34 54.5429 1604.88 54.5429 1605.11 54.5429C1606.97 55.0698 1606.04 54.5429 1607.2 54.5429C1607.9 54.2794 1608.6 54.5429 1609.06 55.0698C1610.23 56.1238 1610 54.8064 1608.83 56.9143C1611.39 56.9143 1612.09 56.6508 1612.56 59.0222C1610.69 57.9683 1611.39 57.9683 1609.76 58.4952H1609.53L1608.37 58.7587C1606.97 59.2857 1607.44 58.4952 1606.97 59.8127C1606.5 61.1302 1606.5 59.2857 1607.44 60.3397C1610 62.9746 1608.37 62.4476 1611.62 62.4476C1612.56 59.0222 1614.42 61.3937 1613.49 58.7587C1614.88 59.2857 1614.65 59.5492 1615.35 59.5492C1616.74 59.5492 1614.65 59.5492 1616.51 58.7587C1618.14 59.2857 1620 59.5492 1621.63 59.2857C1622.1 61.3937 1623.73 61.9206 1626.29 61.9206V62.1841L1632.57 64.0286L1635.36 60.6032C1637.69 58.4952 1641.88 60.8667 1644.21 60.8667C1643.27 62.4476 1644.21 61.9206 1641.88 61.9206V62.7111C1645.14 62.9746 1641.41 63.2381 1644.67 64.2921C1645.14 62.9746 1644.44 64.5556 1644.21 62.1841L1647 61.6571C1647 63.7651 1644.9 65.873 1651.65 66.6635C1661.66 67.981 1657.01 65.346 1662.36 63.2381L1663.52 62.9746C1671.67 60.0762 1667.01 61.9206 1676.09 61.1302V62.7111C1677.02 61.9206 1677.02 61.6571 1678.18 61.3937H1679.11C1679.35 61.3937 1679.58 61.6571 1679.81 61.6571L1680.51 62.4476Z" fill="white"/>
<path d="M1448.48 56.3873C1446.62 56.3873 1446.39 56.1238 1444.29 55.8603C1438.94 55.5968 1445.23 55.0698 1441.04 54.8064V55.8603C1434.05 56.1238 1441.27 54.5429 1433.12 56.3873C1431.73 56.6508 1430.33 57.1778 1428.93 57.1778C1427.07 57.1778 1426.61 55.5968 1425.21 57.9683C1427.31 58.2317 1426.84 58.7587 1429.4 58.2317C1430.8 58.2317 1431.96 58.2317 1433.12 57.9683V56.9143C1434.75 57.4413 1433.82 57.4413 1435.22 57.9683H1437.78C1438.24 58.7587 1437.78 58.7587 1438.94 59.0222H1441.5C1441.5 58.7587 1441.27 58.7587 1441.5 56.9143L1448.48 56.3873ZM1879.26 73.5143C1876.7 72.1968 1873.67 72.4603 1871.35 74.3048L1869.95 75.3587C1871.81 75.8857 1873.67 76.1492 1875.54 76.4127C1877.86 76.6762 1878.56 75.3587 1879.26 73.5143ZM1237.87 73.5143C1234.84 71.9333 1234.84 72.4603 1231.35 73.7778L1228.33 75.6222C1230.19 76.1492 1232.05 76.4127 1233.91 76.6762C1236.47 76.6762 1237.17 75.3587 1237.87 73.5143ZM1842.02 74.5683C1841.09 70.6159 1839.7 75.3587 1838.76 71.4063H1836.9L1837.14 73.5143C1837.83 76.4127 1839.93 74.0413 1842.02 74.5683ZM1200.86 74.5683C1199.93 70.6159 1198.54 75.3587 1197.61 71.4063H1195.74C1195.74 72.1968 1195.51 75.0952 1197.61 75.0952C1199.7 75.0952 1198.07 74.0413 1200.86 74.5683ZM1553.21 58.2317C1551.12 58.2317 1551.58 57.7048 1549.95 57.7048C1548.79 57.9683 1547.39 57.9683 1546.23 58.2317V59.2857C1551.81 59.8127 1551.81 60.6032 1553.21 58.2317ZM1793.85 64.0286C1790.82 62.9746 1795.48 64.0286 1792.45 62.9746C1791.99 64.2921 1792.68 63.7651 1791.52 64.0286H1789.19V65.0825C1790.82 65.6095 1792.22 65.6095 1793.85 65.6095C1794.31 64.2921 1794.31 65.346 1793.85 64.0286ZM1902.3 68.7714C1901.13 67.981 1900.67 68.2444 1898.57 68.2444C1897.18 68.2444 1897.64 68.5079 1897.18 69.2984C1898.34 69.8254 1902.3 70.6159 1902.3 68.7714ZM1261.14 68.7714C1259.98 67.981 1259.51 68.2444 1257.42 68.2444C1256.02 68.2444 1256.49 68.5079 1256.02 69.2984C1256.95 69.8254 1260.67 70.6159 1261.14 68.7714ZM1222.04 76.6762V76.1492L1218.32 75.6222C1217.62 77.7302 1218.55 76.4127 1215.53 76.1492V77.2032C1218.32 77.2032 1219.25 76.6762 1222.04 76.6762ZM1863.2 76.6762V76.1492L1859.48 75.6222C1858.78 77.7302 1859.71 76.4127 1856.68 76.1492V77.2032C1859.71 77.2032 1860.64 76.6762 1863.2 76.6762ZM1214.83 76.1492H1209.24C1210.17 77.7302 1209.24 77.2032 1211.57 77.2032H1214.83V76.1492ZM1856.22 76.1492H1850.63C1851.56 77.7302 1850.63 77.2032 1852.96 77.2032H1856.22V76.1492ZM1619.77 75.0952C1621.4 77.7302 1622.33 77.7302 1624.89 79.3111C1624.42 77.4667 1624.42 77.7302 1622.8 76.9397C1621.86 76.1492 1620.7 75.6222 1619.77 75.0952ZM978.611 75.0952C980.24 77.7302 981.171 77.7302 983.731 79.3111C983.265 77.4667 983.265 77.7302 981.636 76.9397C980.705 76.1492 979.542 75.6222 978.611 75.0952ZM1410.32 53.7524V54.8064L1409.85 55.8603C1412.41 56.6508 1411.95 57.4413 1413.11 54.8064C1411.48 54.2794 1411.71 54.0159 1410.32 53.7524ZM1215.29 65.6095C1213.2 65.0825 1212.73 64.2921 1212.03 66.6635C1212.97 66.927 1215.29 68.2444 1215.29 65.6095ZM1856.68 65.6095C1854.59 65.0825 1853.89 64.2921 1853.43 66.6635C1854.36 66.927 1856.68 68.2444 1856.68 65.6095ZM1171.77 68.7714L1167.12 68.2444V69.2984C1169.68 69.2984 1169.68 69.8254 1171.77 69.8254V68.7714ZM1180.38 71.9333L1180.62 72.1968L1182.01 73.5143C1183.18 74.3048 1184.57 74.0413 1185.5 73.2508C1183.87 72.4603 1182.25 71.9333 1180.38 71.9333ZM1821.78 71.9333L1822.01 72.4603L1823.87 73.5143C1826.2 74.0413 1826.43 72.9873 1826.66 72.9873C1825.27 72.4603 1823.4 71.9333 1821.78 71.9333ZM1205.52 76.1492C1199 76.1492 1198.77 75.0952 1196.67 77.2032L1205.52 76.1492ZM1846.68 76.1492C1843.19 76.1492 1839.93 75.6222 1838.53 76.4127C1837.14 77.4667 1838.3 76.6762 1837.83 77.2032L1846.68 76.1492ZM1350.74 60.3397C1347.95 60.3397 1347.25 60.8667 1344.69 60.8667V61.3937C1347.02 61.3937 1349.58 61.9206 1350.74 60.3397ZM1347.48 62.4476C1345.39 62.4476 1344.92 62.9746 1342.36 62.9746V63.5016H1347.48V62.4476ZM1378.67 51.1175C1376.8 51.1175 1376.8 50.854 1375.41 51.6444C1375.87 52.4349 1375.41 52.6984 1376.8 52.6984C1378.2 52.6984 1378.43 51.9079 1378.67 51.1175ZM1386.58 59.8127C1384.72 59.8127 1385.42 59.2857 1383.32 59.2857C1381.92 59.2857 1382.39 59.5492 1381.92 60.3397H1386.58V59.8127ZM1835.04 72.9873C1834.11 72.7238 1833.18 72.4603 1832.25 72.4603C1833.18 74.0413 1832.95 74.0413 1835.04 74.0413V72.9873ZM1193.65 72.9873C1192.72 72.7238 1191.79 72.4603 1190.86 72.4603C1191.79 74.0413 1191.55 74.0413 1193.65 74.0413V72.9873ZM1204.59 70.8794C1203.66 70.6159 1202.49 71.1429 1201.79 71.9333C1202.26 72.7238 1202.03 72.4603 1202.26 73.5143L1204.59 70.8794ZM1845.75 70.8794C1844.82 70.6159 1843.65 71.1429 1842.95 71.9333C1843.19 72.4603 1843.42 72.9873 1843.42 73.5143L1845.75 70.8794ZM1819.91 66.6635H1816.19C1816.66 66.927 1816.42 66.927 1816.89 67.454C1817.35 67.981 1819.68 67.981 1819.91 66.6635ZM1178.52 66.6635H1174.8C1175.03 66.927 1174.8 66.927 1175.5 67.454C1176.19 67.981 1178.52 67.981 1178.52 66.6635ZM1459.65 57.7048C1456.63 57.7048 1456.4 56.6508 1455.47 58.2317H1459.65V57.7048ZM1180.38 71.9333L1181.08 70.8794H1178.06V71.9333H1180.38ZM1821.78 71.9333L1822.24 70.8794H1819.45V71.9333H1821.78ZM1609.3 58.2317C1606.97 58.2317 1607.44 57.7048 1606.5 59.2857H1609.3V58.2317ZM1000.25 63.5016C998.625 63.7651 998.625 63.7651 998.393 65.6095C1000.02 65.0825 999.789 65.346 1000.25 63.5016ZM1641.41 63.5016C1639.78 63.7651 1639.78 63.7651 1639.55 65.6095C1641.18 65.0825 1640.95 65.346 1641.41 63.5016ZM1209.24 72.9873C1207.38 73.2508 1207.85 72.7238 1207.38 74.5683H1209.24V72.9873ZM1850.63 72.9873C1848.77 73.2508 1849.24 72.7238 1848.77 74.5683H1850.63V72.9873ZM1800.36 66.6635C1798.97 66.6635 1799.43 66.927 1798.97 67.7175H1802.46C1801.06 66.6635 1801.53 66.6635 1800.36 66.6635ZM1159.21 66.6635C1157.81 66.6635 1158.28 66.927 1157.81 67.7175H1161.07C1160.6 67.454 1160.83 67.454 1160.37 66.927C1159.9 66.4 1161.07 66.6635 1159.21 66.6635ZM1131.51 63.5016L1129.18 64.0286V66.1365L1131.51 63.5016ZM1772.67 63.5016L1770.34 64.0286V66.1365L1772.67 63.5016ZM983.265 61.9206C982.102 60.3397 982.102 60.3397 980.473 60.8667L981.404 61.6571L981.636 61.9206C981.869 61.9206 982.8 62.4476 983.265 61.9206ZM1107.54 70.3524H1105.68V71.4063L1107.54 71.9333V70.3524ZM1773.14 72.4603L1772.2 71.9333C1770.81 71.9333 1771.27 72.1968 1770.81 72.9873C1771.74 73.2508 1772.9 74.0413 1773.14 72.4603ZM1131.98 72.4603L1131.05 71.9333C1129.65 71.9333 1130.12 72.1968 1129.65 72.9873C1130.35 73.2508 1131.74 74.0413 1131.98 72.4603ZM1856.68 72.4603H1854.36V71.4063H1856.68V72.4603ZM1215.29 72.4603H1212.97V71.4063H1215.29V72.4603Z" fill="white"/>
<path d="M1410.32 54.8064H1405.66V54.2794H1410.32V54.8064ZM1810.84 69.2984H1808.51V68.2444H1810.84V69.2984ZM1624.66 61.9206C1623.73 60.3397 1623.49 60.3397 1621.86 60.8667L1622.1 61.1302L1623.73 62.1841C1623.96 62.1841 1624.42 62.1841 1624.66 61.9206ZM1330.49 63.5016L1327.7 62.9746V64.0286H1330.49V63.5016ZM1746.61 63.5016C1744.74 63.7651 1745.21 63.2381 1744.74 65.0825H1746.61C1746.37 64.0286 1746.14 64.5556 1746.61 63.5016ZM1195.05 74.5683C1193.18 76.1492 1195.28 76.1492 1192.72 76.1492V76.6762H1195.05V74.5683ZM1836.44 74.5683C1834.58 76.1492 1836.67 76.1492 1834.11 76.1492V76.6762H1836.44V74.5683ZM1436.61 58.7587L1434.05 59.0222C1433.36 59.2857 1433.59 59.2857 1433.36 59.8127C1434.75 59.8127 1436.38 60.0762 1436.61 58.7587ZM1267.89 64.5556H1263.7V64.0286H1267.89V64.5556ZM1704.25 58.7587H1701.46C1701.69 59.0222 1704.02 61.1302 1704.25 58.7587ZM1192.02 68.2444H1189.69V69.2984C1191.09 69.2984 1192.02 69.5619 1192.02 68.2444ZM1833.64 68.2444H1831.32V69.2984C1832.48 69.2984 1833.41 69.5619 1833.64 68.2444ZM1393.56 71.9333H1391.23C1392.16 73.5143 1391.23 72.9873 1393.56 72.9873V71.9333ZM1670.74 54.8064C1669.81 54.8064 1670.04 54.5429 1668.87 55.8603H1671.67C1671.43 55.3333 1671.43 54.8064 1670.74 54.8064ZM1029.34 54.8064C1028.18 54.8064 1028.65 54.5429 1027.48 55.8603H1030.28C1030.04 55.3333 1030.04 54.8064 1029.34 54.8064ZM1105.21 63.5016C1103.12 63.7651 1104.28 62.9746 1103.35 64.5556C1103.82 64.819 1104.52 65.0825 1105.21 65.0825C1104.98 64.0286 1104.75 64.5556 1105.21 63.5016ZM1832.71 76.6762H1828.99V76.1492H1832.71V76.6762ZM1191.32 76.6762H1187.6V76.1492H1191.32V76.6762ZM1788.26 71.4063H1786.4V70.3524H1788.26V71.4063ZM1146.87 71.4063H1145.01V70.3524H1146.87V71.4063ZM1813.16 69.8254H1811.3V68.7714H1813.16V69.8254ZM1381.92 54.2794H1380.06V53.2254H1381.92V54.2794ZM1168.05 71.4063H1165.72C1165.95 71.9333 1165.95 72.4603 1166.65 72.4603C1167.35 72.4603 1168.05 72.1968 1168.05 71.4063ZM1062.86 58.7587H1060.53C1060.76 59.2857 1060.76 59.8127 1061.46 59.8127C1062.16 59.8127 1062.62 59.5492 1062.86 58.7587ZM1809.44 71.4063H1807.11C1807.35 71.9333 1807.58 72.4603 1808.04 72.4603C1808.51 72.4603 1809.44 72.1968 1809.44 71.4063ZM1152.46 74.5683H1150.13C1150.36 74.8317 1150.13 74.8317 1150.83 75.3587C1151.99 75.8857 1151.06 75.6222 1152.46 75.6222V74.5683ZM1793.85 74.5683H1791.52C1791.99 74.8317 1791.52 74.8317 1792.22 75.3587C1793.38 75.8857 1792.45 75.6222 1793.85 75.6222V74.5683ZM1872.28 60.8667H1869.95C1870.42 61.1302 1869.95 61.1302 1870.65 61.6571C1871.81 61.9206 1871.11 61.6571 1872.28 61.9206V60.8667ZM1389.37 54.8064V55.8603H1391.7C1391.47 55.5968 1391.7 55.5968 1391 55.0698C1389.84 54.5429 1390.77 54.8064 1389.37 54.8064ZM1747.07 70.3524C1747.54 71.6698 1747.07 71.4063 1748.93 71.9333C1748 69.5619 1749.4 70.6159 1747.07 70.3524ZM1605.34 58.2317H1602.08V57.7048H1605.34V58.2317ZM1432.43 59.8127H1429.17V59.2857H1432.43V59.8127ZM1230.89 60.8667H1228.56V61.3937C1229.26 61.3937 1230.19 61.6571 1230.89 61.9206V60.8667ZM1707.51 63.5016H1705.65V64.5556C1706.81 64.2921 1707.27 64.5556 1707.51 63.5016ZM1252.3 81.946C1250.2 82.2095 1251.37 81.419 1250.43 83H1252.3V81.946ZM1893.69 81.946C1891.59 82.2095 1892.99 81.419 1891.83 83H1893.69V81.946ZM1108.7 70.3524V71.4063H1110.57C1109.64 69.8254 1111.03 70.6159 1108.7 70.3524ZM1750.1 70.3524V71.4063H1751.96C1750.79 69.8254 1752.19 70.6159 1750.1 70.3524ZM1316.3 70.8794H1314.9C1315.36 72.4603 1314.2 71.1429 1316.3 72.4603V70.8794ZM1064.49 64.5556C1066.58 64.2921 1065.42 65.0825 1066.35 63.5016C1063.56 63.5016 1064.95 63.2381 1064.49 64.5556ZM1804.79 68.2444H1803.39V67.1905H1804.79V68.2444ZM1073.8 72.9873H1072.4V71.9333H1073.8V72.9873ZM1163.39 68.2444H1162V67.1905H1163.39V68.2444ZM1387.51 55.3333H1384.72V54.8064H1387.51V55.3333ZM1753.82 64.0286C1752.19 63.7651 1752.42 62.9746 1751.96 65.0825L1752.89 64.5556C1753.82 64.0286 1753.12 64.5556 1753.82 64.0286ZM1112.66 64.0286C1111.03 63.7651 1111.26 62.9746 1110.8 65.0825C1111.03 65.0825 1111.73 64.819 1111.73 64.5556C1112.66 64.0286 1111.96 64.5556 1112.66 64.0286ZM1777.32 69.8254C1778.26 71.4063 1777.09 70.6159 1779.19 70.8794C1778.02 69.2984 1779.42 70.0889 1777.32 69.8254ZM1373.31 66.6635C1374.48 68.2444 1373.08 67.454 1375.18 67.7175C1374.24 66.1365 1375.41 66.927 1373.31 66.6635ZM1136.17 69.8254C1137.33 71.4063 1135.93 70.6159 1138.03 70.8794C1136.86 69.2984 1138.26 70.0889 1136.17 69.8254ZM1857.62 66.1365H1859.48C1858.55 64.5556 1858.55 64.5556 1857.62 66.1365ZM1216.22 66.1365H1218.09C1217.15 64.5556 1217.15 64.5556 1216.22 66.1365ZM1109.64 62.9746C1108.94 62.9746 1109.17 62.7111 1108.47 63.2381C1106.84 64.0286 1107.77 63.5016 1107.31 64.0286C1108.7 63.7651 1109.17 63.7651 1109.64 62.9746ZM1427.31 56.3873H1424.98V55.8603H1427.31V56.3873ZM1706.58 60.3397H1705.18V61.3937C1705.88 61.1302 1706.34 61.1302 1706.58 60.3397ZM1065.42 60.3397H1064.02V61.3937C1064.72 61.1302 1065.18 61.1302 1065.42 60.3397ZM1715.19 71.9333H1713.79V72.9873C1714.72 72.7238 1714.95 72.9873 1715.19 71.9333ZM1399.84 59.8127C1400.31 61.3937 1399.84 60.8667 1401.24 61.3937C1400.31 59.2857 1401.47 60.3397 1399.84 59.8127ZM1450.81 56.9143V58.2317H1452.67C1452.21 57.9683 1452.91 58.2317 1451.74 57.7048L1450.81 56.9143ZM1815.49 69.2984C1814.1 69.5619 1814.79 69.2984 1814.1 70.3524H1815.49V69.2984ZM1448.48 57.7048C1447.09 57.9683 1447.79 57.7048 1447.09 58.7587H1448.48V57.7048ZM1174.1 69.2984C1172.7 69.5619 1173.4 69.2984 1172.7 70.3524H1174.1V69.2984ZM1654.68 54.2794H1653.28C1653.98 55.3333 1653.28 55.0698 1654.68 55.3333V54.2794ZM1013.29 54.2794H1011.89C1012.59 55.3333 1011.89 55.0698 1013.29 55.3333V54.2794ZM1750.56 62.9746C1749.63 63.2381 1750.56 62.7111 1749.4 63.2381L1748.7 64.0286C1749.63 63.7651 1750.33 64.0286 1750.56 62.9746ZM1045.64 60.8667C1044.7 61.1302 1045.64 60.6032 1044.47 61.1302C1043.77 61.3937 1044.01 61.3937 1043.77 61.9206C1044.7 61.6571 1045.4 61.9206 1045.64 60.8667ZM1686.79 60.8667C1685.86 61.1302 1686.79 60.6032 1685.63 61.1302L1684.93 61.9206C1685.86 61.6571 1686.56 61.9206 1686.79 60.8667ZM1929.29 81.419H1927.43V80.8921H1929.29V81.419ZM1263 60.8667H1261.14V60.3397H1263V60.8667ZM1288.14 81.419H1286.27V80.8921H1288.14V81.419ZM1904.39 60.8667H1902.53V60.3397H1904.39V60.8667ZM1365.4 60.3397H1363.54V59.8127H1365.4V60.3397ZM1183.41 74.5683H1181.55V74.0413H1183.41V74.5683ZM1146.87 61.9206H1145.01V61.3937H1146.87V61.9206ZM1788.26 61.9206H1786.4V61.3937H1788.26V61.9206ZM1824.8 74.5683H1822.94V74.0413H1824.8V74.5683ZM1377.74 58.7587H1375.87V58.2317H1377.74V58.7587ZM1632.57 65.6095C1631.17 66.927 1631.87 65.346 1631.64 67.7175C1631.87 67.454 1631.87 67.7175 1632.34 66.927C1632.8 65.6095 1632.34 66.4 1632.57 65.6095ZM991.178 65.6095C989.782 66.927 990.48 65.346 990.247 67.7175C990.48 67.454 990.48 67.7175 990.945 66.927C991.411 65.6095 990.945 66.4 991.178 65.6095ZM1064.49 64.5556C1063.09 64.819 1063.79 64.5556 1063.09 65.6095C1065.42 65.346 1063.79 66.1365 1064.49 64.5556Z" fill="white"/>
<path d="M1452.67 58.2317C1452.91 58.2317 1452.21 59.2857 1453.6 58.4952C1455 57.7048 1453.6 59.0222 1454.07 57.7048C1452.91 57.9683 1453.84 57.7048 1452.67 58.2317ZM1704.25 65.6095H1705.65C1704.48 64.0286 1705.18 64.0286 1704.25 65.6095ZM1062.39 64.0286H1063.79C1062.62 62.4476 1063.56 62.4476 1062.39 64.0286ZM1703.78 64.0286H1705.18C1704.02 62.4476 1704.71 62.4476 1703.78 64.0286ZM1170.38 64.0286L1169.45 65.0825C1172.01 65.0825 1170.14 65.0825 1170.84 64.5556L1170.38 64.0286ZM1811.77 64.0286L1810.84 64.819C1813.4 64.819 1811.54 64.819 1812.23 64.2921L1811.77 64.0286ZM1867.86 71.9333C1866.46 72.1968 1867.16 71.9333 1866.46 72.9873C1867.39 72.7238 1867.86 72.9873 1867.86 71.9333ZM1147.34 65.0825C1145.94 65.346 1146.64 65.0825 1145.94 66.1365C1146.87 65.873 1147.1 66.1365 1147.34 65.0825ZM1788.73 65.0825C1787.33 65.346 1788.03 65.0825 1787.33 66.1365C1788.26 65.873 1788.5 66.1365 1788.73 65.0825ZM1226.7 71.9333C1225.3 72.1968 1226 71.9333 1225.3 72.9873C1226.23 72.7238 1226.7 72.9873 1226.7 71.9333ZM1382.39 51.6444H1380.99V51.1175H1382.39V51.6444ZM1823.17 76.6762H1821.78V76.1492H1823.17V76.6762ZM1406.13 59.2857H1404.73V58.7587H1406.13V59.2857ZM1746.61 62.9746H1745.21V62.4476H1746.61V62.9746ZM1916.26 69.2984H1914.87V68.7714H1916.26V69.2984ZM1274.87 69.2984H1273.47V68.7714H1274.87V69.2984ZM1182.01 76.6762H1180.62V76.1492H1182.01V76.6762ZM1105.21 62.9746H1103.82V62.4476H1105.21V62.9746ZM1658.87 54.8064H1657.47V54.2794H1658.87V54.8064ZM1212.97 74.0413H1211.57V73.5143H1212.97V74.0413ZM1854.36 74.0413H1852.96V73.5143H1854.36V74.0413ZM1017.48 54.8064H1016.08V54.2794H1017.48V54.8064ZM987.454 82.473H986.058V81.946H987.454V82.473ZM1354 61.9206H1352.6V61.3937H1354V61.9206ZM1628.85 82.473H1627.45V81.946H1628.85V82.473ZM1776.39 65.0825H1775V64.5556H1776.39V65.0825ZM1555.54 58.7587H1554.14V58.2317H1555.54V58.7587ZM1135.24 65.0825H1133.84V64.5556H1135.24V65.0825ZM1255.09 57.7048L1256.49 58.7587C1256.02 57.1778 1257.42 57.7048 1255.09 57.7048ZM972.327 69.8254C972.793 71.4063 971.396 70.6159 973.724 70.8794C973.724 70.8794 973.491 70.8794 973.491 70.6159C973.491 70.3524 973.258 70.3524 973.258 70.3524C973.258 70.3524 972.56 70.0889 972.327 69.8254ZM1508.76 70.3524C1509.46 71.4063 1508.76 71.1429 1510.16 71.4063C1509.46 70.0889 1510.16 70.8794 1508.76 70.3524ZM1613.72 69.8254C1614.18 71.4063 1612.79 70.6159 1615.12 70.8794C1615.12 70.8794 1614.88 70.8794 1614.88 70.6159L1613.72 69.8254ZM1220.65 71.4063C1220.65 70.8794 1219.71 70.3524 1219.95 71.4063C1219.95 71.6698 1220.88 72.7238 1220.65 71.4063ZM1861.8 71.4063C1861.8 70.8794 1860.87 70.3524 1861.11 71.4063C1861.34 71.6698 1862.04 72.7238 1861.8 71.4063ZM1152.46 65.6095C1152.69 66.927 1152.22 66.4 1153.39 66.6635C1153.39 65.346 1153.85 66.1365 1152.46 65.6095ZM1793.85 65.6095C1794.08 66.927 1793.62 66.4 1794.78 66.6635C1794.55 65.346 1795.01 66.1365 1793.85 65.6095ZM1734.27 62.4476C1733.81 61.9206 1732.64 63.2381 1733.81 62.7111C1733.81 62.7111 1735.43 63.2381 1734.27 62.4476ZM1398.21 57.7048C1397.75 57.1778 1396.59 58.4952 1397.75 57.9683C1397.75 57.9683 1399.38 58.4952 1398.21 57.7048ZM1445.23 57.7048C1444.76 57.1778 1443.6 58.4952 1444.76 57.9683C1444.76 57.9683 1446.16 58.4952 1445.23 57.7048ZM1055.41 62.4476C1054.94 61.9206 1053.78 63.2381 1054.94 62.7111C1054.71 62.7111 1056.11 63.2381 1055.41 62.4476ZM1677.25 63.5016C1676.79 62.9746 1675.62 64.2921 1676.79 63.7651C1676.79 63.7651 1678.18 64.2921 1677.25 63.5016ZM1768.48 61.9206C1768.02 61.3937 1766.85 62.7111 1768.02 62.1841C1767.78 62.1841 1769.18 62.7111 1768.48 61.9206ZM1899.74 66.6635C1899.27 66.1365 1898.11 67.454 1899.27 66.927C1899.04 66.927 1900.44 67.454 1899.74 66.6635ZM1409.85 60.3397C1409.39 59.8127 1408.22 61.1302 1409.39 60.6032C1409.15 60.6032 1410.55 61.1302 1409.85 60.3397ZM1127.09 61.9206C1126.62 61.3937 1125.46 62.7111 1126.62 62.1841C1126.39 62.1841 1127.79 62.7111 1127.09 61.9206ZM1035.86 63.5016C1035.4 62.9746 1034.23 64.2921 1035.4 63.7651C1035.4 63.7651 1036.79 64.2921 1035.86 63.5016ZM1229.49 65.0825C1229.02 64.5556 1227.86 65.873 1229.02 65.346C1229.02 65.346 1230.42 65.873 1229.49 65.0825ZM1870.88 65.0825C1870.42 64.5556 1869.25 65.873 1870.42 65.346C1870.42 65.346 1871.81 65.873 1870.88 65.0825ZM1140.82 66.6635C1140.36 66.1365 1139.19 67.454 1140.36 66.927C1140.36 66.927 1141.52 67.454 1140.82 66.6635ZM1381.92 60.8667C1381.46 60.3397 1380.3 61.6571 1381.46 61.1302C1381.46 61.1302 1382.62 61.6571 1381.92 60.8667ZM1761.96 62.4476C1761.5 61.9206 1760.1 63.2381 1761.27 62.7111C1761.27 62.7111 1762.66 63.2381 1761.96 62.4476ZM1093.11 62.4476C1092.65 61.9206 1091.48 63.2381 1092.65 62.7111C1092.65 62.7111 1094.04 63.2381 1093.11 62.4476ZM1401.94 54.2794C1401.47 53.7524 1400.31 55.0698 1401.47 54.5429C1401.24 54.5429 1402.64 55.0698 1401.94 54.2794ZM1696.8 62.4476C1696.34 61.9206 1695.17 63.2381 1696.34 62.7111C1696.1 62.7111 1697.5 63.2381 1696.8 62.4476ZM1120.57 62.4476C1120.11 61.9206 1118.94 63.2381 1120.11 62.7111C1119.88 62.7111 1121.27 63.2381 1120.57 62.4476ZM1343.76 60.8667C1343.29 60.3397 1342.13 61.6571 1343.29 61.1302C1343.29 61.1302 1344.46 61.6571 1343.76 60.8667ZM1462.91 56.9143C1462.45 56.3873 1461.28 57.7048 1462.45 57.1778C1462.45 57.1778 1463.84 57.9683 1462.91 56.9143ZM1782.21 66.6635C1781.75 66.1365 1780.58 67.454 1781.75 66.927C1781.75 66.927 1782.91 67.454 1782.21 66.6635ZM1258.35 66.6635C1257.88 66.1365 1256.72 67.454 1257.88 66.927C1257.65 66.927 1259.05 67.454 1258.35 66.6635ZM1320.95 63.5016C1320.48 62.9746 1319.32 64.2921 1320.48 63.7651C1320.48 63.7651 1321.88 64.2921 1320.95 63.5016ZM1378.67 59.8127C1378.2 59.2857 1377.04 60.6032 1378.2 60.0762C1378.2 60.0762 1379.6 60.6032 1378.67 59.8127ZM1047.03 61.3937C1046.57 60.8667 1045.4 62.1841 1046.57 61.6571C1046.33 61.6571 1047.73 62.1841 1047.03 61.3937ZM1381.92 50.0635C1381.46 49.5365 1380.3 50.854 1381.46 50.327C1381.46 50.327 1382.62 50.854 1381.92 50.0635ZM1309.08 61.3937C1308.62 60.8667 1307.45 62.1841 1308.62 61.6571C1308.62 61.6571 1310.24 62.1841 1309.08 61.3937ZM1688.19 61.3937C1687.73 60.8667 1686.56 62.1841 1687.73 61.6571C1687.49 61.6571 1688.89 62.1841 1688.19 61.3937ZM1324.44 62.4476C1324.44 61.9206 1323.51 61.1302 1323.74 62.4476C1323.98 63.7651 1322.58 62.4476 1323.98 62.7111C1324.44 62.7111 1324.44 63.5016 1324.44 62.4476ZM1050.99 65.0825C1050.99 64.5556 1050.06 63.7651 1050.29 65.0825C1050.52 66.4 1049.13 65.0825 1050.52 65.346C1051.22 65.346 1050.99 66.1365 1050.99 65.0825ZM1692.61 65.0825C1692.61 64.5556 1691.68 63.7651 1691.91 65.0825C1692.15 66.4 1690.75 65.0825 1692.15 65.346C1692.61 65.346 1692.61 66.1365 1692.61 65.0825ZM1905.79 60.3397C1905.79 59.8127 1904.86 59.0222 1905.09 60.3397C1905.32 61.6571 1903.93 60.3397 1905.32 60.6032C1905.79 60.6032 1905.79 61.3937 1905.79 60.3397ZM1188.06 62.9746C1188.06 62.7111 1187.6 62.9746 1187.6 62.9746C1187.6 62.9746 1186.67 61.6571 1187.37 62.9746C1187.13 62.9746 1188.06 64.0286 1188.06 62.9746ZM1199 63.5016C1199 63.2381 1198.54 63.5016 1198.54 63.5016C1198.54 63.5016 1197.61 62.1841 1198.3 63.5016C1198.3 63.5016 1199 64.5556 1199 63.5016ZM1078.45 61.3937L1077.98 62.4476C1078.68 62.1841 1078.45 62.7111 1078.68 62.1841C1078.92 61.6571 1078.68 62.1841 1078.45 61.3937ZM1719.84 61.3937L1719.38 62.4476C1720.07 62.1841 1719.84 62.7111 1720.07 62.1841C1720.07 61.3937 1720.31 62.1841 1719.84 61.3937ZM1506.43 66.6635C1506.43 66.4 1505.97 66.6635 1505.97 66.6635C1505.97 66.6635 1505.04 65.346 1505.73 66.927C1506.43 66.927 1506.43 67.454 1506.43 66.6635ZM1478.27 62.4476C1478.27 62.1841 1477.81 62.4476 1477.81 62.4476C1477.81 62.4476 1476.88 61.1302 1477.57 62.4476H1477.81C1478.04 62.4476 1478.27 63.5016 1478.27 62.4476ZM1829.46 62.9746C1829.46 62.7111 1828.99 62.9746 1828.99 62.9746C1828.99 62.9746 1828.29 61.6571 1828.76 62.9746H1828.99C1829.22 62.9746 1829.46 64.0286 1829.46 62.9746ZM1840.16 63.5016C1840.16 63.2381 1839.7 63.5016 1839.7 63.5016C1839.7 63.5016 1839 62.1841 1839.46 63.5016H1839.7C1839.93 63.5016 1840.16 64.5556 1840.16 63.5016ZM1778.26 61.9206H1777.79L1778.26 62.4476V61.9206ZM1137.1 61.9206H1136.63L1137.1 62.4476V61.9206ZM1410.32 53.7524V53.2254L1409.62 53.4889L1410.32 53.7524ZM1824.8 76.6762C1825.27 75.3587 1824.1 76.4127 1824.8 76.6762C1824.34 76.6762 1824.34 76.6762 1824.8 76.6762ZM1323.28 63.5016C1323.51 63.5016 1323.28 63.7651 1323.28 63.5016V63.5016ZM1323.28 65.0825C1323.51 65.0825 1323.28 65.346 1323.28 65.0825V65.0825Z" fill="white"/>
<path d="M710.511 62.4476C711.209 63.2381 711.907 64.0286 712.838 64.5556C712.14 60.3397 712.605 66.1365 713.769 60.3397C719.355 59.8127 712.838 59.5492 718.424 60.8667H720.751V61.1302C721.216 62.7111 720.518 61.9206 721.682 62.7111L722.38 60.6032C723.544 60.6032 724.707 60.8667 725.638 61.1302C729.362 61.1302 725.638 58.4952 734.947 57.4413C734.947 59.2857 734.016 59.0222 739.136 60.6032C738.904 61.6571 738.904 61.1302 738.438 61.9206C737.507 63.7651 738.438 60.8667 737.74 63.2381C739.369 63.5016 740.998 64.0286 742.627 64.5556C746.583 65.6095 742.627 64.2921 747.049 64.2921C747.049 63.5016 746.816 62.4476 746.583 61.6571C747.514 61.6571 748.445 61.3937 749.376 61.1302L751.005 60.0762C751.471 61.9206 751.471 61.3937 750.54 62.7111C753.565 62.7111 751.936 61.6571 753.1 60.3397L753.798 59.5492H754.031C755.194 59.2857 756.358 59.2857 757.754 59.2857C761.013 59.8127 757.522 59.8127 760.547 60.8667L763.805 59.8127C763.805 61.3937 763.805 60.8667 764.271 61.9206C765.9 60.6032 765.202 61.1302 766.831 61.1302C768.227 61.1302 769.391 61.1302 770.787 61.3937C770.322 61.9206 769.856 62.1841 769.391 62.4476L770.089 62.7111C770.554 62.9746 771.02 62.9746 771.485 62.9746C771.951 61.1302 772.183 61.1302 773.812 60.8667L776.605 60.3397C777.071 60.3397 778.932 60.6032 778.932 60.6032H779.165L780.096 60.8667H780.329L786.845 61.1302C786.147 63.7651 786.147 61.6571 785.449 64.2921C789.638 61.6571 788.474 60.8667 790.103 60.6032C791.732 60.3397 791.5 60.8667 791.965 61.6571C791.267 62.9746 791.5 62.9746 789.638 63.2381V64.819C791.267 65.0825 790.569 65.6095 791.732 64.5556C794.059 62.9746 792.896 60.8667 798.947 60.6032C799.179 61.6571 798.714 61.1302 799.412 61.6571H800.809C804.299 62.7111 803.834 61.9206 805.463 63.2381C806.394 61.1302 805.23 61.9206 806.859 60.6032C807.325 60.8667 807.79 61.1302 808.256 61.6571C808.954 62.1841 808.721 61.9206 809.652 62.1841C810.118 60.0762 809.885 60.6032 811.979 60.6032V61.6571H812.91C813.841 61.3937 813.376 61.3937 813.841 61.1302C816.168 60.8667 817.797 58.7587 818.728 61.1302C819.892 63.5016 818.728 60.6032 818.961 61.6571C819.427 64.5556 818.03 60.3397 818.961 62.4476C820.125 61.6571 819.427 61.9206 821.288 61.9206C821.754 60.6032 821.521 61.3937 821.288 59.8127C822.685 60.0762 821.754 59.8127 822.219 60.0762C823.15 60.8667 823.616 62.1841 823.616 63.5016L826.408 64.2921C827.339 64.819 825.943 64.5556 827.107 64.2921C828.27 64.0286 826.408 64.2921 828.037 64.0286C831.063 63.5016 829.667 65.346 834.321 62.7111L833.157 60.8667L833.39 60.6032C836.648 60.8667 839.906 61.3937 843.165 62.1841C842.699 62.4476 843.165 62.4476 842.234 62.7111H840.837L842.234 64.2921C844.794 65.6095 846.888 63.7651 849.215 63.7651C852.706 64.0286 848.285 64.819 852.241 64.819C853.637 64.819 854.335 64.0286 855.964 63.7651C856.197 65.0825 856.663 65.0825 857.361 65.873C856.197 65.6095 855.266 65.346 854.103 65.346V66.4C855.266 66.4 856.663 66.6635 857.826 66.927C857.826 62.9746 857.128 64.2921 856.43 61.6571C858.524 61.6571 864.11 60.3397 866.903 60.8667C870.859 61.9206 867.368 59.8127 871.092 60.8667C874.117 61.6571 873.419 60.8667 876.677 61.1302C879.935 61.3937 880.168 62.7111 884.124 62.7111C884.822 60.6032 883.659 62.7111 884.59 60.6032C885.521 60.8667 886.684 60.6032 887.615 60.3397C890.408 59.0222 893.433 58.2317 896.459 58.4952C896.226 59.0222 894.597 61.1302 897.622 60.3397L902.277 59.0222C902.51 59.5492 902.742 59.8127 902.975 60.3397L903.673 61.1302L906.466 61.9206C907.862 61.9206 906.931 61.9206 908.328 61.3937C908.793 62.9746 908.095 61.6571 909.259 62.9746C910.19 62.7111 909.724 63.2381 910.19 61.6571V61.3937L919.731 62.1841C919.731 62.1841 921.36 61.9206 921.826 61.9206C922.059 61.1302 922.291 62.1841 921.826 61.1302L921.36 60.0762C923.688 60.0762 922.757 60.6032 923.688 59.0222C922.059 58.4952 922.524 58.7587 921.826 57.4413C924.153 57.4413 925.084 56.9143 927.877 56.9143H934.393L934.858 54.8064C936.72 55.3333 937.651 54.8063 938.582 56.3873C934.626 56.3873 936.487 57.4413 932.531 57.4413L936.488 57.9683C937.418 59.8127 938.349 59.2857 941.84 57.9683C943.469 57.4413 942.306 57.4413 944.4 57.1778L956.735 58.2317C956.036 59.2857 956.269 58.7587 955.804 60.3397C952.546 60.3397 952.546 61.1302 953.011 58.7587H948.822C947.891 61.6571 947.193 59.0222 945.564 61.3937C949.753 61.6571 953.942 61.9206 958.131 61.6571H963.716C965.811 61.3937 967.905 61.6571 970 61.9206C969.302 60.3397 970 60.6032 970 57.7048L960.691 57.1778L962.32 56.1238C963.484 55.0698 962.553 56.3873 962.553 55.5968V55.3333C965.113 55.0698 967.44 54.8064 970 54.8064V0H0V54.2794C0.69812 53.7524 1.62903 53.7524 2.32715 54.2794C3.72351 55.0698 3.25806 55.0698 2.32715 56.3873C4.88721 56.3873 5.58545 56.1238 6.0509 58.4952C2.79272 56.3873 4.65454 58.4952 0.465454 58.4952V60.0762C4.18909 60.6032 -0.930908 62.1841 5.12 62.1841C6.28357 58.7587 7.91272 61.1302 6.98181 58.4952C8.37817 59.0222 8.14539 59.2857 8.61084 59.2857C10.0072 59.2857 7.91272 59.2857 9.77454 58.4952C11.4036 59.0222 13.2654 59.2857 14.8945 59.0222C15.5927 61.9206 16.2909 60.3397 19.5491 62.1841C20.0145 63.7651 19.3162 62.4476 20.4799 63.7651C21.6434 63.5016 21.178 63.7651 22.1089 62.4476L22.5745 62.1841L23.9707 60.3397C26.7634 57.9683 30.7197 61.3937 33.2798 60.0762C32.8143 61.6571 32.3489 61.6571 30.4871 61.6571V62.9746C33.7451 63.2381 30.0216 63.5016 33.2798 64.5556C33.7452 63.2381 33.0471 64.819 32.8143 62.4476L35.6071 61.9206C35.3744 65.6095 34.2107 65.346 38.6324 66.6635H38.8652L44.6833 67.7175C44.6833 67.7175 46.7778 67.1905 47.0106 66.927L48.6396 65.6095L50.2687 64.0286C53.2942 62.1841 56.7852 61.3937 60.276 61.6571C61.6724 61.6571 63.3014 61.6571 64.6978 61.3937V62.7111C65.6287 61.9206 65.6287 61.6571 66.7922 61.3937C67.9559 61.1302 68.1886 61.9206 68.8867 62.1841C70.5159 63.7651 69.1195 62.9746 71.4468 63.2381C72.8431 61.9206 72.145 62.9746 72.8431 60.0762C78.4286 59.5492 71.6794 59.2857 77.4977 60.6032H79.8248C80.2903 61.6571 79.5922 61.6571 80.7557 62.7111L81.2213 60.6032C86.1085 60.6032 84.4794 62.4476 87.2721 59.5492C89.1338 58.2317 91.4612 57.4413 93.7885 57.4413C93.7885 59.2857 92.6248 59.0222 97.9775 60.6032C97.5121 62.4476 97.2793 61.3937 96.5811 63.2381C98.2101 63.5016 99.8394 64.0286 101.468 64.5556C105.425 65.6095 101.468 64.2921 105.89 64.2921C105.89 63.5016 105.657 62.4476 105.425 61.6571C106.356 61.6571 107.286 61.3937 108.217 61.1302V60.0762C110.777 60.3397 110.079 61.1302 109.148 62.7111C110.079 62.7111 110.079 62.9746 110.777 62.4476C111.476 61.9206 111.01 61.9206 111.243 61.3937C111.476 60.8667 111.243 60.6032 112.406 59.8127C115.897 57.7048 119.388 60.8667 119.388 60.8667L122.646 59.8127C122.646 61.3937 122.646 60.8667 123.112 61.9206L124.974 61.1302H125.206C126.835 60.8667 128.464 61.1302 129.861 61.3937C129.395 61.9206 128.93 62.1841 128.464 62.4476L128.93 62.9746C129.396 63.2381 129.861 63.2381 130.094 63.2381C130.792 60.3397 131.723 61.6571 134.05 61.1302L143.592 61.9206C144.988 62.1841 142.195 61.9206 144.057 61.9206H144.755C145.453 61.6571 144.523 61.9206 145.919 61.3937C145.221 64.0286 145.221 61.9206 144.523 64.5556C145.686 64.0286 146.85 62.9746 147.781 61.9206C148.712 60.8667 148.013 61.1302 149.177 60.8667C150.573 60.6032 150.573 61.1302 151.272 61.9206C150.341 63.2381 150.806 63.2381 148.944 63.5016V64.5556C153.599 65.6095 149.41 60.6032 157.788 60.3397C158.021 61.1302 157.788 61.1302 158.486 61.6571H159.184L160.813 61.9206H161.046C163.373 62.1841 162.21 61.6571 163.839 62.9746C164.77 60.8667 163.606 61.6571 165.235 60.3397C165.701 60.6032 166.166 60.8667 166.631 61.3937C167.33 61.9206 167.097 61.6571 168.028 61.9206C168.493 59.8127 168.26 60.3397 170.355 60.3397L172.217 60.8667C174.544 60.6032 175.94 58.4952 177.104 60.8667C178.268 63.2381 177.104 60.3397 177.337 61.3937C178.035 64.2921 176.639 60.0762 177.337 62.1841C178.5 61.3937 177.802 61.6571 179.664 61.6571C180.13 60.3397 179.897 61.1302 179.664 59.5492C181.991 59.8127 179.664 58.2317 181.991 62.1841C180.828 62.1841 181.293 62.4476 180.828 62.4476L180.13 62.7111C176.871 63.7651 178.5 62.1841 177.104 64.0286C178.733 64.5556 180.13 64.5556 181.759 64.5556C182.224 63.2381 182.224 64.2921 181.759 62.9746H183.62L184.551 63.5016C185.482 64.0286 184.086 63.5016 186.18 63.2381C189.206 62.7111 187.809 64.5556 192.464 61.9206C192.231 60.6032 191.766 60.6032 191.068 59.8127C194.326 60.0762 197.584 60.6032 200.842 61.3937C200.377 61.6571 200.842 61.6571 199.911 61.9206H198.515L199.911 63.5016C202.471 64.819 204.566 62.9746 206.893 62.9746C210.384 63.2381 205.962 64.0286 210.151 64.0286C211.548 64.0286 212.246 63.2381 213.875 62.9746L215.271 65.0825C214.107 64.819 213.177 64.5556 212.013 64.5556V65.873C213.177 65.873 214.573 66.1365 215.737 66.4C215.737 62.4476 215.038 63.7651 214.34 61.1302C215.504 61.1302 216.9 61.1302 218.064 60.6032C220.624 60.0762 223.417 60.0762 225.977 60.6032C228.071 60.6032 225.977 60.3397 227.606 60.0762C228.536 60.0762 228.304 60.0762 229.002 60.3397C232.027 61.1302 231.329 60.3397 234.587 60.6032C237.846 60.8667 238.078 62.1841 242.035 62.1841C242.965 60.0762 241.802 62.1841 242.5 60.0762C243.431 60.3397 244.594 60.0762 245.525 59.8127L246.456 59.2857L247.155 60.0762C249.714 59.0222 252.275 58.7587 254.834 58.7587C254.602 60.3397 254.369 59.5492 254.834 60.8667C256.929 60.6032 255.998 59.8127 257.395 59.8127L259.954 59.2857C260.42 60.3397 261.118 60.8667 262.049 61.1302L262.282 61.3937C264.376 62.4476 263.911 61.9206 266.005 61.3937C266.703 62.9746 265.772 61.6571 266.936 62.9746C268.333 62.4476 266.936 63.2381 267.634 62.4476L267.867 61.3937L269.496 61.1302L273.453 61.3937V62.9746H275.314V62.7111C275.314 62.4476 275.314 62.4476 275.547 62.1841C275.547 61.6571 275.314 62.1841 275.78 61.3937C278.107 63.2381 276.245 61.9206 279.503 61.9206C279.736 61.1302 279.969 62.1841 279.503 61.1302L279.038 60.0762C280.9 60.0762 280.202 60.3397 281.365 59.5492C280.202 57.9683 280.667 59.0222 279.503 57.4413C282.063 57.9683 285.787 55.8603 289.511 57.1778L293.001 57.9683C292.769 59.8127 293.001 58.2317 292.769 59.2857C292.536 60.3397 292.769 58.7587 292.071 60.6032C293.7 60.8667 293.467 60.6032 294.398 61.6571C291.838 61.6571 282.761 60.6032 280.667 62.7111L308.361 61.9206C310.223 61.6571 312.55 61.9206 314.412 61.9206C315.11 61.9206 316.274 61.6571 316.74 61.6571L324.652 61.9206L323.256 63.5016C325.35 63.7651 327.212 63.7651 329.307 63.5016C331.401 62.9746 333.728 62.7111 335.823 62.9746C335.357 61.6571 335.357 62.7111 335.823 61.3937C332.565 62.1841 329.307 62.7111 326.048 62.4476H325.583C325.583 61.6571 327.678 60.3397 328.376 60.0762L334.194 58.2317C335.59 57.9683 336.987 57.9683 338.383 58.2317C338.616 56.9143 338.848 59.0222 338.15 57.7048C337.452 56.3873 337.685 58.2317 337.917 57.1778C339.314 56.3873 338.848 56.6508 340.71 56.6508C340.943 56.9143 340.943 57.1778 340.943 57.4413V58.2317C342.805 57.7048 341.641 57.4413 343.27 57.4413C343.968 57.4413 345.132 57.9683 346.296 58.2317C349.088 58.7587 347.459 57.9683 350.019 57.7048H351.881V60.3397C353.975 58.7587 353.743 57.7048 358.397 57.1778C358.63 59.0222 358.63 59.0222 360.259 59.2857C359.794 57.1778 357.699 56.1238 363.052 55.5968C363.983 57.1778 364.448 56.9143 364.914 59.2857H361.19C361.655 61.6571 363.052 61.3937 364.681 60.6032H364.914C365.612 60.3397 366.31 60.3397 367.008 60.3397C365.844 57.7048 366.543 58.2317 366.543 54.5429C369.568 54.5429 372.128 51.6444 374.223 53.7524L374.921 55.5968C377.946 55.8603 380.972 55.5968 383.764 55.0698C383.299 57.1778 382.833 56.6508 381.903 58.2317C383.997 58.7587 385.161 59.0222 385.161 55.5968C387.488 55.3333 386.324 55.0698 388.652 55.3333C390.048 55.5968 391.91 56.6508 393.306 56.1238C395.633 55.3333 392.375 56.3873 394.004 55.8603C394.237 55.8603 394.47 55.5968 394.935 55.3333C396.099 54.8063 397.262 54.5429 398.426 54.2794C398.426 54.2794 398.193 54.2794 398.193 54.0159C397.961 53.2254 398.193 54.2794 397.495 53.7524C396.797 53.2254 397.03 54.0159 396.564 52.6984C397.495 52.1714 398.193 51.6444 399.124 51.381C401.917 50.5905 401.452 52.1714 401.684 49.5365L410.062 49.0095C413.321 49.8 411.459 49.8 411.692 50.327C412.39 51.6444 411.692 51.381 412.39 53.2254C416.113 50.5905 413.786 52.4349 418.441 52.6984C423.095 52.9619 421.233 53.2254 421 53.7524L420.768 54.0159L420.07 55.8603C423.328 55.5968 419.604 55.5968 421.466 55.0698L423.095 55.5968H424.957L425.422 55.3333C426.353 55.0698 424.259 55.0698 426.819 54.8064L425.19 54.0159L424.957 53.7524C427.284 53.4889 426.12 53.2254 428.913 53.4889C433.8 54.0159 432.171 51.6444 440.549 53.7524C441.48 54.2794 442.644 54.2794 443.808 54.2794C445.902 54.5429 445.204 54.8063 447.066 55.3333C446.833 58.2317 445.669 57.9683 443.808 58.4952C441.713 59.2857 439.386 59.8127 437.291 59.5492C437.757 59.8127 437.291 59.8127 438.455 60.0762C439.619 60.3397 438.688 60.0762 439.851 60.0762C443.342 59.8127 446.833 60.3397 448.695 59.0222C450.557 57.7048 448.229 58.7587 450.324 58.2317V56.1238H448.462C449.393 54.5429 448.462 55.8603 449.393 55.3333C452.418 54.0159 463.589 54.5429 467.313 54.5429V52.6984C469.873 52.6984 472.433 52.1714 474.76 51.6444C473.829 55.3333 472.898 51.6444 469.64 54.2794C470.804 54.2794 471.967 54.2794 473.131 54.5429C474.295 54.8063 474.295 54.2794 474.76 55.8603C475.924 56.6508 475.924 57.1778 477.087 56.3873C477.32 55.3333 477.087 55.5968 477.553 54.8064L479.647 55.0698C483.836 56.1238 481.509 52.9619 489.887 56.1238C491.516 56.6508 489.654 56.3873 491.516 56.9143L492.913 55.8603C493.844 56.6508 493.611 56.9143 495.24 56.9143C496.404 56.9143 496.404 56.6508 498.033 56.3873C502.222 56.1238 501.523 56.3873 503.618 57.9683C503.153 55.3333 503.385 57.1778 503.618 56.3873L512.229 56.1238C515.487 56.1238 511.531 57.1778 514.789 56.6508C518.047 56.1238 515.254 54.0159 519.211 56.1238C522.702 57.9683 520.142 55.3333 524.331 55.0698C524.331 59.0222 521.771 58.4952 521.538 61.9206C522.469 61.6571 527.589 57.1778 528.054 55.5968C531.778 55.5968 528.752 56.1238 532.476 55.3333C534.571 54.8063 534.338 55.8603 535.967 57.1778C537.363 55.8603 538.76 54.8063 540.389 54.2794C543.647 53.4889 545.043 55.5968 545.276 51.9079C547.603 52.9619 544.81 52.1714 547.138 52.9619C548.069 50.5905 546.905 50.854 549.93 50.854C549.232 51.9079 548.069 53.4889 549.698 55.0698C550.396 55.8603 550.861 55.8603 551.327 55.3333C552.258 54.2794 551.56 55.5968 551.56 54.5429L551.094 53.4889C553.189 54.0159 553.654 55.5968 555.05 55.8603C556.912 56.1238 559.007 55.8603 560.869 55.5968V56.1238C560.869 56.9143 560.403 55.3333 560.869 56.9143C561.101 57.4413 560.869 57.7048 562.498 57.9683C563.196 56.3873 562.73 56.1238 563.196 54.5429C563.428 53.4889 564.127 53.2254 564.825 52.1714C565.756 53.2254 567.152 53.7524 568.548 53.7524L567.152 55.3333C569.479 54.8063 568.548 55.3333 571.341 55.3333C571.341 54.5429 571.109 53.4889 570.876 52.6984C574.367 52.6984 573.436 51.9079 575.996 51.6444C575.996 53.7524 576.228 53.2254 575.53 54.8064C578.09 54.8064 579.487 55.3333 580.65 53.7524C579.487 53.7524 578.556 54.0159 577.392 54.2794C578.323 50.5905 579.719 53.7524 583.676 52.4349C586.003 51.3809 588.563 51.381 590.89 52.1714C591.588 55.3333 591.123 53.4889 590.89 56.3873C591.588 56.1238 592.286 55.8603 592.985 55.3333C594.846 54.5429 594.614 55.0698 595.079 55.0698C598.337 54.8063 596.01 54.2794 596.708 52.1714C599.036 52.4349 597.406 52.6984 599.501 54.2794C601.595 55.8603 600.432 54.0159 601.828 56.9143C599.036 56.1238 600.897 56.9143 598.105 57.4413H582.745V58.4952C586.003 58.4952 585.77 59.2857 588.33 59.5492L598.105 60.0762C599.966 60.3397 600.897 61.3937 602.992 60.0762C603.457 59.8127 601.595 60.0762 603.923 59.5492H605.785C605.785 59.8127 605.552 60.6032 605.319 60.6032C605.086 61.9206 604.854 60.6032 605.319 61.6571C606.483 60.8667 605.785 61.1302 607.646 61.1302C608.81 62.7111 609.275 61.1302 609.741 60.8667C611.137 59.8127 609.508 60.0762 611.835 60.3397C614.163 60.6032 626.032 61.1302 626.963 59.5492V59.0222L627.195 59.2857L627.661 59.0222L628.359 58.7587C623.704 58.7587 622.308 57.7048 614.163 57.7048C614.628 55.8603 616.257 54.5429 617.886 54.5429C620.679 54.5429 618.352 56.1238 623.006 55.0698C623.006 58.2317 622.773 56.6508 623.937 57.1778C624.403 55.8603 624.17 55.8603 623.472 54.5429L630.453 54.2794H633.013C633.246 54.2794 633.013 54.0159 634.177 54.2794C635.341 54.5429 634.875 54.5429 635.108 54.5429C636.97 55.0698 636.039 54.5429 637.203 54.5429C637.901 54.2794 638.599 54.5429 639.064 55.0698C640.228 56.1238 639.995 54.8064 638.832 56.9143C641.392 56.9143 642.09 56.6508 642.555 59.0222C640.693 57.9683 641.391 57.9683 639.762 58.4952H639.53L638.366 58.7587C636.97 59.2857 637.435 58.4952 636.97 59.8127C636.504 61.1302 636.504 59.2857 637.435 60.3397C639.995 62.9746 638.366 62.4476 641.624 62.4476C642.555 59.0222 644.417 61.3937 643.486 58.7587C644.882 59.2857 644.65 59.5492 645.348 59.5492C646.744 59.5492 644.65 59.5492 646.512 58.7587C648.141 59.2857 650.002 59.5492 651.631 59.2857C652.097 61.3937 653.726 61.9206 656.286 61.9206V62.1841L662.57 64.0286L665.362 60.6032C667.689 58.4952 671.879 60.8667 674.206 60.8667C673.275 62.4476 674.206 61.9206 671.879 61.9206V62.7111C675.137 62.9746 671.413 63.2381 674.671 64.2921C675.137 62.9746 674.439 64.5556 674.206 62.1841L676.999 61.6571C676.999 63.7651 674.904 65.873 681.653 66.6635C691.66 67.981 687.006 65.346 692.359 63.2381L693.522 62.9746C701.667 60.0762 697.013 61.9206 706.089 61.1302V62.7111C707.02 61.9206 707.02 61.6571 708.184 61.3937H709.115C709.347 61.3937 709.58 61.6571 709.813 61.6571L710.511 62.4476Z" fill="white"/>
<path d="M478.484 56.3873C476.622 56.3873 476.389 56.1238 474.295 55.8603C468.942 55.5968 475.226 55.0698 471.036 54.8064V55.8603C464.055 56.1238 471.269 54.5429 463.124 56.3873C461.727 56.6508 460.331 57.1778 458.935 57.1778C457.073 57.1778 456.607 55.5968 455.211 57.9683C457.306 58.2317 456.84 58.7587 459.4 58.2317C460.797 58.2317 461.96 58.2317 463.124 57.9683V56.9143C464.753 57.4413 463.822 57.4413 465.218 57.9683H467.778C468.244 58.7587 467.778 58.7587 468.942 59.0222H471.502C471.502 58.7587 471.269 58.7587 471.502 56.9143L478.484 56.3873ZM909.259 73.5143C906.699 72.1968 903.673 72.4603 901.346 74.3048L899.95 75.3587C901.811 75.8857 903.673 76.1492 905.535 76.4127C907.862 76.6762 908.561 75.3587 909.259 73.5143ZM267.867 73.5143C264.842 71.9333 264.842 72.4603 261.351 73.7778L258.325 75.6222C260.187 76.1492 262.049 76.4127 263.911 76.6762C266.471 76.6762 267.169 75.3587 267.867 73.5143ZM872.023 74.5683C871.092 70.6159 869.695 75.3587 868.764 71.4063H866.903L867.135 73.5143C867.833 76.4127 869.928 74.0413 872.023 74.5683ZM230.864 74.5683C229.933 70.6159 228.536 75.3587 227.606 71.4063H225.744C225.744 72.1968 225.511 75.0952 227.606 75.0952C229.7 75.0952 228.071 74.0413 230.864 74.5683ZM583.21 58.2317C581.116 58.2317 581.581 57.7048 579.952 57.7048C578.788 57.9683 577.392 57.9683 576.229 58.2317V59.2857C581.814 59.8127 581.814 60.6032 583.21 58.2317ZM823.848 64.0286C820.823 62.9746 825.477 64.0286 822.452 62.9746C821.987 64.2921 822.685 63.7651 821.521 64.0286H819.194V65.0825C820.823 65.6095 822.219 65.6095 823.848 65.6095C824.314 64.2921 824.314 65.346 823.848 64.0286ZM932.298 68.7714C931.135 67.981 930.669 68.2444 928.575 68.2444C927.179 68.2444 927.644 68.5079 927.179 69.2984C928.342 69.8254 932.298 70.6159 932.298 68.7714ZM291.14 68.7714C289.976 67.981 289.51 68.2444 287.416 68.2444C286.02 68.2444 286.485 68.5079 286.02 69.2984C286.951 69.8254 290.674 70.6159 291.14 68.7714ZM252.042 76.6762V76.1492L248.318 75.6222C247.62 77.7302 248.551 76.4127 245.525 76.1492V77.2032C248.318 77.2032 249.249 76.6762 252.042 76.6762ZM893.201 76.6762V76.1492L889.477 75.6222C888.779 77.7302 889.71 76.4127 886.684 76.1492V77.2032C889.71 77.2032 890.641 76.6762 893.201 76.6762ZM244.827 76.1492H239.242C240.173 77.7302 239.242 77.2032 241.569 77.2032H244.827V76.1492ZM886.219 76.1492H880.633C881.564 77.7302 880.633 77.2032 882.961 77.2032H886.219V76.1492ZM649.77 75.0952C651.399 77.7302 652.33 77.7302 654.89 79.3111C654.424 77.4667 654.424 77.7302 652.795 76.9397C651.864 76.1492 650.701 75.6222 649.77 75.0952ZM8.61084 75.0952C10.2399 77.7302 11.1708 77.7302 13.7308 79.3111C13.2654 77.4667 13.2653 77.7302 11.6362 76.9397C10.7053 76.1492 9.54175 75.6222 8.61084 75.0952ZM440.317 53.7524V54.8064L439.851 55.8603C442.411 56.6508 441.946 57.4413 443.109 54.8064C441.48 54.2794 441.713 54.0159 440.317 53.7524ZM245.293 65.6095C243.198 65.0825 242.733 64.2921 242.035 66.6635C242.965 66.927 245.293 68.2444 245.293 65.6095ZM886.684 65.6095C884.59 65.0825 883.891 64.2921 883.426 66.6635C884.357 66.927 886.684 68.2444 886.684 65.6095ZM201.773 68.7714L197.119 68.2444V69.2984C199.679 69.2984 199.678 69.8254 201.773 69.8254V68.7714ZM210.384 71.9333L210.617 72.1968L212.013 73.5143C213.177 74.3048 214.573 74.0413 215.504 73.2508C213.875 72.4603 212.246 71.9333 210.384 71.9333ZM851.776 71.9333L852.008 72.4603L853.87 73.5143C856.197 74.0413 856.43 72.9873 856.663 72.9873C855.266 72.4603 853.405 71.9333 851.776 71.9333ZM235.518 76.1492C229.002 76.1492 228.769 75.0952 226.675 77.2032L235.518 76.1492ZM876.677 76.1492C873.186 76.1492 869.928 75.6222 868.532 76.4127C867.135 77.4667 868.299 76.6762 867.833 77.2032L876.677 76.1492ZM380.739 60.3397C377.946 60.3397 377.248 60.8667 374.688 60.8667V61.3937C377.015 61.3937 379.575 61.9206 380.739 60.3397ZM377.481 62.4476C375.386 62.4476 374.921 62.9746 372.361 62.9746V63.5016H377.481V62.4476ZM408.666 51.1175C406.804 51.1175 406.804 50.854 405.408 51.6444C405.873 52.4349 405.408 52.6984 406.804 52.6984C408.201 52.6984 408.433 51.9079 408.666 51.1175ZM416.579 59.8127C414.717 59.8127 415.415 59.2857 413.321 59.2857C411.924 59.2857 412.39 59.5492 411.924 60.3397H416.579V59.8127ZM865.041 72.9873C864.11 72.7238 863.179 72.4603 862.248 72.4603C863.179 74.0413 862.946 74.0413 865.041 74.0413V72.9873ZM223.649 72.9873C222.718 72.7238 221.787 72.4603 220.857 72.4603C221.787 74.0413 221.555 74.0413 223.649 74.0413V72.9873ZM234.587 70.8794C233.656 70.6159 232.493 71.1429 231.795 71.9333C232.26 72.7238 232.027 72.4603 232.26 73.5143L234.587 70.8794ZM875.746 70.8794C874.815 70.6159 873.652 71.1429 872.953 71.9333C873.186 72.4603 873.419 72.9873 873.419 73.5143L875.746 70.8794ZM849.914 66.6635H846.19C846.655 66.927 846.423 66.927 846.888 67.454C847.354 67.981 849.681 67.981 849.914 66.6635ZM208.522 66.6635H204.798C205.031 66.927 204.798 66.927 205.497 67.454C206.195 67.981 208.522 67.981 208.522 66.6635ZM489.655 57.7048C486.629 57.7048 486.396 56.6508 485.465 58.2317H489.655V57.7048ZM210.384 71.9333L211.082 70.8794H208.057V71.9333H210.384ZM851.776 71.9333L852.241 70.8794H849.448V71.9333H851.776ZM639.297 58.2317C636.97 58.2317 637.435 57.7048 636.504 59.2857H639.297V58.2317ZM30.2544 63.5016C28.6252 63.7651 28.6252 63.7651 28.3926 65.6095C30.0216 65.0825 29.7889 65.346 30.2544 63.5016ZM671.413 63.5016C669.784 63.7651 669.784 63.7651 669.551 65.6095C671.18 65.0825 670.948 65.346 671.413 63.5016ZM239.242 72.9873C237.38 73.2508 237.845 72.7238 237.38 74.5683H239.242V72.9873ZM880.633 72.9873C878.771 73.2508 879.237 72.7238 878.772 74.5683H880.633V72.9873ZM830.365 66.6635C828.968 66.6635 829.434 66.927 828.968 67.7175H832.459C831.063 66.6635 831.528 66.6635 830.365 66.6635ZM189.206 66.6635C187.809 66.6635 188.275 66.927 187.81 67.7175H191.068C190.602 67.454 190.835 67.454 190.37 66.927C189.904 66.4 191.068 66.6635 189.206 66.6635ZM161.512 63.5016L159.184 64.0286V66.1365L161.512 63.5016ZM802.67 63.5016L800.343 64.0286V66.1365L802.67 63.5016ZM13.2654 61.9206C12.1018 60.3397 12.1017 60.3397 10.4727 60.8667L11.4036 61.6571L11.6362 61.9206C11.8689 61.9206 12.7999 62.4476 13.2654 61.9206ZM137.541 70.3524H135.679V71.4063L137.541 71.9333V70.3524ZM803.136 72.4603L802.205 71.9333C800.809 71.9333 801.274 72.1968 800.809 72.9873C801.74 73.2508 802.903 74.0413 803.136 72.4603ZM161.977 72.4603L161.046 71.9333C159.65 71.9333 160.115 72.1968 159.65 72.9873C160.348 73.2508 161.744 74.0413 161.977 72.4603ZM886.684 72.4603H884.357V71.4063H886.684V72.4603ZM245.293 72.4603H242.965V71.4063H245.293V72.4603Z" fill="white"/>
<path d="M440.317 54.8064H435.662V54.2794H440.317V54.8064ZM840.837 69.2984H838.51V68.2444H840.837V69.2984ZM654.657 61.9206C653.726 60.3397 653.493 60.3397 651.864 60.8667L652.097 61.1302L653.726 62.1841C653.959 62.1841 654.424 62.1841 654.657 61.9206ZM360.492 63.5016L357.699 62.9746V64.0286H360.492V63.5016ZM776.605 63.5016C774.743 63.7651 775.209 63.2381 774.743 65.0825H776.605C776.372 64.0286 776.14 64.5556 776.605 63.5016ZM225.046 74.5683C223.184 76.1492 225.278 76.1492 222.718 76.1492V76.6762H225.046V74.5683ZM866.437 74.5683C864.575 76.1492 866.67 76.1492 864.11 76.1492V76.6762H866.437V74.5683ZM466.615 58.7587L464.055 59.0222C463.357 59.2857 463.589 59.2857 463.357 59.8127C464.753 59.8127 466.382 60.0762 466.615 58.7587ZM297.889 64.5556H293.7V64.0286H297.889V64.5556ZM734.249 58.7587H731.456C731.689 59.0222 734.016 61.1302 734.249 58.7587ZM222.02 68.2444H219.693V69.2984C221.089 69.2984 222.02 69.5619 222.02 68.2444ZM863.645 68.2444H861.317V69.2984C862.481 69.2984 863.412 69.5619 863.645 68.2444ZM423.561 71.9333H421.233C422.164 73.5143 421.233 72.9873 423.561 72.9873V71.9333ZM700.737 54.8064C699.806 54.8064 700.038 54.5429 698.875 55.8603H701.667C701.435 55.3333 701.435 54.8064 700.737 54.8064ZM59.345 54.8064C58.1814 54.8064 58.6469 54.5429 57.4833 55.8603H60.276C60.0433 55.3333 60.0432 54.8064 59.345 54.8064ZM135.214 63.5016C133.119 63.7651 134.283 62.9746 133.352 64.5556C133.817 64.819 134.515 65.0825 135.214 65.0825C134.981 64.0286 134.748 64.5556 135.214 63.5016ZM862.714 76.6762H858.99V76.1492H862.714V76.6762ZM221.322 76.6762H217.598V76.1492H221.322V76.6762ZM818.263 71.4063H816.401V70.3524H818.263V71.4063ZM176.871 71.4063H175.01V70.3524H176.871V71.4063ZM843.165 69.8254H841.303V68.7714H843.165V69.8254ZM411.924 54.2794H410.062V53.2254H411.924V54.2794ZM198.049 71.4063H195.722C195.955 71.9333 195.955 72.4603 196.653 72.4603C197.351 72.4603 198.049 72.1968 198.049 71.4063ZM92.8575 58.7587H90.5303C90.7631 59.2857 90.7631 59.8127 91.4612 59.8127C92.1594 59.8127 92.6248 59.5492 92.8575 58.7587ZM839.441 71.4063H837.114C837.346 71.9333 837.579 72.4603 838.045 72.4603C838.51 72.4603 839.441 72.1968 839.441 71.4063ZM182.457 74.5683H180.13C180.362 74.8317 180.13 74.8317 180.828 75.3587C181.991 75.8857 181.06 75.6222 182.457 75.6222V74.5683ZM823.848 74.5683H821.521C821.987 74.8317 821.521 74.8317 822.219 75.3587C823.383 75.8857 822.452 75.6222 823.848 75.6222V74.5683ZM902.277 60.8667H899.95C900.415 61.1302 899.95 61.1302 900.648 61.6571C901.811 61.9206 901.113 61.6571 902.277 61.9206V60.8667ZM419.371 54.8064V55.8603H421.699C421.466 55.5968 421.699 55.5968 421 55.0698C419.837 54.5429 420.768 54.8064 419.371 54.8064ZM777.071 70.3524C777.536 71.6698 777.07 71.4063 778.932 71.9333C778.001 69.5619 779.398 70.6159 777.071 70.3524ZM635.341 58.2317H632.082V57.7048H635.341V58.2317ZM462.426 59.8127H459.167V59.2857H462.426V59.8127ZM260.885 60.8667H258.558V61.3937C259.256 61.3937 260.187 61.6571 260.885 61.9206V60.8667ZM737.507 63.5016H735.646V64.5556C736.809 64.2921 737.274 64.5556 737.507 63.5016ZM282.296 81.946C280.202 82.2095 281.365 81.419 280.434 83H282.296V81.946ZM923.688 81.946C921.593 82.2095 922.989 81.419 921.826 83H923.688V81.946ZM138.704 70.3524V71.4063H140.566C139.635 69.8254 141.032 70.6159 138.704 70.3524ZM780.096 70.3524V71.4063H781.958C780.794 69.8254 782.19 70.6159 780.096 70.3524ZM346.296 70.8794H344.899C345.365 72.4603 344.201 71.1429 346.296 72.4603V70.8794ZM94.4866 64.5556C96.5812 64.2921 95.4175 65.0825 96.3484 63.5016C93.5557 63.5016 94.952 63.2381 94.4866 64.5556ZM834.786 68.2444H833.39V67.1905H834.786V68.2444ZM103.796 72.9873H102.399V71.9333H103.796V72.9873ZM193.395 68.2444H191.999V67.1905H193.395V68.2444ZM417.51 55.3333H414.717V54.8064H417.51V55.3333ZM783.82 64.0286C782.191 63.7651 782.423 62.9746 781.958 65.0825L782.889 64.5556C783.82 64.0286 783.121 64.5556 783.82 64.0286ZM142.661 64.0286C141.032 63.7651 141.264 62.9746 140.799 65.0825C141.032 65.0825 141.73 64.819 141.73 64.5556C142.661 64.0286 141.963 64.5556 142.661 64.0286ZM807.325 69.8254C808.256 71.4063 807.092 70.6159 809.187 70.8794C808.023 69.2984 809.419 70.0889 807.325 69.8254ZM403.313 66.6635C404.477 68.2444 403.081 67.454 405.175 67.7175C404.244 66.1365 405.408 66.927 403.313 66.6635ZM166.166 69.8254C167.33 71.4063 165.933 70.6159 168.028 70.8794C166.864 69.2984 168.261 70.0889 166.166 69.8254ZM887.615 66.1365H889.477C888.546 64.5556 888.546 64.5556 887.615 66.1365ZM246.224 66.1365H248.085C247.155 64.5556 247.155 64.5556 246.224 66.1365ZM139.635 62.9746C138.937 62.9746 139.17 62.7111 138.472 63.2381C136.843 64.0286 137.773 63.5016 137.308 64.0286C138.704 63.7651 139.17 63.7651 139.635 62.9746ZM457.306 56.3873H454.979V55.8603H457.306V56.3873ZM736.576 60.3397H735.18V61.3937C735.878 61.1302 736.344 61.1302 736.576 60.3397ZM95.4175 60.3397H94.0212V61.3937C94.7194 61.1302 95.1848 61.1302 95.4175 60.3397ZM745.187 71.9333H743.791V72.9873C744.722 72.7238 744.954 72.9873 745.187 71.9333ZM429.844 59.8127C430.309 61.3937 429.844 60.8667 431.24 61.3937C430.31 59.2857 431.473 60.3397 429.844 59.8127ZM480.811 56.9143V58.2317H482.673C482.207 57.9683 482.906 58.2317 481.742 57.7048L480.811 56.9143ZM845.492 69.2984C844.095 69.5619 844.794 69.2984 844.096 70.3524H845.492V69.2984ZM478.484 57.7048C477.087 57.9683 477.786 57.7048 477.087 58.7587H478.484V57.7048ZM204.1 69.2984C202.704 69.5619 203.402 69.2984 202.704 70.3524H204.1V69.2984ZM684.679 54.2794H683.282C683.98 55.3333 683.282 55.0698 684.679 55.3333V54.2794ZM43.287 54.2794H41.8906C42.5887 55.3333 41.8906 55.0698 43.287 55.3333V54.2794ZM780.562 62.9746C779.631 63.2381 780.561 62.7111 779.398 63.2381L778.7 64.0286C779.63 63.7651 780.329 64.0286 780.562 62.9746ZM75.6357 60.8667C74.705 61.1302 75.6357 60.6032 74.4722 61.1302C73.7739 61.3937 74.0067 61.3937 73.7739 61.9206C74.7048 61.6571 75.4031 61.9206 75.6357 60.8667ZM716.795 60.8667C715.864 61.1302 716.795 60.6032 715.631 61.1302L714.933 61.9206C715.864 61.6571 716.562 61.9206 716.795 60.8667ZM959.295 81.419H957.433V80.8921H959.295V81.419ZM293.001 60.8667H291.14V60.3397H293.001V60.8667ZM318.136 81.419H316.274V80.8921H318.136V81.419ZM934.393 60.8667H932.531V60.3397H934.393V60.8667ZM395.401 60.3397H393.539V59.8127H395.401V60.3397ZM213.409 74.5683H211.547V74.0413H213.409V74.5683ZM176.871 61.9206H175.01V61.3937H176.871V61.9206ZM818.263 61.9206H816.401V61.3937H818.263V61.9206ZM854.801 74.5683H852.939V74.0413H854.801V74.5683ZM407.735 58.7587H405.873V58.2317H407.735V58.7587ZM662.57 65.6095C661.173 66.927 661.871 65.346 661.639 67.7175C661.871 67.454 661.871 67.7175 662.337 66.927C662.802 65.6095 662.337 66.4 662.57 65.6095ZM21.178 65.6095C19.7816 66.927 20.48 65.346 20.2472 67.7175C20.48 67.454 20.4797 67.7175 20.9452 66.927C21.4106 65.6095 20.9453 66.4 21.178 65.6095ZM94.4866 64.5556C93.0902 64.819 93.7883 64.5556 93.0902 65.6095C95.4175 65.346 93.7885 66.1365 94.4866 64.5556Z" fill="white"/>
<path d="M482.673 58.2317C482.906 58.2317 482.207 59.2857 483.604 58.4952C485 57.7048 483.604 59.0222 484.069 57.7048C482.905 57.9683 483.836 57.7048 482.673 58.2317ZM734.249 65.6095H735.646C734.482 64.0286 735.18 64.0286 734.249 65.6095ZM92.392 64.0286H93.7885C92.6248 62.4476 93.5557 62.4476 92.392 64.0286ZM733.784 64.0286H735.18C734.016 62.4476 734.714 62.4476 733.784 64.0286ZM200.377 64.0286L199.446 65.0825C202.006 65.0825 200.144 65.0825 200.842 64.5556L200.377 64.0286ZM841.768 64.0286L840.837 64.819C843.397 64.819 841.536 64.819 842.234 64.2921L841.768 64.0286ZM897.855 71.9333C896.459 72.1968 897.157 71.9333 896.459 72.9873C897.39 72.7238 897.855 72.9873 897.855 71.9333ZM177.337 65.0825C175.941 65.346 176.639 65.0825 175.941 66.1365C176.871 65.873 177.104 66.1365 177.337 65.0825ZM818.728 65.0825C817.332 65.346 818.03 65.0825 817.332 66.1365C818.263 65.873 818.496 66.1365 818.728 65.0825ZM256.696 71.9333C255.3 72.1968 255.998 71.9333 255.3 72.9873C256.231 72.7238 256.696 72.9873 256.696 71.9333ZM412.39 51.6444H410.993V51.1175H412.39V51.6444ZM853.172 76.6762H851.776V76.1492H853.172V76.6762ZM436.128 59.2857H434.731V58.7587H436.128V59.2857ZM776.605 62.9746H775.209V62.4476H776.605V62.9746ZM946.262 69.2984H944.866V68.7714H946.262V69.2984ZM304.87 69.2984H303.474V68.7714H304.87V69.2984ZM212.013 76.6762H210.617V76.1492H212.013V76.6762ZM135.214 62.9746H133.817V62.4476H135.214V62.9746ZM688.868 54.8064H687.471V54.2794H688.868V54.8064ZM242.965 74.0413H241.569V73.5143H242.965V74.0413ZM884.357 74.0413H882.961V73.5143H884.357V74.0413ZM47.4761 54.8064H46.0797V54.2794H47.4761V54.8064ZM17.4545 82.473H16.0581V81.946H17.4545V82.473ZM383.997 61.9206H382.601V61.3937H383.997V61.9206ZM658.846 82.473H657.45V81.946H658.846V82.473ZM806.394 65.0825H804.998V64.5556H806.394V65.0825ZM585.537 58.7587H584.141V58.2317H585.537V58.7587ZM165.235 65.0825H163.839V64.5556H165.235V65.0825ZM285.089 57.7048L286.485 58.7587C286.02 57.1778 287.416 57.7048 285.089 57.7048ZM2.32715 69.8254C2.7926 71.4063 1.39636 70.6159 3.72363 70.8794C3.72363 70.8794 3.49084 70.8794 3.49084 70.6159C3.49084 70.3524 3.25818 70.3524 3.25818 70.3524C3.25818 70.3524 2.55994 70.0889 2.32715 69.8254ZM538.76 70.3524C539.458 71.4063 538.76 71.1429 540.156 71.4063C539.458 70.0889 540.156 70.8794 538.76 70.3524ZM643.719 69.8254C644.184 71.4063 642.788 70.6159 645.115 70.8794C645.115 70.8794 644.882 70.8794 644.882 70.6159L643.719 69.8254ZM250.645 71.4063C250.645 70.8794 249.715 70.3524 249.947 71.4063C249.947 71.6698 250.878 72.7238 250.645 71.4063ZM891.804 71.4063C891.804 70.8794 890.873 70.3524 891.106 71.4063C891.339 71.6698 892.037 72.7238 891.804 71.4063ZM182.457 65.6095C182.69 66.927 182.224 66.4 183.388 66.6635C183.388 65.346 183.853 66.1365 182.457 65.6095ZM823.848 65.6095C824.081 66.927 823.616 66.4 824.779 66.6635C824.547 65.346 825.012 66.1365 823.848 65.6095ZM764.271 62.4476C763.805 61.9206 762.641 63.2381 763.805 62.7111C763.805 62.7111 765.434 63.2381 764.271 62.4476ZM428.215 57.7048C427.75 57.1778 426.586 58.4952 427.75 57.9683C427.75 57.9683 429.379 58.4952 428.215 57.7048ZM475.226 57.7048C474.76 57.1778 473.596 58.4952 474.76 57.9683C474.76 57.9683 476.156 58.4952 475.226 57.7048ZM85.4103 62.4476C84.9448 61.9206 83.7811 63.2381 84.9448 62.7111C84.712 62.7111 86.1085 63.2381 85.4103 62.4476ZM707.253 63.5016C706.787 62.9746 705.624 64.2921 706.787 63.7651C706.787 63.7651 708.184 64.2921 707.253 63.5016ZM798.481 61.9206C798.016 61.3937 796.852 62.7111 798.016 62.1841C797.783 62.1841 799.179 62.7111 798.481 61.9206ZM929.739 66.6635C929.273 66.1365 928.109 67.454 929.273 66.927C929.04 66.927 930.437 67.454 929.739 66.6635ZM439.851 60.3397C439.386 59.8127 438.222 61.1302 439.386 60.6032C439.153 60.6032 440.549 61.1302 439.851 60.3397ZM157.09 61.9206C156.624 61.3937 155.461 62.7111 156.624 62.1841C156.392 62.1841 157.788 62.7111 157.09 61.9206ZM65.8613 63.5016C65.3959 62.9746 64.2322 64.2921 65.3959 63.7651C65.3959 63.7651 66.7922 64.2921 65.8613 63.5016ZM259.489 65.0825C259.023 64.5556 257.86 65.873 259.024 65.346C259.024 65.346 260.42 65.873 259.489 65.0825ZM900.881 65.0825C900.415 64.5556 899.251 65.873 900.415 65.346C900.415 65.346 901.812 65.873 900.881 65.0825ZM170.821 66.6635C170.355 66.1365 169.191 67.454 170.355 66.927C170.355 66.927 171.519 67.454 170.821 66.6635ZM411.924 60.8667C411.459 60.3397 410.295 61.6571 411.459 61.1302C411.459 61.1302 412.622 61.6571 411.924 60.8667ZM791.965 62.4476C791.5 61.9206 790.103 63.2381 791.267 62.7111C791.267 62.7111 792.663 63.2381 791.965 62.4476ZM123.112 62.4476C122.646 61.9206 121.483 63.2381 122.646 62.7111C122.646 62.7111 124.043 63.2381 123.112 62.4476ZM431.939 54.2794C431.473 53.7524 430.309 55.0698 431.473 54.5429C431.24 54.5429 432.637 55.0698 431.939 54.2794ZM726.802 62.4476C726.336 61.9206 725.173 63.2381 726.336 62.7111C726.104 62.7111 727.5 63.2381 726.802 62.4476ZM150.573 62.4476C150.108 61.9206 148.944 63.2381 150.108 62.7111C149.875 62.7111 151.272 63.2381 150.573 62.4476ZM373.757 60.8667C373.292 60.3397 372.128 61.6571 373.292 61.1302C373.292 61.1302 374.455 61.6571 373.757 60.8667ZM492.913 56.9143C492.447 56.3873 491.284 57.7048 492.447 57.1778C492.447 57.1778 493.844 57.9683 492.913 56.9143ZM812.212 66.6635C811.747 66.1365 810.583 67.454 811.747 66.927C811.747 66.927 812.91 67.454 812.212 66.6635ZM288.347 66.6635C287.881 66.1365 286.718 67.454 287.881 66.927C287.649 66.927 289.045 67.454 288.347 66.6635ZM350.95 63.5016C350.485 62.9746 349.321 64.2921 350.485 63.7651C350.485 63.7651 351.881 64.2921 350.95 63.5016ZM408.666 59.8127C408.201 59.2857 407.037 60.6032 408.201 60.0762C408.201 60.0762 409.597 60.6032 408.666 59.8127ZM77.0321 61.3937C76.5667 60.8667 75.4031 62.1841 76.5667 61.6571C76.334 61.6571 77.7303 62.1841 77.0321 61.3937ZM411.924 50.0635C411.459 49.5365 410.295 50.854 411.459 50.327C411.459 50.327 412.622 50.854 411.924 50.0635ZM339.081 61.3937C338.616 60.8667 337.452 62.1841 338.616 61.6571C338.616 61.6571 340.245 62.1841 339.081 61.3937ZM718.191 61.3937C717.725 60.8667 716.562 62.1841 717.726 61.6571C717.493 61.6571 718.889 62.1841 718.191 61.3937ZM354.441 62.4476C354.441 61.9206 353.51 61.1302 353.743 62.4476C353.976 63.7651 352.579 62.4476 353.976 62.7111C354.441 62.7111 354.441 63.5016 354.441 62.4476ZM80.9885 65.0825C80.9885 64.5556 80.0575 63.7651 80.2903 65.0825C80.5229 66.4 79.1267 65.0825 80.5229 65.346C81.2212 65.346 80.9885 66.1365 80.9885 65.0825ZM722.613 65.0825C722.613 64.5556 721.682 63.7651 721.915 65.0825C722.147 66.4 720.751 65.0825 722.147 65.346C722.613 65.346 722.613 66.1365 722.613 65.0825ZM935.789 60.3397C935.789 59.8127 934.858 59.0222 935.091 60.3397C935.324 61.6571 933.928 60.3397 935.324 60.6032C935.789 60.6032 935.789 61.3937 935.789 60.3397ZM218.064 62.9746C218.064 62.7111 217.598 62.9746 217.598 62.9746C217.598 62.9746 216.667 61.6571 217.366 62.9746C217.133 62.9746 218.064 64.0286 218.064 62.9746ZM229.002 63.5016C229.002 63.2381 228.536 63.5016 228.536 63.5016C228.536 63.5016 227.606 62.1841 228.304 63.5016C228.304 63.5016 229.002 64.5556 229.002 63.5016ZM108.45 61.3937L107.985 62.4476C108.683 62.1841 108.45 62.7111 108.683 62.1841C108.916 61.6571 108.683 62.1841 108.45 61.3937ZM749.842 61.3937L749.376 62.4476C750.074 62.1841 749.842 62.7111 750.074 62.1841C750.074 61.3937 750.307 62.1841 749.842 61.3937ZM536.432 66.6635C536.432 66.4 535.967 66.6635 535.967 66.6635C535.967 66.6635 535.036 65.346 535.734 66.927C536.432 66.927 536.432 67.454 536.432 66.6635ZM508.273 62.4476C508.273 62.1841 507.807 62.4476 507.807 62.4476C507.807 62.4476 506.876 61.1302 507.574 62.4476H507.807C508.04 62.4476 508.273 63.5016 508.273 62.4476ZM859.455 62.9746C859.455 62.7111 858.99 62.9746 858.99 62.9746C858.99 62.9746 858.292 61.6571 858.757 62.9746H858.99C859.223 62.9746 859.455 64.0286 859.455 62.9746ZM870.161 63.5016C870.161 63.2381 869.695 63.5016 869.695 63.5016C869.695 63.5016 868.997 62.1841 869.463 63.5016H869.695C869.928 63.5016 870.161 64.5556 870.161 63.5016ZM808.256 61.9206H807.79L808.256 62.4476V61.9206ZM167.097 61.9206H166.631L167.097 62.4476V61.9206ZM440.317 53.7524V53.2254L439.619 53.4889L440.317 53.7524ZM854.801 76.6762C855.266 75.3587 854.103 76.4127 854.801 76.6762C854.335 76.6762 854.335 76.6762 854.801 76.6762ZM353.277 63.5016C353.51 63.5016 353.277 63.7651 353.277 63.5016V63.5016ZM353.277 65.0825C353.51 65.0825 353.277 65.346 353.277 65.0825V65.0825Z" fill="white"/>
</svg>
