<svg width="44" height="44" viewBox="0 0 44 44" fill="none" xmlns="http://www.w3.org/2000/svg">
<path d="M2.75 39.875V4.12502C2.75 3.36559 3.36557 2.75002 4.125 2.75002H24.75V8.25002C24.75 9.76879 25.9812 11 27.5 11H33V15.125H35.75V9.62502C35.7521 9.25953 35.6086 8.90821 35.3512 8.64877L27.1012 0.398772C26.8418 0.141389 26.4905 -0.00204056 26.125 2.19398e-05H4.125C1.8468 2.19398e-05 0 1.8469 0 4.12502V39.875C0 42.1532 1.8468 44 4.125 44H13.75V41.25H4.125C3.36566 41.25 2.75 40.6344 2.75 39.875Z" fill="#D29C4E"/>
<path d="M16.5 22.0001H11C10.2406 22.0001 9.625 22.6157 9.625 23.3751V34.3751C9.625 35.1345 10.2406 35.7501 11 35.7501H16.5C18.0188 35.7501 19.25 34.5189 19.25 33.0001V24.7501C19.25 23.2313 18.0188 22.0001 16.5 22.0001ZM16.5 33.0001H12.375V24.7501H16.5V33.0001Z" fill="#D29C4E"/>
<path d="M26.125 22.0001C23.0875 22.0001 20.625 24.4626 20.625 27.5001V30.2501C20.625 33.2876 23.0875 35.7501 26.125 35.7501C29.1625 35.7501 31.625 33.2876 31.625 30.2501V27.5001C31.625 24.4626 29.1625 22.0001 26.125 22.0001ZM28.875 30.2501C28.875 31.7689 27.6438 33.0001 26.125 33.0001C24.6062 33.0001 23.375 31.7689 23.375 30.2501V27.5001C23.375 25.9813 24.6062 24.7501 26.125 24.7501C27.6438 24.7501 28.875 25.9813 28.875 27.5001V30.2501Z" fill="#D29C4E"/>
<path d="M38.5 33.0001C36.9812 33.0001 35.75 31.7689 35.75 30.2501V27.5001C35.75 25.9813 36.9812 24.7501 38.5 24.7501C40.0188 24.7501 41.25 25.9813 41.25 27.5001H44C44 24.4626 41.5375 22.0001 38.5 22.0001C35.4625 22.0001 33 24.4626 33 27.5001V30.2501C33 33.2876 35.4625 35.7501 38.5 35.7501C41.5375 35.7501 44 33.2876 44 30.2501H41.25C41.25 31.7689 40.0188 33.0001 38.5 33.0001Z" fill="#D29C4E"/>
</svg>
