<svg width="570" height="570" viewBox="0 0 570 570" fill="none" xmlns="http://www.w3.org/2000/svg">
<path d="M535.033 5.71775L563.299 29.8383V540.162L535.033 564.281H38.4471L10.1813 540.162V523.812L15.9244 521.184V538.132L40.8254 559.381H532.654L557.555 538.132V31.8669L532.654 10.6194H40.8254L15.9244 31.8669V521.184L10.1813 523.812V29.8383L38.4471 5.71775L535.033 5.71775Z" fill="#D6A354"/>
<path d="M560.427 0L550.854 8.1689L560.427 16.3378L570 8.1689L560.427 0Z" fill="#D6A354"/>
<path d="M560.427 553.662L550.854 561.831L560.427 570L570 561.831L560.427 553.662Z" fill="#D6A354"/>
<path d="M9.573 0L0 8.1689L9.573 16.3378L19.146 8.1689L9.573 0Z" fill="#D6A354"/>
<path d="M9.573 553.662L0 561.831L9.573 570L19.146 561.831L9.573 553.662Z" fill="#D6A354"/>
</svg>
