<svg width="292" height="166" viewBox="0 0 292 166" fill="none" xmlns="http://www.w3.org/2000/svg">
<path fill-rule="evenodd" clip-rule="evenodd" d="M177.31 74.0212C180.075 79.2432 197.045 78.6167 200.744 78.6167L204.748 83.535L201.659 88.757C189.951 88.757 182.858 84.4461 172.371 82.9277C165.889 81.6939 118.409 112.095 109.772 117.013C93.7359 125.596 37.0092 156.32 17.5796 155.997C16.0358 155.997 15.1199 155.694 13.881 155.086C4.32768 150.775 5.8535 140.351 10.7922 135.432C12.0311 133.894 12.947 133.59 14.7969 132.983L81.3999 108.715C91.2773 104.728 139.385 85.681 146.783 75.8634L110.383 71.8573L110.078 87.5233L0 72.7874L0.93395 45.4616L169.588 70.9451L164.669 72.18C170.217 83.8399 163.43 70.3378 177.311 74.0223H177.312L177.31 74.0212ZM1.23776 35.625V35.3213V32.8717C1.84765 24.5736 4.32655 17.5094 8.94116 11.68C14.1848 5.22423 21.2783 1.84338 29.9157 2.16612C39.4689 2.16612 46.8674 5.22311 52.111 11.0715C57.0497 17.2046 59.5095 25.5037 59.5095 36.2514C59.5095 41.1506 59.2045 45.4616 57.9657 49.4487L45.9526 47.6064C46.8674 44.2267 47.1735 40.5421 47.1735 36.2514C47.1735 20.5854 41.6249 12.591 29.9168 12.591C24.6732 12.591 20.6684 14.4333 17.8846 18.7431C15.4248 22.4265 13.881 27.0221 13.5749 32.5668C13.5749 35.3202 12.9459 40.2385 13.2508 42.6881L0.932825 40.5422L1.23776 35.9275V35.6238V35.625ZM220.479 20.5854C218.629 19.978 216.456 19.978 214.301 19.978C212.146 19.978 210.297 19.978 208.447 20.5854C204.138 21.4965 200.115 23.6614 197.35 27.0232C193.022 31.6379 190.868 37.7709 190.868 45.1579C190.868 52.8295 192.718 58.9626 197.045 63.5772C201.05 68.1728 206.904 70.6414 214.302 70.6414C221.396 70.6414 227.249 68.1728 231.578 63.5772C235.582 58.9626 237.736 52.8295 237.736 45.1579C237.736 37.1635 235.582 31.0294 231.578 26.7196C228.794 23.3398 225.095 21.4976 220.481 20.5865L220.479 20.5854ZM190.867 10.7488C191.801 10.1414 192.106 9.22925 192.106 8.29916C192.106 6.15321 190.562 4.61575 188.407 4.61575H183.163V10.1414C183.468 10.4451 183.468 11.0715 183.773 11.3763C184.402 12.9138 185.013 15.0597 185.318 16.902H188.407C190.867 16.902 192.411 15.6682 192.411 13.5223C192.411 12.2874 191.801 11.3763 190.867 10.7499V10.7488ZM186.252 9.53293V7.38699H188.102C188.712 7.38699 189.017 7.69067 189.017 8.29803C189.017 8.9054 188.712 9.53182 188.102 9.53182H186.252V9.53293ZM186.252 14.4322V11.9826H188.102C189.017 11.9826 189.323 12.5899 189.323 13.2163C189.323 13.8237 189.018 14.4322 188.102 14.4322H186.252ZM204.443 16.9009L200.114 4.61463H197.654L193.02 16.9009H196.414L197.043 15.0586H200.743L201.353 16.9009H204.442H204.443ZM199.809 12.5899H197.654L198.894 9.22925L199.809 12.5899ZM215.54 16.9009L212.756 11.9826C213.385 11.6789 213.69 11.3752 213.995 11.0715C214.3 10.4451 214.605 9.53294 214.605 8.60284C214.605 6.45689 213.061 4.61575 210.601 4.61575H205.663V16.902H208.751V12.2874H209.685L211.84 16.902H215.539L215.54 16.9009ZM208.751 9.83662V7.38699H210.295C211.21 7.38699 211.839 7.99435 211.839 8.60284C211.839 9.22925 211.21 9.83662 210.295 9.83662H208.751ZM224.482 10.7477C225.397 10.1403 226.026 9.22813 226.026 8.29803C226.026 6.15209 224.482 4.61463 222.003 4.61463H216.779V16.9009H222.327C224.482 16.9009 226.026 15.6671 226.026 13.5211C226.026 12.2862 225.721 11.3752 224.482 10.7488V10.7477ZM219.848 9.53182V7.38587H221.698C222.632 7.38587 222.937 7.68955 222.937 8.29691C222.937 8.90428 222.632 9.53069 221.698 9.53069H219.848V9.53182ZM219.848 14.4311V11.9814H222.003C222.632 11.9814 222.937 12.5888 222.937 13.2152C222.937 13.8226 222.632 14.4311 222.003 14.4311H219.848ZM236.494 16.8998V14.4311H231.27V12.2851H235.884V9.53182H231.27V7.36682H236.494V4.6135H228.181V16.8998H236.494ZM248.22 16.8998L245.76 11.9814C246.37 11.6778 246.37 11.3741 246.675 11.0704C247.285 10.444 247.609 9.53181 247.609 8.60172C247.609 6.45577 246.064 4.61463 243.587 4.61463H238.667V16.9009H241.737V12.2862H242.671L244.825 16.9009H248.219L248.22 16.8998ZM241.738 9.8355V7.38587H243.282C244.216 7.38587 244.52 7.99323 244.52 8.60172C244.52 9.22813 244.216 9.8355 243.282 9.8355H241.738ZM255.924 7.99323L257.774 6.15097C257.164 5.52455 256.859 5.22087 256.229 4.91719C255.619 4.61351 254.703 4.6135 253.769 4.6135C251.004 4.6135 249.154 6.15097 249.154 8.6006C249.154 10.4429 250.375 11.6766 252.529 11.9803L254.073 12.284C254.702 12.284 255.007 12.5877 255.007 13.2141C255.007 14.1251 254.378 14.43 253.462 14.43C252.528 14.43 251.918 14.43 251.307 14.1263C251.002 13.8226 251.002 13.8226 250.678 13.5189L248.523 15.3612C249.457 16.2722 249.762 16.2722 250.373 16.5961C251.002 16.8998 251.917 17.2034 253.157 17.2034C256.226 17.2034 258.076 15.666 258.076 13.2163C258.076 11.0704 257.161 9.83662 254.702 9.53293L253.157 9.22925C252.528 9.22925 252.223 8.90652 252.223 8.29916C252.223 7.69179 252.852 7.36906 253.767 7.36906C254.376 7.36906 255.007 7.36906 255.312 7.36906C255.616 7.69179 255.616 7.69179 255.921 7.99547L255.924 7.99323ZM269.195 16.8998V4.6135H266.411V9.53182H263.017V4.6135H259.948V16.8998H263.017V11.9814H266.411V16.8998H269.195ZM280.597 10.7477V9.83662C280.597 7.99435 280.292 6.76057 279.358 5.84952C278.443 4.91943 277.508 4.61575 275.964 4.61575C274.743 4.61575 273.504 4.91943 272.59 5.84952C271.656 7.06537 271.351 7.99547 271.351 10.4451V11.0715C271.351 12.5911 271.351 14.4322 272.59 15.6671C273.504 16.5972 274.744 17.2046 275.964 17.2046C277.508 17.2046 278.748 16.5972 279.358 15.6671C280.902 14.4333 280.597 12.591 280.597 10.7488V10.7477ZM274.743 7.69067C275.048 7.38699 275.658 7.38699 275.964 7.38699C276.593 7.38699 276.898 7.38699 277.203 7.69067C277.508 8.29804 277.813 9.22813 277.813 10.444V11.0704C277.813 12.9127 277.508 13.52 277.203 13.8237C276.898 14.1274 276.593 14.4311 275.964 14.4311C275.659 14.4311 275.049 14.1274 274.743 13.8237C274.438 13.52 274.438 12.9127 274.438 11.0704V10.444C274.438 9.22813 274.438 8.29804 274.743 7.69067ZM282.752 4.61463V16.9009H285.84V12.5899H287.69C290.15 12.5899 292 11.0704 292 8.60284C292 6.45689 290.15 4.61575 287.69 4.61575H282.752V4.61463ZM285.84 9.83662V7.38699H287.385C288.3 7.38699 288.929 7.99435 288.929 8.60284C288.929 9.22925 288.3 9.83662 287.385 9.83662H285.84ZM68.1435 2.77236L79.5455 0V52.5236H79.2406L68.1435 50.9861V2.77236ZM88.7939 53.1321C88.4889 50.9861 88.184 48.5175 88.184 46.0678C88.184 38.3962 90.6438 31.9393 94.9726 27.0221C99.5872 22.4265 105.155 19.9769 111.924 19.9769C115.623 19.9769 119.018 20.5843 122.107 22.1229V2.77236L133.509 0V60.8037L122.107 58.9614V32.5668C119.647 30.4018 117.168 29.4908 114.403 29.4908C109.769 29.4908 106.376 31.0283 103.916 33.7827C101.437 36.5551 100.217 40.5433 100.217 45.7653C100.217 49.145 100.827 52.221 102.067 54.367C102.372 54.9743 102.677 55.5828 103.288 56.2093H102.983L89.1213 54.0633L88.7972 53.1332L88.7939 53.1321ZM141.23 61.7338L142.145 2.77236C151.087 2.46868 157.571 2.16499 161.27 2.16499C168.039 2.16499 173.607 3.68453 177.61 6.76057C181.309 9.83662 183.464 13.8248 183.464 19.3505C183.464 24.5725 180.68 28.8644 174.826 31.9404C183.159 34.7128 187.469 40.8458 187.469 49.7524C187.469 55.9044 185.009 60.8037 180.375 64.1846C179.46 64.811 177.915 66.3305 176.675 67.2606L173.606 66.6532L147.997 62.9508L141.228 61.7349L141.23 61.7338ZM154.177 12.2862V28.2559C156.027 28.5596 157.876 28.5596 159.726 28.5596C167.734 28.5596 171.434 25.8063 171.434 19.9769C171.434 14.7549 168.04 12.2862 160.966 12.2862C159.097 12.2862 156.637 12.2862 154.177 12.2862ZM154.177 37.7698V59.5879C156.332 59.8915 158.487 59.8915 160.031 59.8915C165.274 59.8915 168.974 58.9614 171.433 57.1192C173.912 55.5817 175.131 52.5236 175.131 48.5175C175.131 44.5304 173.91 41.7759 171.757 40.2385C169.583 38.3962 165.579 37.4661 160.029 37.4661C158.791 37.4661 156.941 37.4661 154.176 37.7698H154.177ZM202.591 45.1568C202.591 55.9044 206.594 61.1074 214.299 61.1074C217.692 61.1074 220.476 59.8915 222.631 57.1192C224.786 54.0622 225.72 50.3586 225.72 45.1557C225.72 34.408 222.002 29.186 214.299 29.186C210.6 29.186 207.834 30.7235 205.661 33.4779C203.811 36.2503 202.592 39.9337 202.592 45.1568H202.591ZM243.282 88.7559L238.972 83.5339L243.282 78.6156C244.216 78.6156 245.131 78.6156 246.37 78.6156C247.915 78.3119 249.154 78.3119 250.375 78.0083C252.53 77.4009 253.769 76.166 254.704 75.5586C255.314 74.6285 255.619 74.0212 255.924 73.09C256.229 72.4826 256.553 72.1789 256.229 71.2477C256.229 68.1716 255.009 64.1834 252.854 58.6578L237.428 20.888H249.155L262.712 54.3659L274.744 20.888H286.758L264.868 78.6145L264.563 78.9182C264.563 78.9182 259.625 89.3622 243.284 88.7548L243.282 88.7559ZM155.722 76.166C157.877 76.166 159.726 78.0083 159.726 80.1531C159.726 82.6027 157.876 84.464 155.722 84.1413C153.548 84.1413 151.699 82.299 151.699 80.1531C151.699 78.0071 153.549 76.166 155.722 76.166ZM21.5799 139.723C23.7347 139.723 25.5846 141.565 25.5846 143.729C25.5846 145.875 23.7347 147.716 21.5799 147.716C19.1201 147.716 17.5763 145.874 17.5763 143.405C17.5763 141.259 19.1201 139.418 21.5799 139.722V139.723Z" fill="black"/>
<path d="M202.673 113.048H200.353V114.504H201.825V114.616L201.217 114.984V125H202.673V119.32H203.441L206.097 125H207.697L204.705 118.6L207.329 113.048H205.729L203.441 117.864H202.673V113.048ZM210.533 119.608V114.472H212.245L213.221 115.448V118.552L212.229 119.608H210.533ZM212.837 113.016H208.213V114.424H209.685V114.536L209.077 114.904V125H210.533V121.064H212.853L214.693 119.128V114.84L212.837 113.016ZM219.752 118.888L218.728 115.752L217.832 113H215.88V114.344H217.432V114.456L216.936 114.76L219 120.808L217.688 125H219.224L223.128 113H221.592L220.648 115.736L219.784 118.888H219.752ZM225.247 114.376V114.488L224.655 114.84V125H226.111V114.424H228.815V125H230.271V113.032H223.807V114.376H225.247ZM231.823 114.504H233.263V114.616L232.671 114.968V125H234.127V119.72H236.831V125H238.287V113.048H236.831V118.328H234.127V113.048H231.823V114.504ZM242.126 118.344V114.472H244.126V115.848H245.582V113.016H239.822V114.472H241.278V114.584L240.67 114.952V125H245.726V122.312H244.27V123.544H242.126V119.8H244.83V118.344H242.126ZM249.887 112.136H251.871L252.767 111.144L251.999 110.264L251.359 110.776H250.383L249.775 110.264L248.975 111.144L249.887 112.136ZM248.575 114.504V114.616L247.983 114.968V125H249.535L251.407 119.112L252.543 115.08H252.591L252.319 119.24V125H253.775V113.048H251.807L250.447 117.336L249.263 122.072H249.215L249.439 117.256V113.048H247.135V114.504H248.575ZM256.763 114.504V114.616L256.171 114.968V125H264.987V113.032H263.531V123.624H261.307V113.032H259.851V123.624H257.627V113.048H255.323V114.504H256.763ZM270.829 120.424H268.749L269.629 114.472H269.933L270.829 120.424ZM267.437 114.472H268.685V114.584L268.077 114.952L266.605 125H268.077L268.541 121.88H271.037L271.501 125H272.973L271.197 113.016H267.437V114.472ZM278.461 125H279.917V114.488H280.797V113.016H276.397L274.557 114.872V119.016L275.853 120.408L273.725 125H275.325L277.197 120.968H278.461V125ZM279.037 114.488V114.6L278.461 114.952V119.512H277.005L276.013 118.44V115.464L276.989 114.488H279.037ZM147.403 142.984H148.827V131.016H145.931L145.243 135.768L144.843 139.944H144.795L144.379 135.704L143.691 131.016H139.931V132.44H141.371V132.552L140.795 132.904V142.984H142.219V132.44H142.427L143.915 141.896H145.755L147.195 132.44H147.403V142.984ZM152.658 136.344V132.472H154.658V133.848H156.114V131.016H150.354V132.472H151.81V132.584L151.202 132.952V143H156.258V140.312H154.802V141.544H152.658V137.8H155.362V136.344H152.658ZM163.618 135.944V131H162.162V135.944H161.682L159.522 131H157.922L160.418 136.6L157.506 143H159.106L161.682 137.24H162.162V143H163.618V137.24H164.098L166.674 143H168.274L165.362 136.6L167.858 131H166.258L164.098 135.944H163.618ZM174.354 141.72H171.586L172.914 132.44H174.354V141.72ZM170.37 144.2V143H175.426V144.2H176.834V141.72H175.81V131.016H170.722V132.44H171.97V132.552L171.362 132.936L170.114 141.72H168.962V144.2H170.37ZM181.33 136.888L180.306 133.752L179.41 131H177.458V132.344H179.01V132.456L178.514 132.76L180.578 138.808L179.266 143H180.802L184.706 131H183.17L182.226 133.736L181.362 136.888H181.33ZM185.385 132.504H186.825V132.616L186.233 132.968V143H187.689V137.72H190.393V143H191.849V131.048H190.393V136.328H187.689V131.048H185.385V132.504ZM197.689 138.424H195.609L196.489 132.472H196.793L197.689 138.424ZM194.297 132.472H195.545V132.584L194.937 132.952L193.465 143H194.937L195.401 139.88H197.897L198.361 143H199.833L198.057 131.016H194.297V132.472ZM203.048 137.608V132.472H204.76L205.736 133.448V136.552L204.744 137.608H203.048ZM205.352 131.016H200.728V132.424H202.2V132.536L201.592 132.904V143H203.048V139.064H205.368L207.208 137.128V132.84L205.352 131.016ZM215.196 132.664L213.388 130.856H211.1L209.292 132.664V141.128L211.084 143.048H213.388L215.196 141.128V132.664ZM212.764 141.608H211.708L210.732 140.568V133.256L211.692 132.296H212.78L213.74 133.256V140.568L212.764 141.608ZM222.073 141.72H219.305L220.633 132.44H222.073V141.72ZM218.089 144.2V143H223.145V144.2H224.553V141.72H223.529V131.016H218.441V132.44H219.689V132.552L219.081 132.936L217.833 141.72H216.681V144.2H218.089ZM225.385 132.504H226.825V132.616L226.233 132.968V143H227.689V137.72H230.393V143H231.849V131.048H230.393V136.328H227.689V131.048H225.385V132.504ZM237.689 138.424H235.609L236.489 132.472H236.793L237.689 138.424ZM234.297 132.472H235.545V132.584L234.937 132.952L233.465 143H234.937L235.401 139.88H237.897L238.361 143H239.833L238.057 131.016H234.297V132.472ZM245.32 143H246.776V132.488H247.656V131.016H243.256L241.416 132.872V137.016L242.712 138.408L240.584 143H242.184L244.056 138.968H245.32V143ZM245.896 132.488V132.6L245.32 132.952V137.512H243.864L242.872 136.44V133.464L243.848 132.488H245.896ZM256.283 134.536H257.739V132.728L255.995 130.904H253.723L251.979 132.728V141.144L253.707 143.08H255.995L257.739 141.144V139.256L256.283 139.272V140.6L255.355 141.624H254.347L253.435 140.6V133.304L254.331 132.36H255.371L256.283 133.304V134.536ZM261.454 136.344V132.472H263.454V133.848H264.91V131.016H259.15V132.472H260.606V132.584L259.998 132.952V143H265.054V140.312H263.598V141.544H261.454V137.8H264.158V136.344H261.454ZM268.911 143H270.367V132.312H271.647V133.576H272.943V131H266.367V133.576H267.663V132.312H268.911V143ZM280.127 141.176V136.888L278.287 134.952H275.967V131.016H274.511V143H278.271L280.127 141.176ZM277.663 136.408L278.655 137.464V140.568L277.679 141.544H275.967V136.408H277.663ZM117.81 160.984H119.234V149.016H116.338L115.65 153.768L115.25 157.944H115.202L114.786 153.704L114.098 149.016H110.338V150.44H111.778V150.552L111.202 150.904V160.984H112.626V150.44H112.834L114.322 159.896H116.162L117.602 150.44H117.81V160.984ZM124.44 154.888L123.416 151.752L122.52 149H120.568V150.344H122.12V150.456L121.624 150.76L123.688 156.808L122.376 161H123.912L127.816 149H126.28L125.336 151.736L124.472 154.888H124.44ZM134.447 153.944V149H132.991V153.944H132.511L130.351 149H128.751L131.247 154.6L128.335 161H129.935L132.511 155.24H132.991V161H134.447V155.24H134.927L137.503 161H139.103L136.191 154.6L138.687 149H137.087L134.927 153.944H134.447ZM144.846 152.536H146.302V150.728L144.558 148.904H142.286L140.542 150.728V159.144L142.27 161.08H144.558L146.302 159.144V157.256L144.846 157.272V158.6L143.918 159.624H142.91L141.998 158.6V151.304L142.894 150.36H143.934L144.846 151.304V152.536ZM150.017 149.048H147.697V150.504H149.169V150.616L148.561 150.984V161H150.017V155.32H150.785L153.441 161H155.041L152.049 154.6L154.673 149.048H153.073L150.785 153.864H150.017V149.048ZM157.028 150.504V150.616L156.436 150.968V161H157.988L159.86 155.112L160.996 151.08H161.044L160.772 155.24V161H162.228V149.048H160.26L158.9 153.336L157.716 158.072H157.668L157.892 153.256V149.048H155.588V150.504H157.028ZM168.896 161H170.432L168.176 154.456L170.016 149.016H168.496L167.008 153.608H166.944L165.44 149.016H163.504V150.376H165.024V150.488L164.528 150.824L165.792 154.456L163.488 161H165.024L166.944 155.288H167.008L168.896 161ZM175.341 150.376V150.488L174.749 150.84V161H176.205V150.424H178.909V161H180.365V149.032H173.901V150.376H175.341ZM186.204 156.424H184.124L185.004 150.472H185.308L186.204 156.424ZM182.812 150.472H184.06V150.584L183.452 150.952L181.98 161H183.452L183.916 157.88H186.412L186.876 161H188.348L186.572 149.016H182.812V150.472ZM191.564 155.608V150.472H193.276L194.252 151.448V154.552L193.26 155.608H191.564ZM193.868 149.016H189.244V150.424H190.716V150.536L190.108 150.904V161H191.564V157.064H193.884L195.724 155.128V150.84L193.868 149.016ZM198.56 150.504V150.616L197.968 150.968V161H199.52L201.391 155.112L202.528 151.08H202.576L202.304 155.24V161H203.76V149.048H201.792L200.432 153.336L199.248 158.072H199.2L199.424 153.256V149.048H197.12V150.504H198.56ZM207.595 149.048H205.275V150.504H206.747V150.616L206.139 150.984V161H207.595V155.32H208.363L211.019 161H212.619L209.627 154.6L212.251 149.048H210.651L208.363 153.864H207.595V149.048ZM220.606 160.984H222.03V149.016H219.134L218.446 153.768L218.046 157.944H217.998L217.582 153.704L216.894 149.016H213.134V150.44H214.574V150.552L213.998 150.904V160.984H215.422V150.44H215.63L217.118 159.896H218.958L220.398 150.44H220.606V160.984ZM227.861 156.424H225.781L226.661 150.472H226.965L227.861 156.424ZM224.469 150.472H225.717V150.584L225.109 150.952L223.637 161H225.109L225.573 157.88H228.069L228.533 161H230.005L228.229 149.016H224.469V150.472ZM236.052 161H237.588L235.332 154.456L237.172 149.016H235.652L234.164 153.608H234.1L232.596 149.016H230.66V150.376H232.18V150.488L231.684 150.824L232.948 154.456L230.644 161H232.18L234.1 155.288H234.164L236.052 161ZM240.439 154.344V150.472H242.439V151.848H243.895V149.016H238.135V150.472H239.591V150.584L238.983 150.952V161H244.039V158.312H242.583V159.544H240.439V155.8H243.143V154.344H240.439ZM247.736 155.608V150.472H249.448L250.424 151.448V154.552L249.432 155.608H247.736ZM250.04 149.016H245.416V150.424H246.888V150.536L246.28 150.904V161H247.736V157.064H250.056L251.896 155.128V150.84L250.04 149.016ZM258.283 152.536H259.739V150.728L257.995 148.904H255.723L253.979 150.728V159.144L255.707 161.08H257.995L259.739 159.144V157.256L258.283 157.272V158.6L257.355 159.624H256.347L255.435 158.6V151.304L256.331 150.36H257.371L258.283 151.304V152.536ZM263.454 149.048H261.134V150.504H262.606V150.616L261.998 150.984V161H263.454V155.32H264.222L266.878 161H268.478L265.486 154.6L268.11 149.048H266.51L264.222 153.864H263.454V149.048ZM270.466 150.504V150.616L269.874 150.968V161H271.426L273.298 155.112L274.434 151.08H274.482L274.21 155.24V161H275.666V149.048H273.698L272.338 153.336L271.154 158.072H271.106L271.33 153.256V149.048H269.026V150.504H270.466ZM282.333 161H283.869L281.613 154.456L283.453 149.016H281.933L280.445 153.608H280.381L278.877 149.016H276.941V150.376H278.461V150.488L277.965 150.824L279.229 154.456L276.925 161H278.461L280.381 155.288H280.445L282.333 161Z" fill="#D29C4E"/>
</svg>
