<svg width="253" height="136" viewBox="0 0 253 136" fill="none" xmlns="http://www.w3.org/2000/svg">
<path d="M147.673 93.5134L149.576 95.5452V100.471L147.703 102.349H144.42V93.5134H147.673ZM142.762 84.863V85.0785L141.627 85.7557V105.15H148.839L152.399 101.641V94.437L148.87 90.712H144.42V84.863H148.962V87.2026H151.755V82.0616H140V84.863H142.762Z" fill="#D29C4E"/>
<path d="M163.305 96.3456H159.315L161.003 84.8937H161.587L163.305 96.3456ZM156.799 84.8937H159.193V85.1092L158.026 85.8173L155.203 105.15H158.026L158.916 99.147H163.704L164.594 105.15H167.418L164.011 82.0924H156.799V84.8937Z" fill="#D29C4E"/>
<path d="M173.463 94.1599H176.072L178.036 96.1609V100.563L176.286 102.472H174.353L172.634 100.563V97.5154H169.841V101.671L173.156 105.212H177.514L180.859 101.671V94.868L178.557 92.5899L180.246 90.5581V85.4787L177.054 82H173.156L170.025 85.4787V88.003H172.849V86.6485L174.322 84.863H175.887L177.422 86.6485V89.4499L175.795 91.4509H173.463V94.1599Z" fill="#D29C4E"/>
<path d="M191.928 96.3456H187.938L189.626 84.8937H190.21L191.928 96.3456ZM185.422 84.8937H187.816V85.1092L186.649 85.8173L183.826 105.15H186.649L187.539 99.147H192.327L193.217 105.15H196.041L192.634 82.0924H185.422V84.8937Z" fill="#D29C4E"/>
<path d="M144.45 123.948H147.059L149.023 125.949V130.352L147.274 132.26H145.34L143.622 130.352V127.304H140.829V131.46L144.143 135H148.501L151.847 131.46V124.656L149.545 122.378L151.233 120.347V115.267L148.041 111.788H144.143L141.013 115.267V117.791H143.836V116.437L145.31 114.651H146.875L148.409 116.437V119.238L146.783 121.239H144.45V123.948Z" fill="#D29C4E"/>
<path d="M154.69 114.744H157.453V114.959L156.317 115.636V134.938H159.11V124.78H164.297V134.938H167.09V111.942H164.297V122.101H159.11V111.942H154.69V114.744Z" fill="#D29C4E"/>
<path d="M178.291 126.134H174.301L175.989 114.682H176.572L178.291 126.134ZM171.785 114.682H174.179V114.898L173.012 115.606L170.189 134.938H173.012L173.902 128.935H178.69L179.58 134.938H182.404L178.997 111.881H171.785V114.682Z" fill="#D29C4E"/>
<path d="M184.183 114.744H186.945V114.959L185.809 115.636V134.938H188.602V124.78H193.789V134.938H196.582V111.942H193.789V122.101H188.602V111.942H184.183V114.744Z" fill="#D29C4E"/>
<path d="M202.32 114.744V114.959L201.185 115.636V134.938H204.162L207.753 123.61L209.932 115.852H210.024L209.502 123.856V134.938H212.295V111.942H208.52L205.911 120.193L203.64 129.305H203.548L203.978 120.039V111.942H199.558V114.744H202.32Z" fill="#D29C4E"/>
<path d="M220.542 110.188H224.348L226.066 108.279L224.593 106.586L223.366 107.571H221.494L220.327 106.586L218.793 108.279L220.542 110.188ZM218.025 114.744V114.959L216.89 115.636V134.938H219.867L223.458 123.61L225.637 115.852H225.729L225.207 123.856V134.938H228V111.942H224.225L221.616 120.193L219.345 129.305H219.253L219.683 120.039V111.942H215.263V114.744H218.025Z" fill="#D29C4E"/>
<path fill-rule="evenodd" clip-rule="evenodd" d="M153.076 64.1672C155.463 68.6943 170.114 68.1508 173.307 68.1508L176.764 72.4143L174.097 76.9414C163.99 76.9414 157.866 73.2045 148.812 71.8877C143.215 70.8178 102.226 97.1726 94.769 101.436C80.925 108.877 31.9516 135.512 15.1774 135.232C13.844 135.232 13.0538 134.968 11.984 134.442C3.73689 130.705 5.05338 121.667 9.31733 117.404C10.3871 116.07 11.1773 115.807 12.7742 115.28L70.2743 94.2424C78.8014 90.7855 120.334 74.2744 126.721 65.7637L95.2961 62.2903L95.0326 75.8712L0 63.097L0.806673 39.409L146.409 61.5005L142.162 62.5707C146.953 72.6783 141.093 60.9738 153.077 64.1676H153.077L153.076 64.1672ZM1.06981 30.8818V30.6183V28.4947C1.59648 21.301 3.7365 15.1774 7.72006 10.1236C12.2472 4.52671 18.3707 1.59648 25.8277 1.87649C34.0748 1.87649 40.4619 4.5267 44.989 9.59694C49.2526 14.9138 51.3761 22.1076 51.3761 31.425C51.3761 35.6721 51.1126 39.409 50.0428 42.8658L39.6721 41.269C40.4623 38.3391 40.7254 35.1454 40.7254 31.425C40.7254 17.8441 35.9352 10.9138 25.8277 10.9138C21.3006 10.9138 17.8437 12.5107 15.4405 16.2476C13.317 19.4409 11.9836 23.4249 11.7201 28.2316C11.7201 30.6187 11.1766 34.8819 11.4401 37.0054L0.805889 35.145L1.06942 31.145V30.8814V30.8818H1.06981ZM190.345 17.8445C188.748 17.3178 186.871 17.3178 185.011 17.3178C183.151 17.3178 181.554 17.3178 179.958 17.8445C176.237 18.6347 172.764 20.5112 170.377 23.4249C166.64 27.4249 164.78 32.7422 164.78 39.1458C164.78 45.7961 166.377 51.1134 170.114 55.1134C173.57 59.0974 178.624 61.237 185.011 61.237C191.135 61.237 196.189 59.097 199.926 55.1134C203.382 51.1134 205.243 45.7961 205.243 39.1458C205.243 32.2156 203.382 26.8983 199.926 23.1618C197.522 20.2319 194.329 18.6351 190.345 17.8449V17.8445ZM164.78 9.31733C165.586 8.79066 165.85 8.00046 165.85 7.19379C165.85 5.33377 164.516 4.00043 162.656 4.00043H158.129V8.79066C158.393 9.0542 158.393 9.59733 158.656 9.86087C159.199 11.1942 159.726 13.0542 159.989 14.6511H162.656C164.779 14.6511 166.113 13.5813 166.113 11.7213C166.113 10.6511 165.586 9.86126 164.779 9.31772L164.78 9.31733ZM160.796 8.26399V6.40398H162.393C162.92 6.40398 163.183 6.66751 163.183 7.19418C163.183 7.72085 162.92 8.26399 162.393 8.26399H160.796ZM160.796 12.5111V10.3875H162.393C163.183 10.3875 163.446 10.9142 163.446 11.4574C163.446 11.984 163.183 12.5107 162.393 12.5107H160.796V12.5111ZM176.501 14.6511L172.764 4.00043H170.64L166.64 14.6511H169.57L170.114 13.0542H173.307L173.834 14.6511H176.501ZM172.501 10.9142H170.641L171.711 8.00046L172.501 10.9142H172.501ZM186.082 14.6511L183.678 10.3875C184.221 10.124 184.485 9.86087 184.748 9.59733C185.011 9.0538 185.274 8.26399 185.274 7.45732C185.274 5.5973 183.941 4.00043 181.818 4.00043H177.554V14.6511H180.221V10.6511H181.027L182.887 14.6511H186.081H186.082ZM180.221 8.52713V6.40358H181.554C182.345 6.40358 182.888 6.93026 182.888 7.45693C182.888 8.00007 182.345 8.52674 181.554 8.52674H180.221V8.52713ZM193.802 9.31733C194.592 8.79066 195.135 8.00046 195.135 7.19379C195.135 5.33377 193.802 4.00043 191.662 4.00043H187.151V14.6511H191.942C193.802 14.6511 195.135 13.5813 195.135 11.7213C195.135 10.6511 194.871 9.86126 193.802 9.31772L193.802 9.31733ZM189.802 8.26399V6.40398H191.399C192.206 6.40398 192.469 6.66751 192.469 7.19418C192.469 7.72085 192.205 8.26399 191.399 8.26399H189.802ZM189.802 12.5111V10.3875H191.662C192.205 10.3875 192.469 10.9142 192.469 11.4574C192.469 11.984 192.205 12.5107 191.662 12.5107H189.802V12.5111ZM204.173 14.6511V12.5111H199.662V10.6511H203.646V8.26399H199.662V6.3875H204.173V4.00043H196.996V14.6511H204.173ZM214.297 14.6511L212.174 10.3875C212.7 10.124 212.7 9.86087 212.964 9.59733C213.49 9.0538 213.77 8.26399 213.77 7.45732C213.77 5.5973 212.437 4.00043 210.297 4.00043H206.05V14.6511H208.7V10.6511H209.507L211.367 14.6511H214.297ZM208.7 8.52713V6.40358H210.034C210.84 6.40358 211.103 6.93026 211.103 7.45693C211.103 8.00007 210.84 8.52674 210.034 8.52674H208.7V8.52713ZM220.947 6.93025L222.544 5.33338C222.018 4.79024 221.754 4.5267 221.211 4.26356C220.684 4.00003 219.894 4.00003 219.087 4.00003C216.7 4.00003 215.104 5.33338 215.104 7.45693C215.104 9.0538 216.157 10.1236 218.018 10.3871L219.351 10.6507C219.894 10.6507 220.158 10.9142 220.158 11.4574C220.158 12.2476 219.614 12.5107 218.824 12.5107C218.018 12.5107 217.491 12.5107 216.964 12.2472C216.701 11.9836 216.701 11.9836 216.421 11.7205L214.561 13.3174C215.368 14.1076 215.631 14.1076 216.158 14.3876C216.701 14.6507 217.491 14.9142 218.561 14.9142C221.212 14.9142 222.808 13.5809 222.808 11.4574C222.808 9.59734 222.018 8.52713 219.894 8.26399L218.561 8.00046C218.018 8.00046 217.754 7.72046 217.754 7.19379C217.754 6.66711 218.298 6.38711 219.088 6.38711C219.614 6.38711 220.158 6.38711 220.421 6.38711C220.685 6.66672 220.685 6.66672 220.948 6.93025H220.947ZM232.405 14.6507V4.00003H230.002V8.2636H227.071V4.00003H224.421V14.6507H227.071V10.3871H230.002V14.6507H232.405ZM242.249 9.31694V8.52674C242.249 6.92986 241.985 5.86005 241.179 5.06985C240.389 4.26317 239.582 4.00003 238.249 4.00003C237.195 4.00003 236.125 4.26356 235.335 5.06985C234.528 6.12319 234.265 6.92986 234.265 9.05341V9.59694C234.265 10.9138 234.265 12.5107 235.335 13.5805C236.125 14.3872 237.195 14.9139 238.249 14.9139C239.582 14.9139 240.652 14.3872 241.179 13.5805C242.512 12.5107 242.249 10.9138 242.249 9.31694ZM237.195 6.66672C237.458 6.40319 237.985 6.40319 238.248 6.40319C238.791 6.40319 239.055 6.40319 239.318 6.66672C239.582 7.19339 239.845 8.00007 239.845 9.0538V9.59733C239.845 11.1942 239.581 11.7209 239.318 11.9844C239.055 12.2479 238.791 12.5111 238.248 12.5111C237.985 12.5111 237.458 12.2476 237.195 11.9844C236.931 11.7209 236.931 11.1942 236.931 9.59733V9.0538C236.931 8.00046 236.931 7.19379 237.195 6.66672ZM244.109 4.00003V14.6507H246.775V10.9138H248.372C250.496 10.9138 252.093 9.59694 252.093 7.45693C252.093 5.59691 250.496 4.00003 248.372 4.00003H244.109ZM246.775 8.52674V6.40319H248.109C248.899 6.40319 249.442 6.92986 249.442 7.45653C249.442 7.99968 248.899 8.52635 248.109 8.52635H246.775V8.52674ZM58.8338 2.40316L68.6778 0V45.5325H68.4143L58.8338 44.1992V2.40316ZM76.6618 46.0592C76.3983 44.1992 76.1351 42.0592 76.1351 39.9356C76.1351 33.2854 78.2587 27.6881 81.9956 23.4245C85.9791 19.4409 90.7859 17.3174 96.6298 17.3174C99.8232 17.3174 102.753 17.8441 105.42 19.1774V2.40316L115.264 0V52.7099L105.42 51.113V28.2312C103.297 26.3547 101.157 25.5645 98.7698 25.5645C94.7698 25.5645 91.8392 26.8979 89.7157 29.285C87.5756 31.6885 86.5223 35.1454 86.5223 39.6721C86.5223 42.6019 87.049 45.269 88.1192 47.129C88.3827 47.6557 88.6458 48.1824 89.1725 48.7259H88.909L76.9414 46.8659L76.6618 46.0592ZM121.931 53.5161L122.721 2.40277C130.442 2.13963 136.039 1.87609 139.233 1.87609C145.076 1.87609 149.883 3.19297 153.34 5.85966C156.533 8.52635 158.393 11.9832 158.393 16.7735C158.393 21.3006 155.99 25.021 150.937 27.6877C158.13 30.0912 161.851 35.4081 161.851 43.1286C161.851 48.4624 159.727 52.7095 155.727 55.6393C154.937 56.1828 153.604 57.4993 152.533 58.306L149.883 57.7793L127.775 54.5691L121.931 53.5157V53.5161ZM133.109 10.6503V24.4947C134.705 24.7579 136.302 24.7579 137.899 24.7579C144.813 24.7579 148.006 22.3708 148.006 17.3174C148.006 12.7903 145.076 10.6503 138.969 10.6503C137.356 10.6503 135.232 10.6503 133.109 10.6503ZM133.109 32.7418V51.6561C134.969 51.9197 136.829 51.9197 138.162 51.9197C142.689 51.9197 145.882 51.113 148.006 49.5161C150.146 48.1828 151.199 45.5325 151.199 42.0592C151.199 38.6023 150.146 36.2156 148.286 34.8819C146.409 33.285 142.952 32.4787 138.162 32.4787C137.092 32.4787 135.495 32.4787 133.108 32.7422L133.109 32.7418ZM174.904 39.1454C174.904 48.4628 178.361 52.9734 185.012 52.9734C187.942 52.9734 190.346 51.92 192.206 49.5165C194.066 46.8663 194.872 43.6561 194.872 39.1458C194.872 29.8285 191.662 25.3018 185.012 25.3018C181.818 25.3018 179.431 26.6351 177.555 29.0222C175.958 31.4258 174.905 34.6191 174.905 39.1462L174.904 39.1454ZM210.034 76.9414L206.313 72.4143L210.034 68.1508C210.84 68.1508 211.63 68.1508 212.7 68.1508C214.034 67.8872 215.104 67.8872 216.157 67.6241C218.017 67.0974 219.087 66.0272 219.894 65.5005C220.421 64.6939 220.684 64.1672 220.947 63.3605C221.211 62.8339 221.491 62.5703 221.211 61.7637C221.211 59.097 220.158 55.6401 218.297 50.8498L204.98 18.1076H215.104L226.808 47.1294L237.195 18.1076H247.566L228.668 68.1508L228.404 68.4143C228.404 68.4143 224.141 77.4681 210.033 76.9414H210.034ZM134.442 66.0272C136.302 66.0272 137.899 67.6241 137.899 69.4841C137.899 71.6077 136.302 73.221 134.442 72.941C132.565 72.941 130.969 71.3441 130.969 69.4841C130.969 67.6241 132.565 66.0272 134.442 66.0272ZM18.6347 121.124C20.4951 121.124 22.0916 122.721 22.0916 124.598C22.0916 126.458 20.4947 128.054 18.6347 128.054C16.5111 128.054 15.1778 126.458 15.1778 124.318C15.1778 122.457 16.5111 120.861 18.6347 121.124Z" fill="white"/>
</svg>
