<svg width="32" height="30" viewBox="0 0 32 30" fill="none" xmlns="http://www.w3.org/2000/svg">
<path d="M21.2172 16.0227H1.04348C0.467475 16.0227 0 15.5645 0 15C0 14.4355 0.467475 13.9773 1.04348 13.9773H21.2172C21.7932 13.9773 22.2607 14.4355 22.2607 15C22.2607 15.5645 21.7932 16.0227 21.2172 16.0227Z" fill="black"/>
<path d="M15.6521 21.4772C15.3849 21.4772 15.1179 21.3778 14.9146 21.1773C14.507 20.7778 14.507 20.1301 14.9146 19.7303L19.7425 14.9988L14.9146 10.2669C14.507 9.86742 14.507 9.21948 14.9146 8.81997C15.3225 8.42047 15.9833 8.42047 16.3909 8.81997L21.956 14.2747C22.3636 14.6742 22.3636 15.3218 21.956 15.7213L16.3909 21.1758C16.1864 21.3778 15.9194 21.4772 15.6521 21.4772Z" fill="black"/>
<path d="M16.6956 30C10.3637 30 4.77359 26.2664 2.4515 20.4871C2.24006 19.9635 2.50424 19.369 3.03999 19.1618C3.57421 18.9573 4.18231 19.2122 4.39376 19.7401C6.39867 24.7296 11.2278 27.9546 16.6956 27.9546C23.9831 27.9546 29.913 22.1426 29.913 15C29.913 7.85743 23.9831 2.04544 16.6956 2.04544C11.2278 2.04544 6.39867 5.27041 4.39376 10.2599C4.18078 10.7878 3.57421 11.0427 3.03999 10.8382C2.50424 10.631 2.24006 10.0365 2.4515 9.51286C4.77359 3.73358 10.3637 0 16.6956 0C25.1338 0 32 6.72959 32 15C32 23.2704 25.1338 30 16.6956 30Z" fill="black"/>
</svg>
